# Blender v2.79 (sub 0) OBJ File: 'Shelf.blend'
# www.blender.org
mtllib shelf.mtl
o Floor
v -0.450000 0.090000 0.200000
v -0.450000 0.110000 0.200000
v -0.450000 0.090000 -0.200000
v -0.450000 0.110000 -0.200000
v 0.450000 0.090000 0.200000
v 0.450000 0.110000 0.200000
v 0.450000 0.090000 -0.200000
v 0.450000 0.110000 -0.200000
v -0.450000 0.490000 0.200000
v -0.450000 0.510000 0.200000
v -0.450000 0.490000 -0.200000
v -0.450000 0.510000 -0.200000
v 0.450000 0.490000 0.200000
v 0.450000 0.510000 0.200000
v 0.450000 0.490000 -0.200000
v 0.450000 0.510000 -0.200000
v -0.450000 0.890000 0.200000
v -0.450000 0.910000 0.200000
v -0.450000 0.890000 -0.200000
v -0.450000 0.910000 -0.200000
v 0.450000 0.890000 0.200000
v 0.450000 0.910000 0.200000
v 0.450000 0.890000 -0.200000
v 0.450000 0.910000 -0.200000
v -0.450000 1.290000 0.200000
v -0.450000 1.310000 0.200000
v -0.450000 1.290000 -0.200000
v -0.450000 1.310000 -0.200000
v 0.450000 1.290000 0.200000
v 0.450000 1.310000 0.200000
v 0.450000 1.290000 -0.200000
v 0.450000 1.310000 -0.200000
v -0.450000 1.690000 0.200000
v -0.450000 1.710000 0.200000
v -0.450000 1.690000 -0.200000
v -0.450000 1.710000 -0.200000
v 0.450000 1.690000 0.200000
v 0.450000 1.710000 0.200000
v 0.450000 1.690000 -0.200000
v 0.450000 1.710000 -0.200000
vt 0.062500 0.125000
vt 0.000000 0.875000
vt 0.000000 0.125000
vt 0.875000 0.937500
vt 0.125000 1.000000
vt 0.875000 1.000000
vt 0.937500 0.875000
vt 1.000000 0.125000
vt 1.000000 0.875000
vt 0.875000 0.062500
vt 0.125000 0.000000
vt 0.875000 0.000000
vt 0.937500 0.875000
vt 0.062500 0.125000
vt 0.062500 0.875000
vt 0.062500 0.875000
vt 0.937500 0.125000
vt 0.062500 0.125000
vt 0.000000 0.875000
vt 0.000000 0.125000
vt 0.875000 0.937500
vt 0.125000 1.000000
vt 0.875000 1.000000
vt 0.937500 0.875000
vt 1.000000 0.125000
vt 1.000000 0.875000
vt 0.875000 0.062500
vt 0.125000 0.000000
vt 0.875000 0.000000
vt 0.937500 0.875000
vt 0.062500 0.125000
vt 0.062500 0.875000
vt 0.062500 0.875000
vt 0.937500 0.125000
vt 0.062500 0.125000
vt 0.000000 0.875000
vt 0.000000 0.125000
vt 0.875000 0.937500
vt 0.125000 1.000000
vt 0.875000 1.000000
vt 0.937500 0.875000
vt 1.000000 0.125000
vt 1.000000 0.875000
vt 0.875000 0.062500
vt 0.125000 0.000000
vt 0.875000 0.000000
vt 0.937500 0.875000
vt 0.062500 0.125000
vt 0.062500 0.875000
vt 0.062500 0.875000
vt 0.937500 0.125000
vt 0.062500 0.125000
vt 0.000000 0.875000
vt 0.000000 0.125000
vt 0.875000 0.937500
vt 0.125000 1.000000
vt 0.875000 1.000000
vt 0.937500 0.875000
vt 1.000000 0.125000
vt 1.000000 0.875000
vt 0.875000 0.062500
vt 0.125000 0.000000
vt 0.875000 0.000000
vt 0.937500 0.875000
vt 0.062500 0.125000
vt 0.062500 0.875000
vt 0.062500 0.875000
vt 0.937500 0.125000
vt 0.062500 0.125000
vt 0.000000 0.875000
vt 0.000000 0.125000
vt 0.875000 0.937500
vt 0.125000 1.000000
vt 0.875000 1.000000
vt 0.937500 0.875000
vt 1.000000 0.125000
vt 1.000000 0.875000
vt 0.875000 0.062500
vt 0.125000 0.000000
vt 0.875000 0.000000
vt 0.937500 0.875000
vt 0.062500 0.125000
vt 0.062500 0.875000
vt 0.062500 0.875000
vt 0.937500 0.125000
vt 0.125000 0.937500
vt 0.125000 0.062500
vt 0.937500 0.125000
vt 0.125000 0.937500
vt 0.125000 0.062500
vt 0.937500 0.125000
vt 0.125000 0.937500
vt 0.125000 0.062500
vt 0.937500 0.125000
vt 0.125000 0.937500
vt 0.125000 0.062500
vt 0.937500 0.125000
vt 0.125000 0.937500
vt 0.125000 0.062500
vt 0.937500 0.125000
vn -1.0000 0.0000 0.0000
vn 0.0000 0.0000 -1.0000
vn 1.0000 0.0000 0.0000
vn 0.0000 0.0000 1.0000
vn 0.0000 -1.0000 0.0000
vn 0.0000 1.0000 0.0000
usemtl Wood
s off
f 2/1/1 3/2/1 1/3/1
f 4/4/2 7/5/2 3/6/2
f 8/7/3 5/8/3 7/9/3
f 6/10/4 1/11/4 5/12/4
f 7/13/5 1/14/5 3/15/5
f 4/16/6 6/17/6 8/7/6
f 10/18/1 11/19/1 9/20/1
f 12/21/2 15/22/2 11/23/2
f 16/24/3 13/25/3 15/26/3
f 14/27/4 9/28/4 13/29/4
f 15/30/5 9/31/5 11/32/5
f 12/33/6 14/34/6 16/24/6
f 18/35/1 19/36/1 17/37/1
f 20/38/2 23/39/2 19/40/2
f 24/41/3 21/42/3 23/43/3
f 22/44/4 17/45/4 21/46/4
f 23/47/5 17/48/5 19/49/5
f 20/50/6 22/51/6 24/41/6
f 26/52/1 27/53/1 25/54/1
f 28/55/2 31/56/2 27/57/2
f 32/58/3 29/59/3 31/60/3
f 30/61/4 25/62/4 29/63/4
f 31/64/5 25/65/5 27/66/5
f 28/67/6 30/68/6 32/58/6
f 34/69/1 35/70/1 33/71/1
f 36/72/2 39/73/2 35/74/2
f 40/75/3 37/76/3 39/77/3
f 38/78/4 33/79/4 37/80/4
f 39/81/5 33/82/5 35/83/5
f 36/84/6 38/85/6 40/75/6
f 2/1/1 4/16/1 3/2/1
f 4/4/2 8/86/2 7/5/2
f 8/7/3 6/17/3 5/8/3
f 6/10/4 2/87/4 1/11/4
f 7/13/5 5/88/5 1/14/5
f 4/16/6 2/1/6 6/17/6
f 10/18/1 12/33/1 11/19/1
f 12/21/2 16/89/2 15/22/2
f 16/24/3 14/34/3 13/25/3
f 14/27/4 10/90/4 9/28/4
f 15/30/5 13/91/5 9/31/5
f 12/33/6 10/18/6 14/34/6
f 18/35/1 20/50/1 19/36/1
f 20/38/2 24/92/2 23/39/2
f 24/41/3 22/51/3 21/42/3
f 22/44/4 18/93/4 17/45/4
f 23/47/5 21/94/5 17/48/5
f 20/50/6 18/35/6 22/51/6
f 26/52/1 28/67/1 27/53/1
f 28/55/2 32/95/2 31/56/2
f 32/58/3 30/68/3 29/59/3
f 30/61/4 26/96/4 25/62/4
f 31/64/5 29/97/5 25/65/5
f 28/67/6 26/52/6 30/68/6
f 34/69/1 36/84/1 35/70/1
f 36/72/2 40/98/2 39/73/2
f 40/75/3 38/85/3 37/76/3
f 38/78/4 34/99/4 33/79/4
f 39/81/5 37/100/5 33/82/5
f 36/84/6 34/69/6 38/85/6
