# WaveFront *.obj file (generated by CINEMA 4D)

mtllib ./shelf.mtl

v -0.60000002384186 0.18999999761581 0.30000001192093
v -0.60000002384186 0.20999999344349 0.30000001192093
v 0.60000002384186 0.18999999761581 0.30000001192093
v 0.60000002384186 0.20999999344349 0.30000001192093
v 0.60000002384186 0.18999999761581 -0.30000001192093
v 0.60000002384186 0.20999999344349 -0.30000001192093
v -0.60000002384186 0.18999999761581 -0.30000001192093
v -0.60000002384186 0.20999999344349 -0.30000001192093
# 8 vertices

vn 0 0 1
vn 0 0 0
vn 1 0 0
vn 0 0 -1
vn 0 0 -1
vn -1 0 0
vn 0 1 0
vn 0 -1 0
# 8 normals

vt -2.83333325386047 0.49722230434418 0
vt -2.83333325386047 0.50277781486511 0
vt 0.5 0.50277781486511 0
vt 0 1 0
vt 0.5 0.49722230434418 0
vt 2.16666698455811 0.50277781486511 0
vt 2.16666698455811 0.49722230434418 0
vt 5.5 0.50277781486511 0
vt -4.5 0.49722230434418 0
vt -4.5 0.50277781486511 0
vt 0 0 0
vt 1 1 0
vt 5.5 0.49722230434418 0
vt 1 0 0
# 14 texture coordinates

o Cube.5
usemtl metal
f 4/3/1 2/2/1 1/1/1
f 6/6/3 4/3/3 3/5/3
f 8/8/4 6/6/5 5/7/4
f 2/2/6 8/10/6 7/9/6
f 6/12/7 8/4/7 2/11/7
f 3/12/8 1/4/8 7/11/8
f 3/5/1 4/3/1 1/1/1
f 5/7/3 6/6/3 3/5/3
f 7/13/4 8/8/4 5/7/4
f 1/1/6 2/2/6 7/9/6
f 4/14/7 6/12/7 2/11/7
f 5/14/8 3/12/8 7/11/8

v -0.60000002384186 0.79000002145767 0.30000001192093
v -0.60000002384186 0.81000000238419 0.30000001192093
v 0.60000002384186 0.79000002145767 0.30000001192093
v 0.60000002384186 0.81000000238419 0.30000001192093
v 0.60000002384186 0.79000002145767 -0.30000001192093
v 0.60000002384186 0.81000000238419 -0.30000001192093
v -0.60000002384186 0.79000002145767 -0.30000001192093
v -0.60000002384186 0.81000000238419 -0.30000001192093
# 8 vertices

# 0 normal

# 0 texture coordinate

o Cube.4
usemtl metal
f 12/3/1 10/2/1 9/1/1
f 14/6/3 12/3/3 11/5/3
f 16/8/4 14/6/5 13/7/4
f 10/2/6 16/10/6 15/9/6
f 14/12/7 16/4/7 10/11/7
f 11/12/8 9/4/8 15/11/8
f 11/5/1 12/3/1 9/1/1
f 13/7/3 14/6/3 11/5/3
f 15/13/4 16/8/4 13/7/4
f 9/1/6 10/2/6 15/9/6
f 12/14/7 14/12/7 10/11/7
f 13/14/8 11/12/8 15/11/8

v -0.625 0 -0.27500000596046
v -0.625 1.70000004768372 -0.27500000596046
v -0.57499998807907 0 -0.27500000596046
v -0.57499998807907 1.70000004768372 -0.27500000596046
v -0.57499998807907 0 -0.32499998807907
v -0.57499998807907 1.70000004768372 -0.32499998807907
v -0.625 0 -0.32499998807907
v -0.625 1.70000004768372 -0.32499998807907
# 8 vertices

# 0 normal

vt 0.47222220897675 -1.38888883590698 0
vt 0.47222220897675 2.38888883590698 0
vt 0.5 2.38888883590698 0
vt 0.5 -1.38888883590698 0
vt 0.52777779102325 2.38888883590698 0
vt 0.52777779102325 -1.38888883590698 0
vt 0.55555558204651 2.38888883590698 0
vt 0.44444444775581 -1.38888883590698 0
vt 0.44444444775581 2.38888883590698 0
vt 0.47222220897675 2.5 0
vt 0.5 2.5 0
vt 0.47222220897675 -1.5 0
vt 0.55555558204651 -1.38888883590698 0
vt 0.5 -1.5 0
# 14 texture coordinates

o Cube.3
usemtl metal
f 20/17/1 18/16/1 17/15/1
f 22/19/3 20/17/3 19/18/3
f 24/21/4 22/19/5 21/20/4
f 18/16/6 24/23/6 23/22/6
f 22/25/7 24/24/7 18/16/7
f 19/18/8 17/15/8 23/26/8
f 19/18/1 20/17/1 17/15/1
f 21/20/3 22/19/3 19/18/3
f 23/27/4 24/21/4 21/20/4
f 17/15/6 18/16/6 23/22/6
f 20/17/7 22/25/7 18/16/7
f 21/28/8 19/18/8 23/26/8

v 0.57499998807907 0 -0.27500000596046
v 0.57499998807907 1.70000004768372 -0.27500000596046
v 0.625 0 -0.27500000596046
v 0.625 1.70000004768372 -0.27500000596046
v 0.625 0 -0.32499998807907
v 0.625 1.70000004768372 -0.32499998807907
v 0.57499998807907 0 -0.32499998807907
v 0.57499998807907 1.70000004768372 -0.32499998807907
# 8 vertices

# 0 normal

# 0 texture coordinate

o Cube.2
usemtl metal
f 28/17/1 26/16/1 25/15/1
f 30/19/3 28/17/3 27/18/3
f 32/21/4 30/19/5 29/20/4
f 26/16/6 32/23/6 31/22/6
f 30/25/7 32/24/7 26/16/7
f 27/18/8 25/15/8 31/26/8
f 27/18/1 28/17/1 25/15/1
f 29/20/3 30/19/3 27/18/3
f 31/27/4 32/21/4 29/20/4
f 25/15/6 26/16/6 31/22/6
f 28/17/7 30/25/7 26/16/7
f 29/28/8 27/18/8 31/26/8

v 0.57499998807907 0 0.32499998807907
v 0.57499998807907 1.70000004768372 0.32499998807907
v 0.625 0 0.32499998807907
v 0.625 1.70000004768372 0.32499998807907
v 0.625 0 0.27500000596046
v 0.625 1.70000004768372 0.27500000596046
v 0.57499998807907 0 0.27500000596046
v 0.57499998807907 1.70000004768372 0.27500000596046
# 8 vertices

# 0 normal

# 0 texture coordinate

o Cube.1
usemtl metal
f 36/17/1 34/16/1 33/15/1
f 38/19/3 36/17/3 35/18/3
f 40/21/4 38/19/5 37/20/4
f 34/16/6 40/23/6 39/22/6
f 38/25/7 40/24/7 34/16/7
f 35/18/8 33/15/8 39/26/8
f 35/18/1 36/17/1 33/15/1
f 37/20/3 38/19/3 35/18/3
f 39/27/4 40/21/4 37/20/4
f 33/15/6 34/16/6 39/22/6
f 36/17/7 38/25/7 34/16/7
f 37/28/8 35/18/8 39/26/8

v -0.625 0 0.32499998807907
v -0.625 1.70000004768372 0.32499998807907
v -0.57499998807907 0 0.32499998807907
v -0.57499998807907 1.70000004768372 0.32499998807907
v -0.57499998807907 0 0.27500000596046
v -0.57499998807907 1.70000004768372 0.27500000596046
v -0.625 0 0.27500000596046
v -0.625 1.70000004768372 0.27500000596046
# 8 vertices

# 0 normal

# 0 texture coordinate

o Cube
usemtl metal
f 44/17/1 42/16/1 41/15/1
f 46/19/3 44/17/3 43/18/3
f 48/21/4 46/19/5 45/20/4
f 42/16/6 48/23/6 47/22/6
f 46/25/7 48/24/7 42/16/7
f 43/18/8 41/15/8 47/26/8
f 43/18/1 44/17/1 41/15/1
f 45/20/3 46/19/3 43/18/3
f 47/27/4 48/21/4 45/20/4
f 41/15/6 42/16/6 47/22/6
f 44/17/7 46/25/7 42/16/7
f 45/28/8 43/18/8 47/26/8

v -0.60000002384186 1.38999998569489 0.30000001192093
v -0.60000002384186 1.4099999666214 0.30000001192093
v 0.60000002384186 1.38999998569489 0.30000001192093
v 0.60000002384186 1.4099999666214 0.30000001192093
v 0.60000002384186 1.38999998569489 -0.30000001192093
v 0.60000002384186 1.4099999666214 -0.30000001192093
v -0.60000002384186 1.38999998569489 -0.30000001192093
v -0.60000002384186 1.4099999666214 -0.30000001192093
# 8 vertices

# 0 normal

# 0 texture coordinate

o Cube.6
usemtl metal
f 52/3/1 50/2/1 49/1/1
f 54/6/3 52/3/3 51/5/3
f 56/8/4 54/6/5 53/7/4
f 50/2/6 56/10/6 55/9/6
f 54/12/7 56/4/7 50/11/7
f 51/12/8 49/4/8 55/11/8
f 51/5/1 52/3/1 49/1/1
f 53/7/3 54/6/3 51/5/3
f 55/13/4 56/8/4 53/7/4
f 49/1/6 50/2/6 55/9/6
f 52/14/7 54/12/7 50/11/7
f 53/14/8 51/12/8 55/11/8

