# Blender v2.79 (sub 0) OBJ File: 'Maze.blend'
# www.blender.org
mtllib maze.mtl
o ElevatorLeftDoor
v -4.250000 2.000000 1.000000
v -4.250000 0.000000 1.000000
v -4.350000 2.000000 1.000000
v -4.350000 0.000000 1.000000
v -4.256960 0.000000 0.000000
v -4.250000 0.000000 0.006960
v -4.250000 2.000000 0.006960
v -4.256960 2.000000 0.000000
v -4.343040 2.000000 0.000000
v -4.350000 2.000000 0.006960
v -4.350000 0.000000 0.006960
v -4.343040 0.000000 0.000000
vt 0.041564 0.054946
vt 0.487036 0.819306
vt 0.487036 0.054946
vt 0.888531 0.055059
vt 0.849916 0.819419
vt 0.849916 0.055059
vt 0.495143 0.054953
vt 0.503189 0.817836
vt 0.495143 0.817836
vt 0.038742 0.055059
vt 0.054400 0.819306
vt 0.038742 0.819419
vt 0.041653 0.817836
vt 0.496289 0.054953
vt 0.496289 0.817836
vt 0.041564 0.819306
vt 0.888531 0.819419
vt 0.503189 0.054953
vt 0.054400 0.054946
vt 0.041653 0.054953
vn -1.0000 0.0000 0.0000
vn 0.0000 0.0000 -1.0000
vn 0.7071 0.0000 -0.7071
vn -0.7071 0.0000 -0.7071
vn 1.0000 0.0000 0.0000
usemtl Doors
s off
f 4/1/1 10/2/1 11/3/1
f 12/4/2 8/5/2 5/6/2
f 6/7/3 8/8/3 7/9/3
f 12/10/4 10/11/4 9/12/4
f 1/13/5 6/14/5 7/15/5
f 4/1/1 3/16/1 10/2/1
f 12/4/2 9/17/2 8/5/2
f 6/7/3 5/18/3 8/8/3
f 12/10/4 11/19/4 10/11/4
f 1/13/5 2/20/5 6/14/5
