# Blender v2.79 (sub 0) OBJ File: 'ElevatorDoors.blend'
# www.blender.org
mtllib elevator_doors.mtl
o ElevatorRightDoor
v -4.250000 2.000000 -1.000000
v -4.250000 0.000000 -1.000000
v -4.350000 2.000000 -1.000000
v -4.350000 0.000000 -1.000000
v -4.256960 2.000000 0.000000
v -4.250000 2.000000 -0.006960
v -4.250000 0.000000 -0.006960
v -4.256960 0.000000 0.000000
v -4.350000 2.000000 -0.006960
v -4.343040 2.000000 0.000000
v -4.343040 0.000000 0.000000
v -4.350000 0.000000 -0.006960
vt 0.963481 0.054953
vt 0.510728 0.817836
vt 0.510728 0.054953
vt 0.904882 0.819306
vt 0.866266 0.054946
vt 0.904882 0.054946
vt 0.520665 0.819419
vt 0.966138 0.055059
vt 0.966138 0.819419
vt 0.503192 0.054952
vt 0.511745 0.817835
vt 0.503191 0.817835
vt 0.945600 0.055059
vt 0.961258 0.819306
vt 0.945600 0.819419
vt 0.963481 0.817836
vt 0.866266 0.819306
vt 0.520665 0.055059
vt 0.511745 0.054953
vt 0.961258 0.054946
vn 1.0000 0.0000 0.0000
vn 0.0000 0.0000 1.0000
vn -1.0000 -0.0000 0.0000
vn 0.7071 0.0000 0.7071
vn -0.7071 0.0000 0.7071
usemtl Doors
s off
f 2/1/1 6/2/1 7/3/1
f 5/4/2 11/5/2 8/6/2
f 3/7/3 12/8/3 9/9/3
f 8/10/4 6/11/4 5/12/4
f 12/13/5 10/14/5 9/15/5
f 2/1/1 1/16/1 6/2/1
f 5/4/2 10/17/2 11/5/2
f 3/7/3 4/18/3 12/8/3
f 8/10/4 7/19/4 6/11/4
f 12/13/5 11/20/5 10/14/5
o ElevatorLeftDoor
v -4.250000 2.000000 1.000000
v -4.250000 0.000000 1.000000
v -4.350000 2.000000 1.000000
v -4.350000 0.000000 1.000000
v -4.256960 0.000000 0.000000
v -4.250000 0.000000 0.006960
v -4.250000 2.000000 0.006960
v -4.256960 2.000000 0.000000
v -4.343040 2.000000 0.000000
v -4.350000 2.000000 0.006960
v -4.350000 0.000000 0.006960
v -4.343040 0.000000 0.000000
vt 0.041564 0.054946
vt 0.487036 0.819306
vt 0.487036 0.054946
vt 0.888531 0.055059
vt 0.849916 0.819419
vt 0.849916 0.055059
vt 0.495143 0.054953
vt 0.503189 0.817836
vt 0.495143 0.817836
vt 0.038742 0.055059
vt 0.054400 0.819306
vt 0.038742 0.819419
vt 0.041653 0.817836
vt 0.496289 0.054953
vt 0.496289 0.817836
vt 0.041564 0.819306
vt 0.888531 0.819419
vt 0.503189 0.054953
vt 0.054400 0.054946
vt 0.041653 0.054953
vn -1.0000 0.0000 0.0000
vn 0.0000 0.0000 -1.0000
vn 0.7071 0.0000 -0.7071
vn -0.7071 0.0000 -0.7071
vn 1.0000 0.0000 0.0000
usemtl Doors
s off
f 16/21/6 22/22/6 23/23/6
f 24/24/7 20/25/7 17/26/7
f 18/27/8 20/28/8 19/29/8
f 24/30/9 22/31/9 21/32/9
f 13/33/10 18/34/10 19/35/10
f 16/21/6 15/36/6 22/22/6
f 24/24/7 21/37/7 20/25/7
f 18/27/8 17/38/8 20/28/8
f 24/30/9 23/39/9 22/31/9
f 13/33/10 14/40/10 18/34/10
