# Blender v2.79 (sub 0) OBJ File: 'wallSwitch.blend'
# www.blender.org
mtllib material.mtl
o wallSwitchCover
v -0.040021 1.000531 0.025693
v -0.040021 1.000000 0.023023
v -0.100000 1.000000 -0.050000
v -0.100000 1.200000 -0.050000
v -0.040021 1.200000 -0.050000
v -0.040021 1.000000 -0.050000
v 0.100000 1.000000 -0.050000
v 0.100000 1.200000 -0.050000
v -0.093023 1.006977 0.030000
v -0.100000 1.000000 0.023023
v -0.095693 1.004307 0.029469
v -0.097956 1.002044 0.027956
v -0.099469 1.000531 0.025693
v -0.093023 1.193023 0.030000
v -0.100000 1.200000 0.023023
v -0.095693 1.195693 0.029469
v -0.097956 1.197956 0.027956
v -0.099469 1.199469 0.025693
v 0.093023 1.006977 0.030000
v 0.100000 1.000000 0.023023
v 0.095693 1.004307 0.029469
v 0.097956 1.002044 0.027956
v 0.099469 1.000531 0.025693
v 0.093023 1.193023 0.030000
v 0.100000 1.200000 0.023023
v 0.095693 1.195693 0.029469
v 0.097956 1.197956 0.027956
v 0.099469 1.199469 0.025693
v -0.040021 1.002044 0.027956
v -0.040021 1.004307 0.029469
v -0.040021 1.006977 0.030000
v -0.040021 1.200000 0.023023
v -0.040021 1.199469 0.025693
v -0.040021 1.197956 0.027956
v -0.040021 1.195693 0.029469
v -0.040021 1.193023 0.030000
v 0.040000 1.200000 0.023023
v 0.040000 1.006977 0.030000
v 0.040000 1.002044 0.027956
v 0.040000 1.200000 -0.050000
v 0.040000 1.000000 -0.050000
v 0.040000 1.004307 0.029469
v 0.040000 1.000531 0.025693
v 0.040000 1.000000 0.023023
v 0.040000 1.199469 0.025693
v 0.040000 1.197956 0.027956
v 0.040000 1.195693 0.029469
v 0.040000 1.193023 0.030000
v -0.099916 1.035000 -0.050000
v 0.100084 1.035000 -0.050000
v -0.092938 1.035000 0.030000
v -0.095608 1.035000 0.029469
v -0.097872 1.035000 0.027956
v -0.099384 1.035000 0.025693
v -0.099916 1.035000 0.023023
v 0.093107 1.035000 0.030000
v 0.095777 1.035000 0.029469
v 0.098041 1.035000 0.027956
v 0.099553 1.035000 0.025693
v 0.100084 1.035000 0.023023
v -0.039937 1.035000 -0.050000
v 0.040000 1.035000 -0.050000
v -0.092938 1.165000 0.030000
v 0.095777 1.165000 0.029469
v 0.098041 1.165000 0.027956
v 0.099553 1.165000 0.025693
v 0.100084 1.165000 0.023023
v -0.099916 1.165000 -0.050000
v 0.100084 1.165000 -0.050000
v -0.095608 1.165000 0.029469
v -0.097872 1.165000 0.027956
v -0.099384 1.165000 0.025693
v -0.099916 1.165000 0.023023
v 0.093107 1.165000 0.030000
v -0.039937 1.165000 -0.050000
v 0.040000 1.165000 -0.050000
v -0.039937 1.158500 -0.010000
v -0.039937 1.041500 -0.010000
v 0.040000 1.158500 -0.010000
v 0.040000 1.041500 -0.010000
v -0.045645 1.036363 0.030000
v -0.039937 1.041500 0.024292
v -0.043460 1.038329 0.029565
v -0.041609 1.039995 0.028328
v -0.040371 1.041109 0.026476
v -0.039937 1.158500 0.024292
v -0.045645 1.163637 0.030000
v -0.040371 1.158891 0.026476
v -0.041609 1.160005 0.028328
v -0.043460 1.161671 0.029565
v 0.045708 1.163637 0.030000
v 0.040000 1.158500 0.024292
v 0.043524 1.161671 0.029565
v 0.041672 1.160005 0.028328
v 0.040435 1.158891 0.026476
v 0.040000 1.041500 0.024292
v 0.045708 1.036363 0.030000
v 0.040434 1.041109 0.026476
v 0.041672 1.039995 0.028328
v 0.043524 1.038329 0.029565
vn -1.0000 0.0000 0.0000
vn 0.0000 0.0000 -1.0000
vn 0.0000 -1.0000 0.0000
vn 0.0000 1.0000 0.0000
vn -1.0000 -0.0024 0.0000
vn 1.0000 0.0024 0.0000
vn -0.1951 -0.0006 0.9808
vn -0.5556 -0.0015 0.8315
vn -0.8315 -0.0021 0.5556
vn -0.9808 -0.0024 0.1951
vn 0.1951 -0.0006 0.9808
vn 0.5556 -0.0015 0.8315
vn 0.8315 -0.0021 0.5556
vn 0.9808 -0.0024 0.1951
vn 0.0000 -0.9808 0.1951
vn 0.0000 -0.8315 0.5555
vn 0.0000 -0.5556 0.8315
vn 0.0000 -0.1951 0.9808
vn 0.0000 0.9808 0.1951
vn 0.0000 0.8315 0.5555
vn 0.0000 0.5556 0.8315
vn 0.0000 0.1951 0.9808
vn 0.0000 0.5555 0.8315
vn 0.0000 0.8314 0.5556
vn 0.0000 -0.8315 0.5556
vn 0.0000 0.0000 1.0000
vn 0.0000 0.8315 0.5556
vn 0.0000 -0.5555 0.8315
vn 0.0000 -0.8314 0.5556
vn 0.9808 0.0000 0.1951
vn 0.8315 0.0000 0.5556
vn 0.5556 0.0000 0.8315
vn 0.1951 0.0000 0.9808
vn -0.9809 0.0024 0.1946
vn -0.8321 0.0020 0.5546
vn -0.5566 0.0014 0.8308
vn -0.1956 0.0005 0.9807
vn 1.0000 -0.0024 0.0000
vn -1.0000 0.0024 0.0000
vn 0.1946 0.0005 0.9809
vn 0.5546 0.0014 0.8321
vn 0.8308 0.0020 0.5565
vn 0.9807 0.0024 0.1955
vn -0.9808 0.0000 0.1951
vn -0.8315 0.0000 0.5556
vn -0.5556 0.0000 0.8315
vn -0.1951 0.0000 0.9808
vn 1.0000 0.0000 0.0000
vn 0.0000 0.9844 0.1762
vn 0.0000 0.8570 0.5153
vn 0.0000 0.5961 0.8029
vn 0.0000 0.2158 0.9764
vn 0.0000 -0.2158 0.9764
vn 0.0000 -0.5961 0.8029
vn 0.0000 -0.8570 0.5153
vn 0.0000 -0.9844 0.1762
vn -0.1956 -0.0005 0.9807
vn -0.5566 -0.0014 0.8308
vn -0.8321 -0.0020 0.5546
vn -0.9809 -0.0024 0.1946
vn 0.1946 -0.0005 0.9809
vn 0.5546 -0.0014 0.8321
vn 0.8308 -0.0020 0.5565
vn 0.9807 -0.0024 0.1955
vn 0.0000 0.9808 0.1952
vn 0.0000 0.5556 0.8314
vn 0.0000 -0.5556 0.8314
vn -0.9808 0.0024 0.1951
vn -0.8315 0.0021 0.5556
vn -0.5556 0.0015 0.8315
vn -0.1951 0.0006 0.9808
vn 0.1951 0.0006 0.9808
vn 0.5556 0.0015 0.8315
vn 0.8315 0.0021 0.5556
vn 0.9808 0.0024 0.1951
vn 0.0000 0.9843 0.1763
vn 0.0000 0.8570 0.5154
vn 0.0000 -0.5960 0.8029
vn 0.0000 -0.8570 0.5154
vn 0.0000 -0.9843 0.1762
usemtl Material
s off
f 92/1/1 80/1/1 96/1/1
f 76/1/2 8/1/2 69/1/2
f 6/1/3 10/1/3 3/1/3
f 4/1/4 32/1/4 5/1/4
f 15/1/5 68/1/5 73/1/5
f 8/1/6 67/1/6 69/1/6
f 14/1/7 70/1/7 63/1/7
f 16/1/8 71/1/8 70/1/8
f 17/1/9 72/1/9 71/1/9
f 18/1/10 73/1/10 72/1/10
f 19/1/11 57/1/11 56/1/11
f 21/1/12 58/1/12 57/1/12
f 22/1/13 59/1/13 58/1/13
f 23/1/14 60/1/14 59/1/14
f 44/1/15 23/1/15 43/1/15
f 43/1/16 22/1/16 39/1/16
f 39/1/17 21/1/17 42/1/17
f 42/1/18 19/1/18 38/1/18
f 32/1/19 18/1/19 33/1/19
f 33/1/20 17/1/20 34/1/20
f 34/1/21 16/1/21 35/1/21
f 35/1/22 14/1/22 36/1/22
f 7/1/3 44/1/3 41/1/3
f 35/1/22 48/1/22 47/1/22
f 34/1/23 47/1/23 46/1/23
f 33/1/24 46/1/24 45/1/24
f 32/1/19 45/1/19 37/1/19
f 30/1/18 9/1/18 11/1/18
f 29/1/17 11/1/17 12/1/17
f 1/1/25 12/1/25 13/1/25
f 2/1/15 13/1/15 10/1/15
f 5/1/4 37/1/4 40/1/4
f 68/1/2 5/1/2 75/1/2
f 86/1/3 79/1/3 92/1/3
f 74/1/26 97/1/26 56/1/26
f 40/1/4 25/1/4 8/1/4
f 37/1/19 28/1/19 25/1/19
f 45/1/27 27/1/27 28/1/27
f 46/1/23 26/1/23 27/1/23
f 47/1/22 24/1/22 26/1/22
f 41/1/3 2/1/3 6/1/3
f 42/1/18 31/1/18 30/1/18
f 39/1/28 30/1/28 29/1/28
f 43/1/29 29/1/29 1/1/29
f 44/1/15 1/1/15 2/1/15
f 75/1/2 40/1/2 76/1/2
f 61/1/2 41/1/2 6/1/2
f 81/1/26 63/1/26 51/1/26
f 49/1/2 6/1/2 3/1/2
f 59/1/30 67/1/30 66/1/30
f 58/1/31 66/1/31 65/1/31
f 57/1/32 65/1/32 64/1/32
f 56/1/33 64/1/33 74/1/33
f 13/1/34 55/1/34 10/1/34
f 12/1/35 54/1/35 13/1/35
f 11/1/36 53/1/36 12/1/36
f 9/1/37 52/1/37 11/1/37
f 50/1/38 20/1/38 7/1/38
f 55/1/39 3/1/39 10/1/39
f 62/1/2 7/1/2 41/1/2
f 96/1/4 78/1/4 82/1/4
f 24/1/40 64/1/40 26/1/40
f 26/1/41 65/1/41 27/1/41
f 27/1/42 66/1/42 28/1/42
f 28/1/43 67/1/43 25/1/43
f 75/1/2 62/1/2 61/1/2
f 19/1/26 97/1/26 38/1/26
f 68/1/2 61/1/2 49/1/2
f 72/1/44 55/1/44 54/1/44
f 71/1/45 54/1/45 53/1/45
f 70/1/46 53/1/46 52/1/46
f 63/1/47 52/1/47 51/1/47
f 69/1/48 60/1/48 50/1/48
f 73/1/1 49/1/1 55/1/1
f 76/1/2 50/1/2 62/1/2
f 48/1/26 87/1/26 91/1/26
f 82/1/48 77/1/48 86/1/48
f 79/1/26 78/1/26 80/1/26
f 38/1/26 81/1/26 31/1/26
f 87/1/26 14/1/26 63/1/26
f 24/1/26 91/1/26 74/1/26
f 81/1/33 90/1/33 87/1/33
f 90/1/32 84/1/32 89/1/32
f 84/1/31 88/1/31 89/1/31
f 85/1/30 86/1/30 88/1/30
f 96/1/44 95/1/44 92/1/44
f 98/1/45 94/1/45 95/1/45
f 99/1/46 93/1/46 94/1/46
f 100/1/47 91/1/47 93/1/47
f 82/1/49 98/1/49 96/1/49
f 85/1/50 99/1/50 98/1/50
f 84/1/51 100/1/51 99/1/51
f 100/1/52 81/1/52 97/1/52
f 87/1/53 93/1/53 91/1/53
f 90/1/54 94/1/54 93/1/54
f 89/1/55 95/1/55 94/1/55
f 88/1/56 92/1/56 95/1/56
f 81/1/26 9/1/26 31/1/26
f 92/1/1 79/1/1 80/1/1
f 76/1/2 40/1/2 8/1/2
f 6/1/3 2/1/3 10/1/3
f 4/1/4 15/1/4 32/1/4
f 15/1/5 4/1/5 68/1/5
f 8/1/6 25/1/6 67/1/6
f 14/1/57 16/1/57 70/1/57
f 16/1/58 17/1/58 71/1/58
f 17/1/59 18/1/59 72/1/59
f 18/1/60 15/1/60 73/1/60
f 19/1/61 21/1/61 57/1/61
f 21/1/62 22/1/62 58/1/62
f 22/1/63 23/1/63 59/1/63
f 23/1/64 20/1/64 60/1/64
f 44/1/15 20/1/15 23/1/15
f 43/1/25 23/1/25 22/1/25
f 39/1/28 22/1/28 21/1/28
f 42/1/18 21/1/18 19/1/18
f 32/1/65 15/1/65 18/1/65
f 33/1/27 18/1/27 17/1/27
f 34/1/21 17/1/21 16/1/21
f 35/1/22 16/1/22 14/1/22
f 7/1/3 20/1/3 44/1/3
f 35/1/22 36/1/22 48/1/22
f 34/1/66 35/1/66 47/1/66
f 33/1/20 34/1/20 46/1/20
f 32/1/19 33/1/19 45/1/19
f 30/1/18 31/1/18 9/1/18
f 29/1/17 30/1/17 11/1/17
f 1/1/16 29/1/16 12/1/16
f 2/1/15 1/1/15 13/1/15
f 5/1/4 32/1/4 37/1/4
f 68/1/2 4/1/2 5/1/2
f 86/1/3 77/1/3 79/1/3
f 74/1/26 91/1/26 97/1/26
f 40/1/4 37/1/4 25/1/4
f 37/1/19 45/1/19 28/1/19
f 45/1/20 46/1/20 27/1/20
f 46/1/66 47/1/66 26/1/66
f 47/1/22 48/1/22 24/1/22
f 41/1/3 44/1/3 2/1/3
f 42/1/18 38/1/18 31/1/18
f 39/1/67 42/1/67 30/1/67
f 43/1/16 39/1/16 29/1/16
f 44/1/15 43/1/15 1/1/15
f 75/1/2 5/1/2 40/1/2
f 61/1/2 62/1/2 41/1/2
f 81/1/26 87/1/26 63/1/26
f 49/1/2 61/1/2 6/1/2
f 59/1/30 60/1/30 67/1/30
f 58/1/31 59/1/31 66/1/31
f 57/1/32 58/1/32 65/1/32
f 56/1/33 57/1/33 64/1/33
f 13/1/68 54/1/68 55/1/68
f 12/1/69 53/1/69 54/1/69
f 11/1/70 52/1/70 53/1/70
f 9/1/71 51/1/71 52/1/71
f 50/1/38 60/1/38 20/1/38
f 55/1/39 49/1/39 3/1/39
f 62/1/2 50/1/2 7/1/2
f 96/1/4 80/1/4 78/1/4
f 24/1/72 74/1/72 64/1/72
f 26/1/73 64/1/73 65/1/73
f 27/1/74 65/1/74 66/1/74
f 28/1/75 66/1/75 67/1/75
f 75/1/2 76/1/2 62/1/2
f 19/1/26 56/1/26 97/1/26
f 68/1/2 75/1/2 61/1/2
f 72/1/44 73/1/44 55/1/44
f 71/1/45 72/1/45 54/1/45
f 70/1/46 71/1/46 53/1/46
f 63/1/47 70/1/47 52/1/47
f 69/1/48 67/1/48 60/1/48
f 73/1/1 68/1/1 49/1/1
f 76/1/2 69/1/2 50/1/2
f 48/1/26 36/1/26 87/1/26
f 82/1/48 78/1/48 77/1/48
f 79/1/26 77/1/26 78/1/26
f 38/1/26 97/1/26 81/1/26
f 87/1/26 36/1/26 14/1/26
f 24/1/26 48/1/26 91/1/26
f 81/1/33 83/1/33 90/1/33
f 90/1/32 83/1/32 84/1/32
f 84/1/31 85/1/31 88/1/31
f 85/1/30 82/1/30 86/1/30
f 96/1/44 98/1/44 95/1/44
f 98/1/45 99/1/45 94/1/45
f 99/1/46 100/1/46 93/1/46
f 100/1/47 97/1/47 91/1/47
f 82/1/76 85/1/76 98/1/76
f 85/1/77 84/1/77 99/1/77
f 84/1/51 83/1/51 100/1/51
f 100/1/52 83/1/52 81/1/52
f 87/1/53 90/1/53 93/1/53
f 90/1/78 89/1/78 94/1/78
f 89/1/79 88/1/79 95/1/79
f 88/1/80 86/1/80 92/1/80
f 81/1/26 51/1/26 9/1/26
vt 0 0
