# Blender v2.79 (sub 0) OBJ File: 'wallSwitch.blend'
# www.blender.org
mtllib material.mtl
o wallSwitchCover
v -0.040021 -0.099469 0.025693
v -0.040021 -0.100000 0.023023
v -0.100000 -0.100000 -0.050000
v -0.100000 0.100000 -0.050000
v -0.040021 0.100000 -0.050000
v -0.040021 -0.100000 -0.050000
v 0.100000 -0.100000 -0.050000
v 0.100000 0.100000 -0.050000
v -0.093023 -0.093023 0.030000
v -0.100000 -0.100000 0.023023
v -0.095693 -0.095693 0.029469
v -0.097956 -0.097956 0.027956
v -0.099469 -0.099469 0.025693
v -0.093023 0.093023 0.030000
v -0.100000 0.100000 0.023023
v -0.095693 0.095693 0.029469
v -0.097956 0.097956 0.027956
v -0.099469 0.099469 0.025693
v 0.093023 -0.093023 0.030000
v 0.100000 -0.100000 0.023023
v 0.095693 -0.095693 0.029469
v 0.097956 -0.097956 0.027956
v 0.099469 -0.099469 0.025693
v 0.093023 0.093023 0.030000
v 0.100000 0.100000 0.023023
v 0.095693 0.095693 0.029469
v 0.097956 0.097956 0.027956
v 0.099469 0.099469 0.025693
v -0.040021 -0.097956 0.027956
v -0.040021 -0.095693 0.029469
v -0.040021 -0.093023 0.030000
v -0.040021 0.100000 0.023023
v -0.040021 0.099469 0.025693
v -0.040021 0.097956 0.027956
v -0.040021 0.095693 0.029469
v -0.040021 0.093023 0.030000
v 0.040000 0.100000 0.023023
v 0.040000 -0.093023 0.030000
v 0.040000 -0.097956 0.027956
v 0.040000 0.100000 -0.050000
v 0.040000 -0.100000 -0.050000
v 0.040000 -0.095693 0.029469
v 0.040000 -0.099469 0.025693
v 0.040000 -0.100000 0.023023
v 0.040000 0.099469 0.025693
v 0.040000 0.097956 0.027956
v 0.040000 0.095693 0.029469
v 0.040000 0.093023 0.030000
v -0.099916 -0.065000 -0.050000
v 0.100084 -0.065000 -0.050000
v -0.092938 -0.065000 0.030000
v -0.095608 -0.065000 0.029469
v -0.097872 -0.065000 0.027956
v -0.099384 -0.065000 0.025693
v -0.099916 -0.065000 0.023023
v 0.093107 -0.065000 0.030000
v 0.095777 -0.065000 0.029469
v 0.098041 -0.065000 0.027956
v 0.099553 -0.065000 0.025693
v 0.100084 -0.065000 0.023023
v -0.039937 -0.065000 -0.050000
v 0.040000 -0.065000 -0.050000
v -0.092938 0.065000 0.030000
v 0.095777 0.065000 0.029469
v 0.098041 0.065000 0.027956
v 0.099553 0.065000 0.025693
v 0.100084 0.065000 0.023023
v -0.099916 0.065000 -0.050000
v 0.100084 0.065000 -0.050000
v -0.095608 0.065000 0.029469
v -0.097872 0.065000 0.027956
v -0.099384 0.065000 0.025693
v -0.099916 0.065000 0.023023
v 0.093107 0.065000 0.030000
v -0.039937 0.065000 -0.050000
v 0.040000 0.065000 -0.050000
v -0.039937 0.058500 0.001000
v -0.039937 -0.058500 0.001000
v 0.040000 0.058500 0.001000
v 0.040000 -0.058500 0.001000
v -0.045645 -0.063637 0.030000
v -0.039937 -0.058500 0.024292
v -0.043460 -0.061671 0.029565
v -0.041609 -0.060005 0.028328
v -0.040371 -0.058891 0.026476
v -0.039937 0.058500 0.024292
v -0.045645 0.063637 0.030000
v -0.040371 0.058891 0.026476
v -0.041609 0.060005 0.028328
v -0.043460 0.061671 0.029565
v 0.045708 0.063637 0.030000
v 0.040000 0.058500 0.024292
v 0.043524 0.061671 0.029565
v 0.041672 0.060005 0.028328
v 0.040435 0.058891 0.026476
v 0.040000 -0.058500 0.024292
v 0.045708 -0.063637 0.030000
v 0.040434 -0.058891 0.026476
v 0.041672 -0.060005 0.028328
v 0.043524 -0.061671 0.029565
vn -0.6976 -0.7030 0.1384
vn -0.5773 0.5773 0.5773
vn -0.6976 0.7030 0.1384
vn 0.0000 0.0000 -1.0000
vn 0.5766 0.5780 -0.5775
vn 0.7074 0.0008 -0.7068
vn 0.0000 -0.7071 -0.7071
vn -0.7020 -0.7004 0.1290
vn -0.5781 -0.5767 -0.5772
vn -0.5781 0.5767 -0.5772
vn 0.0000 0.9952 0.0980
vn 0.0000 0.7071 -0.7071
vn -0.7020 0.7004 0.1290
vn -0.7068 -0.0008 -0.7074
vn -0.9952 -0.0012 0.0980
vn 0.9952 0.0012 0.0980
vn -0.0740 0.0735 0.9945
vn -0.3825 -0.0005 0.9239
vn -0.0979 -0.0001 0.9952
vn -0.2491 0.2479 0.9362
vn -0.7070 -0.0009 0.7071
vn -0.4529 0.4513 0.7689
vn -0.9239 -0.0011 0.3827
vn -0.6318 0.6302 0.4513
vn 0.0735 -0.0739 0.9945
vn 0.3828 -0.0005 0.9238
vn 0.0981 -0.0001 0.9951
vn 0.2477 -0.2490 0.9362
vn 0.7071 -0.0009 0.7070
vn 0.4512 -0.4528 0.7689
vn 0.9239 -0.0011 0.3826
vn 0.6302 -0.6317 0.4514
vn 0.9952 -0.0012 0.0980
vn 0.0000 -0.9952 0.0980
vn 0.0000 -0.9239 0.3827
vn 0.0000 -0.7071 0.7071
vn 0.0000 -0.3827 0.9239
vn 0.0000 -0.0980 0.9952
vn 0.0000 0.9239 0.3827
vn 0.0000 0.7071 0.7071
vn 0.0000 0.3827 0.9239
vn 0.0000 0.0980 0.9952
vn 0.5766 -0.5780 -0.5775
vn -0.0740 -0.0735 0.9945
vn -0.2491 -0.2479 0.9362
vn -0.4529 -0.4513 0.7689
vn -0.6318 -0.6302 0.4513
vn 0.6976 -0.7030 0.1384
vn -0.5773 -0.5773 0.5773
vn 0.0981 0.0001 0.9951
vn -0.0263 0.0256 0.9993
vn 0.7004 0.7020 0.1290
vn 0.6302 0.6317 0.4514
vn 0.4512 0.4528 0.7689
vn 0.2477 0.2490 0.9362
vn 0.0735 0.0739 0.9945
vn 0.0263 0.0256 0.9993
vn -0.0979 0.0001 0.9952
vn -0.7068 0.0008 -0.7074
vn 0.9239 0.0011 0.3826
vn 0.7071 0.0009 0.7070
vn 0.3828 0.0005 0.9238
vn -0.9952 0.0012 0.0980
vn -0.9239 0.0011 0.3827
vn -0.7070 0.0009 0.7072
vn -0.3825 0.0005 0.9239
vn 0.7074 -0.0008 -0.7068
vn 0.7004 -0.7020 0.1290
vn 0.5773 0.5773 0.5773
vn 0.6976 0.7030 0.1384
vn 0.0263 -0.0256 0.9993
vn -0.0263 -0.0256 0.9993
vn 0.5773 -0.5773 0.5773
vn 0.1554 -0.1644 0.9741
vn 0.1554 0.1644 0.9741
vn 0.3730 -0.3939 0.8401
vn 0.3730 0.3939 0.8401
vn 0.5925 -0.6092 0.5270
vn 0.5925 0.6092 0.5270
vn -0.5925 -0.6092 0.5270
vn -0.5925 0.6092 0.5270
vn -0.3730 -0.3939 0.8401
vn -0.1554 0.1644 0.9741
vn -0.1554 -0.1644 0.9741
vn -0.3730 0.3939 0.8401
usemtl Material
s 1
vt 0 0
f 92/1/1 80/1/2 96/1/3
f 76/1/4 8/1/5 69/1/6
f 6/1/7 10/1/8 3/1/9
f 4/1/10 32/1/11 5/1/12
f 15/1/13 68/1/14 73/1/15
f 8/1/5 67/1/16 69/1/6
f 14/1/17 70/1/18 63/1/19
f 16/1/20 71/1/21 70/1/18
f 17/1/22 72/1/23 71/1/21
f 18/1/24 73/1/15 72/1/23
f 19/1/25 57/1/26 56/1/27
f 21/1/28 58/1/29 57/1/26
f 22/1/30 59/1/31 58/1/29
f 23/1/32 60/1/33 59/1/31
f 44/1/34 23/1/32 43/1/35
f 43/1/35 22/1/30 39/1/36
f 39/1/36 21/1/28 42/1/37
f 42/1/37 19/1/25 38/1/38
f 32/1/11 18/1/24 33/1/39
f 33/1/39 17/1/22 34/1/40
f 34/1/40 16/1/20 35/1/41
f 35/1/41 14/1/17 36/1/42
f 7/1/43 44/1/34 41/1/7
f 35/1/41 48/1/42 47/1/41
f 34/1/40 47/1/41 46/1/40
f 33/1/39 46/1/40 45/1/39
f 32/1/11 45/1/39 37/1/11
f 30/1/37 9/1/44 11/1/45
f 29/1/36 11/1/45 12/1/46
f 1/1/35 12/1/46 13/1/47
f 2/1/34 13/1/47 10/1/8
f 5/1/12 37/1/11 40/1/12
f 68/1/14 5/1/12 75/1/4
f 86/1/48 79/1/49 92/1/1
f 74/1/50 97/1/51 56/1/27
f 40/1/12 25/1/52 8/1/5
f 37/1/11 28/1/53 25/1/52
f 45/1/39 27/1/54 28/1/53
f 46/1/40 26/1/55 27/1/54
f 47/1/41 24/1/56 26/1/55
f 41/1/7 2/1/34 6/1/7
f 42/1/37 31/1/38 30/1/37
f 39/1/36 30/1/37 29/1/36
f 43/1/35 29/1/36 1/1/35
f 44/1/34 1/1/35 2/1/34
f 75/1/4 40/1/12 76/1/4
f 61/1/4 41/1/7 6/1/7
f 81/1/57 63/1/19 51/1/58
f 49/1/59 6/1/7 3/1/9
f 59/1/31 67/1/16 66/1/60
f 58/1/29 66/1/60 65/1/61
f 57/1/26 65/1/61 64/1/62
f 56/1/27 64/1/62 74/1/50
f 13/1/47 55/1/63 10/1/8
f 12/1/46 54/1/64 13/1/47
f 11/1/45 53/1/65 12/1/46
f 9/1/44 52/1/66 11/1/45
f 50/1/67 20/1/68 7/1/43
f 55/1/63 3/1/9 10/1/8
f 62/1/4 7/1/43 41/1/7
f 96/1/3 78/1/69 82/1/70
f 24/1/56 64/1/62 26/1/55
f 26/1/55 65/1/61 27/1/54
f 27/1/54 66/1/60 28/1/53
f 28/1/53 67/1/16 25/1/52
f 75/1/4 62/1/4 61/1/4
f 19/1/25 97/1/51 38/1/38
f 68/1/14 61/1/4 49/1/59
f 72/1/23 55/1/63 54/1/64
f 71/1/21 54/1/64 53/1/65
f 70/1/18 53/1/65 52/1/66
f 63/1/19 52/1/66 51/1/58
f 69/1/6 60/1/33 50/1/67
f 73/1/15 49/1/59 55/1/63
f 76/1/4 50/1/67 62/1/4
f 48/1/42 87/1/71 91/1/72
f 82/1/70 77/1/73 86/1/48
f 79/1/49 78/1/69 80/1/2
f 38/1/38 81/1/57 31/1/38
f 87/1/71 14/1/17 63/1/19
f 24/1/56 91/1/72 74/1/50
f 81/1/57 90/1/74 87/1/71
f 83/1/75 89/1/76 90/1/74
f 84/1/77 88/1/78 89/1/76
f 85/1/79 86/1/48 88/1/78
f 96/1/3 95/1/80 92/1/1
f 98/1/81 94/1/82 95/1/80
f 94/1/82 100/1/83 93/1/84
f 100/1/83 91/1/72 93/1/84
f 82/1/70 98/1/81 96/1/3
f 85/1/79 99/1/85 98/1/81
f 84/1/77 100/1/83 99/1/85
f 83/1/75 97/1/51 100/1/83
f 87/1/71 93/1/84 91/1/72
f 90/1/74 94/1/82 93/1/84
f 89/1/76 95/1/80 94/1/82
f 88/1/78 92/1/1 95/1/80
f 81/1/57 9/1/44 31/1/38
f 92/1/1 79/1/49 80/1/2
f 76/1/4 40/1/12 8/1/5
f 6/1/7 2/1/34 10/1/8
f 4/1/10 15/1/13 32/1/11
f 15/1/13 4/1/10 68/1/14
f 8/1/5 25/1/52 67/1/16
f 14/1/17 16/1/20 70/1/18
f 16/1/20 17/1/22 71/1/21
f 17/1/22 18/1/24 72/1/23
f 18/1/24 15/1/13 73/1/15
f 19/1/25 21/1/28 57/1/26
f 21/1/28 22/1/30 58/1/29
f 22/1/30 23/1/32 59/1/31
f 23/1/32 20/1/68 60/1/33
f 44/1/34 20/1/68 23/1/32
f 43/1/35 23/1/32 22/1/30
f 39/1/36 22/1/30 21/1/28
f 42/1/37 21/1/28 19/1/25
f 32/1/11 15/1/13 18/1/24
f 33/1/39 18/1/24 17/1/22
f 34/1/40 17/1/22 16/1/20
f 35/1/41 16/1/20 14/1/17
f 7/1/43 20/1/68 44/1/34
f 35/1/41 36/1/42 48/1/42
f 34/1/40 35/1/41 47/1/41
f 33/1/39 34/1/40 46/1/40
f 32/1/11 33/1/39 45/1/39
f 30/1/37 31/1/38 9/1/44
f 29/1/36 30/1/37 11/1/45
f 1/1/35 29/1/36 12/1/46
f 2/1/34 1/1/35 13/1/47
f 5/1/12 32/1/11 37/1/11
f 68/1/14 4/1/10 5/1/12
f 86/1/48 77/1/73 79/1/49
f 74/1/50 91/1/72 97/1/51
f 40/1/12 37/1/11 25/1/52
f 37/1/11 45/1/39 28/1/53
f 45/1/39 46/1/40 27/1/54
f 46/1/40 47/1/41 26/1/55
f 47/1/41 48/1/42 24/1/56
f 41/1/7 44/1/34 2/1/34
f 42/1/37 38/1/38 31/1/38
f 39/1/36 42/1/37 30/1/37
f 43/1/35 39/1/36 29/1/36
f 44/1/34 43/1/35 1/1/35
f 75/1/4 5/1/12 40/1/12
f 61/1/4 62/1/4 41/1/7
f 81/1/57 87/1/71 63/1/19
f 49/1/59 61/1/4 6/1/7
f 59/1/31 60/1/33 67/1/16
f 58/1/29 59/1/31 66/1/60
f 57/1/26 58/1/29 65/1/61
f 56/1/27 57/1/26 64/1/62
f 13/1/47 54/1/64 55/1/63
f 12/1/46 53/1/65 54/1/64
f 11/1/45 52/1/66 53/1/65
f 9/1/44 51/1/58 52/1/66
f 50/1/67 60/1/33 20/1/68
f 55/1/63 49/1/59 3/1/9
f 62/1/4 50/1/67 7/1/43
f 96/1/3 80/1/2 78/1/69
f 24/1/56 74/1/50 64/1/62
f 26/1/55 64/1/62 65/1/61
f 27/1/54 65/1/61 66/1/60
f 28/1/53 66/1/60 67/1/16
f 75/1/4 76/1/4 62/1/4
f 19/1/25 56/1/27 97/1/51
f 68/1/14 75/1/4 61/1/4
f 72/1/23 73/1/15 55/1/63
f 71/1/21 72/1/23 54/1/64
f 70/1/18 71/1/21 53/1/65
f 63/1/19 70/1/18 52/1/66
f 69/1/6 67/1/16 60/1/33
f 73/1/15 68/1/14 49/1/59
f 76/1/4 69/1/6 50/1/67
f 48/1/42 36/1/42 87/1/71
f 82/1/70 78/1/69 77/1/73
f 79/1/49 77/1/73 78/1/69
f 38/1/38 97/1/51 81/1/57
f 87/1/71 36/1/42 14/1/17
f 24/1/56 48/1/42 91/1/72
f 81/1/57 83/1/75 90/1/74
f 83/1/75 84/1/77 89/1/76
f 84/1/77 85/1/79 88/1/78
f 85/1/79 82/1/70 86/1/48
f 96/1/3 98/1/81 95/1/80
f 98/1/81 99/1/85 94/1/82
f 94/1/82 99/1/85 100/1/83
f 100/1/83 97/1/51 91/1/72
f 82/1/70 85/1/79 98/1/81
f 85/1/79 84/1/77 99/1/85
f 84/1/77 83/1/75 100/1/83
f 83/1/75 81/1/57 97/1/51
f 87/1/71 90/1/74 93/1/84
f 90/1/74 89/1/76 94/1/82
f 89/1/76 88/1/78 95/1/80
f 88/1/78 86/1/48 92/1/1
f 81/1/57 51/1/58 9/1/44
