# Blender v2.79 (sub 0) OBJ File: 'ButtonPanel.blend'
# www.blender.org
mtllib button_panel.mtl
o ButtonPanel
v -0.100000 -0.175000 0.000000
v -0.100000 0.175000 0.000000
v 0.100000 -0.175000 0.000000
v 0.100000 0.175000 0.000000
v -0.100000 0.105000 0.000000
v -0.100000 0.035000 0.000000
v -0.100000 -0.035000 0.000000
v -0.100000 -0.105000 0.000000
v 0.100000 0.105000 0.000000
v 0.100000 0.035000 0.000000
v 0.100000 -0.035000 0.000000
v 0.100000 -0.105000 0.000000
v 0.034833 -0.175000 0.000000
v -0.034833 -0.175000 0.000000
v -0.034833 0.175000 0.000000
v 0.034833 0.175000 0.000000
v 0.033454 -0.105000 0.018621
v 0.036213 -0.106379 0.020000
v 0.034833 -0.103621 0.018621
v -0.033454 -0.105000 0.018621
v -0.034833 -0.103621 0.018621
v -0.036213 -0.106379 0.020000
v 0.033454 -0.035000 0.018621
v 0.034833 -0.036379 0.018621
v 0.036213 -0.033621 0.020000
v -0.033454 -0.035000 0.018621
v -0.036213 -0.033621 0.020000
v -0.034833 -0.036379 0.018621
v 0.033454 0.035000 0.018621
v 0.036213 0.033621 0.020000
v 0.034833 0.036379 0.018621
v -0.033454 0.035000 0.018621
v -0.034833 0.036379 0.018621
v -0.036213 0.033621 0.020000
v 0.033454 0.105000 0.018621
v 0.034833 0.103621 0.018621
v 0.036213 0.106379 0.020000
v -0.033454 0.105000 0.018621
v -0.036213 0.106379 0.020000
v -0.034833 0.103621 0.018621
v 0.033454 0.035000 0.011379
v 0.034833 0.036379 0.011379
v 0.033454 0.036379 0.010000
v -0.033454 0.035000 0.011379
v -0.033454 0.036379 0.010000
v -0.034833 0.036379 0.011379
v 0.033454 0.105000 0.011379
v 0.033454 0.103621 0.010000
v 0.034833 0.103621 0.011379
v -0.033454 0.105000 0.011379
v -0.034833 0.103621 0.011379
v -0.033454 0.103621 0.010000
v 0.033454 -0.105000 0.011379
v 0.034833 -0.103621 0.011379
v 0.033454 -0.103621 0.010000
v -0.033454 -0.105000 0.011379
v -0.033454 -0.103621 0.010000
v -0.034833 -0.103621 0.011379
v 0.033454 -0.035000 0.011379
v 0.033454 -0.036379 0.010000
v 0.034833 -0.036379 0.011379
v -0.033454 -0.035000 0.011379
v -0.034833 -0.036379 0.011379
v -0.033454 -0.036379 0.010000
v -0.092326 -0.167327 0.020000
v -0.100000 -0.175000 0.012326
v -0.097752 -0.172753 0.017752
v -0.092326 0.167326 0.020000
v -0.100000 0.175000 0.012326
v -0.097752 0.172752 0.017752
v 0.092326 -0.167327 0.020000
v 0.100000 -0.175000 0.012326
v 0.097752 -0.172753 0.017752
v 0.092326 0.167326 0.020000
v 0.100000 0.175000 0.012326
v 0.097752 0.172752 0.017752
v -0.100000 0.105000 0.012326
v -0.092326 0.105166 0.020000
v -0.097752 0.105048 0.017752
v -0.100000 0.035000 0.012326
v -0.092326 0.034834 0.020000
v -0.097752 0.034951 0.017752
v -0.100000 -0.035000 0.012326
v -0.092326 -0.034834 0.020000
v -0.097752 -0.034952 0.017752
v -0.092326 -0.105166 0.020000
v -0.100000 -0.105000 0.012326
v -0.097752 -0.105049 0.017752
v 0.100000 -0.105000 0.012326
v 0.092326 -0.105166 0.020000
v 0.097752 -0.105049 0.017752
v 0.100000 -0.035000 0.012326
v 0.092326 -0.034834 0.020000
v 0.097752 -0.034951 0.017752
v 0.100000 0.035000 0.012326
v 0.092326 0.034834 0.020000
v 0.097752 0.034951 0.017752
v 0.092326 0.105166 0.020000
v 0.100000 0.105000 0.012326
v 0.097752 0.105048 0.017752
v -0.034833 -0.175000 0.012326
v -0.034988 -0.167327 0.020000
v -0.034879 -0.172753 0.017752
v 0.034988 -0.167327 0.020000
v 0.034833 -0.175000 0.012326
v 0.034879 -0.172753 0.017752
v 0.034833 0.175000 0.012326
v 0.034988 0.167326 0.020000
v 0.034879 0.172752 0.017752
v -0.034988 0.167326 0.020000
v -0.034833 0.175000 0.012326
v -0.034879 0.172752 0.017752
vt 0.167122 0.778149
vt 0.076700 0.918639
vt 0.056540 0.780940
vt 0.397549 0.081366
vt 0.307127 0.221854
vt 0.303215 0.061663
vt 0.174219 0.773208
vt 0.288330 0.758455
vt 0.299571 0.773528
vt 0.432211 0.033395
vt 0.304700 0.032016
vt 0.306983 0.000004
vt 0.078029 0.081543
vt 0.167599 0.221386
vt 0.058051 0.218624
vt 0.042038 0.966610
vt 0.169551 0.967987
vt 0.167268 1.000000
vt 0.166005 0.410571
vt 0.049162 0.595676
vt 0.049712 0.406000
vt 0.417708 0.219063
vt 0.309844 0.411480
vt 0.306650 0.778613
vt 0.396221 0.918455
vt 0.302848 0.937726
vt 0.169811 0.032969
vt 0.167100 0.000000
vt 0.424536 0.594000
vt 0.308243 0.589430
vt 0.425085 0.404325
vt 0.300030 0.226794
vt 0.185920 0.241546
vt 0.174679 0.226472
vt 0.171036 0.938340
vt 0.173401 0.405529
vt 0.290676 0.390803
vt 0.302407 0.406235
vt 0.302994 0.769056
vt 0.292644 0.614587
vt 0.304298 0.599163
vt 0.168333 0.598443
vt 0.182047 0.753495
vt 0.170826 0.768682
vt 0.300848 0.594471
vt 0.183573 0.609197
vt 0.171841 0.593765
vt 0.438811 0.784939
vt 0.474017 0.596674
vt 0.463904 0.790357
vt 0.000000 0.598036
vt 0.025746 0.404496
vt 0.025341 0.596973
vt 0.169950 0.400837
vt 0.183502 0.245000
vt 0.181605 0.385413
vt 0.307152 1.000000
vt 0.411819 0.939947
vt 0.428360 0.962870
vt 0.000230 0.403325
vt 0.035438 0.215059
vt 0.305916 0.401557
vt 0.292203 0.246507
vt 0.303423 0.231321
vt 0.289364 0.615608
vt 0.185276 0.752434
vt 0.184361 0.613578
vt 0.440282 0.215604
vt 0.464415 0.210905
vt 0.010345 0.209640
vt 0.062432 0.060050
vt 0.171402 0.062274
vt 0.288974 0.247568
vt 0.184884 0.384392
vt 0.186677 0.245836
vt 0.304440 0.967031
vt 0.009833 0.789099
vt 0.033966 0.784400
vt 0.164404 0.588519
vt 0.060986 0.940283
vt 0.448907 0.403028
vt 0.474247 0.401965
vt 0.171256 0.230944
vt 0.289998 0.611292
vt 0.181127 0.612782
vt 0.287572 0.754164
vt 0.290747 0.755000
vt 0.184672 0.756678
vt 0.289578 0.243325
vt 0.289888 0.386423
vt 0.293122 0.387218
vt 0.184251 0.388709
vt 0.405548 0.070338
vt 0.303776 0.047317
vt 0.068702 0.929666
vt 0.170475 0.952686
vt 0.070089 0.070591
vt 0.047082 0.217133
vt 0.404162 0.929407
vt 0.427167 0.782865
vt 0.416198 0.781375
vt 0.045595 0.782407
vt 0.037286 0.596396
vt 0.037765 0.405168
vt 0.413264 0.059722
vt 0.428654 0.217597
vt 0.436962 0.403605
vt 0.448502 0.595503
vt 0.436483 0.594831
vt 0.170780 0.048088
vt 0.303471 0.951912
vt 0.045891 0.037127
vn 0.0000 0.0000 1.0000
vn 0.0000 -1.0000 0.0000
vn 0.0000 1.0000 0.0000
vn -1.0000 0.0000 0.0000
vn 1.0000 0.0000 0.0000
vn -0.3015 0.3015 0.9045
vn 0.3015 0.3015 0.9045
vn -0.3015 -0.3015 0.9045
vn 0.3015 -0.3015 0.9045
vn -0.5773 0.5774 0.5774
vn 0.5774 0.5774 0.5773
vn -0.5773 -0.5773 0.5774
vn 0.5773 -0.5773 0.5774
vn 0.5773 0.5774 0.5774
vn -0.5773 -0.5774 0.5773
vn 0.5773 -0.5774 0.5773
vn 0.0000 0.7071 0.7071
vn 0.0000 -0.7071 0.7071
vn 0.7071 0.0000 0.7071
vn -0.7071 0.0000 0.7071
vn -0.7071 -0.7071 0.0000
vn -0.7071 0.7071 0.0000
vn 0.7071 -0.7071 0.0000
vn 0.7071 0.7071 0.0000
vn 0.0000 -0.9239 0.3827
vn 0.0000 -0.3827 0.9239
vn 0.0000 0.9239 0.3827
vn 0.0000 0.3827 0.9239
vn -0.9239 0.0000 0.3827
vn -0.3827 0.0000 0.9239
vn 0.9239 0.0000 0.3827
vn 0.3827 0.0000 0.9239
usemtl Metal1
s off
f 39/1/1 68/2/1 78/3/1
f 71/4/1 18/5/1 104/6/1
f 38/7/2 47/8/2 35/9/2
f 3/10/2 105/11/2 13/12/2
f 65/13/1 22/14/1 86/15/1
f 2/16/3 111/17/3 15/18/3
f 27/19/1 81/20/1 84/21/1
f 22/14/1 84/21/1 86/15/1
f 90/22/1 25/23/1 18/5/1
f 37/24/1 74/25/1 108/26/1
f 13/12/2 101/27/2 14/28/2
f 96/29/1 37/24/1 30/30/1
f 93/31/1 30/30/1 25/23/1
f 17/32/3 56/33/3 20/34/3
f 37/24/1 110/35/1 39/1/1
f 26/36/2 59/37/2 23/38/2
f 36/39/4 42/40/4 31/41/4
f 33/42/5 51/43/5 40/44/5
f 29/45/3 44/46/3 32/47/3
f 99/48/5 10/49/5 9/50/5
f 6/51/4 83/52/4 80/53/4
f 28/54/5 58/55/5 63/56/5
f 16/57/3 75/58/3 4/59/3
f 7/60/4 87/61/4 83/52/4
f 24/62/4 54/63/4 19/64/4
f 43/65/1 52/66/1 45/67/1
f 89/68/5 3/10/5 12/69/5
f 8/70/4 66/71/4 87/61/4
f 104/6/1 22/14/1 102/72/1
f 75/58/5 9/50/5 4/59/5
f 55/73/1 64/74/1 57/75/1
f 15/18/3 107/76/3 16/57/3
f 5/77/4 80/53/4 77/78/4
f 34/79/1 78/3/1 81/20/1
f 25/23/1 34/79/1 27/19/1
f 2/16/4 77/78/4 69/80/4
f 10/49/5 92/81/5 11/82/5
f 17/32/6 18/5/6 19/64/6
f 20/34/7 21/83/7 22/14/7
f 23/38/8 24/62/8 25/23/8
f 26/36/9 27/19/9 28/54/9
f 29/45/6 30/30/6 31/41/6
f 32/47/7 33/42/7 34/79/7
f 35/9/8 36/39/8 37/24/8
f 38/7/9 39/1/9 40/44/9
f 41/84/10 42/40/10 43/65/10
f 44/46/11 45/67/11 46/85/11
f 47/8/12 48/86/12 49/87/12
f 50/88/13 51/43/13 52/66/13
f 53/89/10 54/63/10 55/73/10
f 56/33/14 57/75/14 58/55/14
f 59/37/15 60/90/15 61/91/15
f 62/92/16 63/56/16 64/74/16
f 20/34/17 18/5/17 17/32/17
f 27/19/18 23/38/18 25/23/18
f 32/47/17 30/30/17 29/45/17
f 39/1/18 35/9/18 37/24/18
f 40/44/19 34/79/19 33/42/19
f 30/30/20 36/39/20 31/41/20
f 28/54/19 22/14/19 21/83/19
f 25/23/20 19/64/20 18/5/20
f 45/67/17 41/84/17 43/65/17
f 50/88/18 48/86/18 47/8/18
f 52/66/19 46/85/19 45/67/19
f 49/87/20 43/65/20 42/40/20
f 47/8/21 36/39/21 35/9/21
f 29/45/22 42/40/22 41/84/22
f 51/43/23 38/7/23 40/44/23
f 33/42/24 44/46/24 46/85/24
f 57/75/17 53/89/17 55/73/17
f 62/92/18 60/90/18 59/37/18
f 64/74/19 58/55/19 57/75/19
f 61/91/20 55/73/20 54/63/20
f 23/38/21 61/91/21 24/62/21
f 17/32/22 54/63/22 53/89/22
f 28/54/23 62/92/23 26/36/23
f 21/83/24 56/33/24 58/55/24
f 11/82/5 89/68/5 12/69/5
f 105/11/25 73/93/25 106/94/25
f 106/94/26 71/4/26 104/6/26
f 111/17/27 70/95/27 112/96/27
f 112/96/28 68/2/28 110/35/28
f 87/61/29 67/97/29 88/98/29
f 88/98/30 65/13/30 86/15/30
f 99/48/31 76/99/31 100/100/31
f 100/100/32 74/25/32 98/101/32
f 77/78/29 70/95/29 69/80/29
f 79/102/30 68/2/30 70/95/30
f 80/53/29 79/102/29 77/78/29
f 82/103/30 78/3/30 79/102/30
f 83/52/29 82/103/29 80/53/29
f 85/104/30 81/20/30 82/103/30
f 87/61/29 85/104/29 83/52/29
f 85/104/30 86/15/30 84/21/30
f 89/68/31 73/93/31 72/105/31
f 91/106/32 71/4/32 73/93/32
f 92/81/31 91/106/31 89/68/31
f 94/107/32 90/22/32 91/106/32
f 95/108/31 94/107/31 92/81/31
f 97/109/32 93/31/32 94/107/32
f 99/48/31 97/109/31 95/108/31
f 100/100/32 96/29/32 97/109/32
f 101/27/25 67/97/25 66/71/25
f 103/110/26 65/13/26 67/97/26
f 105/11/25 103/110/25 101/27/25
f 106/94/26 102/72/26 103/110/26
f 107/76/27 76/99/27 75/58/27
f 109/111/28 74/25/28 76/99/28
f 111/17/27 109/111/27 107/76/27
f 112/96/28 108/26/28 109/111/28
f 14/28/2 66/71/2 1/112/2
f 39/1/1 110/35/1 68/2/1
f 71/4/1 90/22/1 18/5/1
f 38/7/2 50/88/2 47/8/2
f 3/10/2 72/105/2 105/11/2
f 65/13/1 102/72/1 22/14/1
f 2/16/3 69/80/3 111/17/3
f 27/19/1 34/79/1 81/20/1
f 22/14/1 27/19/1 84/21/1
f 90/22/1 93/31/1 25/23/1
f 37/24/1 98/101/1 74/25/1
f 13/12/2 105/11/2 101/27/2
f 96/29/1 98/101/1 37/24/1
f 93/31/1 96/29/1 30/30/1
f 17/32/3 53/89/3 56/33/3
f 37/24/1 108/26/1 110/35/1
f 26/36/2 62/92/2 59/37/2
f 36/39/4 49/87/4 42/40/4
f 33/42/5 46/85/5 51/43/5
f 29/45/3 41/84/3 44/46/3
f 99/48/5 95/108/5 10/49/5
f 6/51/4 7/60/4 83/52/4
f 28/54/5 21/83/5 58/55/5
f 16/57/3 107/76/3 75/58/3
f 7/60/4 8/70/4 87/61/4
f 24/62/4 61/91/4 54/63/4
f 43/65/1 48/86/1 52/66/1
f 89/68/5 72/105/5 3/10/5
f 8/70/4 1/112/4 66/71/4
f 104/6/1 18/5/1 22/14/1
f 75/58/5 99/48/5 9/50/5
f 55/73/1 60/90/1 64/74/1
f 15/18/3 111/17/3 107/76/3
f 5/77/4 6/51/4 80/53/4
f 34/79/1 39/1/1 78/3/1
f 25/23/1 30/30/1 34/79/1
f 2/16/4 5/77/4 77/78/4
f 10/49/5 95/108/5 92/81/5
f 20/34/17 22/14/17 18/5/17
f 27/19/18 26/36/18 23/38/18
f 32/47/17 34/79/17 30/30/17
f 39/1/18 38/7/18 35/9/18
f 40/44/19 39/1/19 34/79/19
f 30/30/20 37/24/20 36/39/20
f 28/54/19 27/19/19 22/14/19
f 25/23/20 24/62/20 19/64/20
f 45/67/17 44/46/17 41/84/17
f 50/88/18 52/66/18 48/86/18
f 52/66/19 51/43/19 46/85/19
f 49/87/20 48/86/20 43/65/20
f 47/8/21 49/87/21 36/39/21
f 29/45/22 31/41/22 42/40/22
f 51/43/23 50/88/23 38/7/23
f 33/42/24 32/47/24 44/46/24
f 57/75/17 56/33/17 53/89/17
f 62/92/18 64/74/18 60/90/18
f 64/74/19 63/56/19 58/55/19
f 61/91/20 60/90/20 55/73/20
f 23/38/21 59/37/21 61/91/21
f 17/32/22 19/64/22 54/63/22
f 28/54/23 63/56/23 62/92/23
f 21/83/24 20/34/24 56/33/24
f 11/82/5 92/81/5 89/68/5
f 105/11/25 72/105/25 73/93/25
f 106/94/26 73/93/26 71/4/26
f 111/17/27 69/80/27 70/95/27
f 112/96/28 70/95/28 68/2/28
f 87/61/29 66/71/29 67/97/29
f 88/98/30 67/97/30 65/13/30
f 99/48/31 75/58/31 76/99/31
f 100/100/32 76/99/32 74/25/32
f 77/78/29 79/102/29 70/95/29
f 79/102/30 78/3/30 68/2/30
f 80/53/29 82/103/29 79/102/29
f 82/103/30 81/20/30 78/3/30
f 83/52/29 85/104/29 82/103/29
f 85/104/30 84/21/30 81/20/30
f 87/61/29 88/98/29 85/104/29
f 85/104/30 88/98/30 86/15/30
f 89/68/31 91/106/31 73/93/31
f 91/106/32 90/22/32 71/4/32
f 92/81/31 94/107/31 91/106/31
f 94/107/32 93/31/32 90/22/32
f 95/108/31 97/109/31 94/107/31
f 97/109/32 96/29/32 93/31/32
f 99/48/31 100/100/31 97/109/31
f 100/100/32 98/101/32 96/29/32
f 101/27/25 103/110/25 67/97/25
f 103/110/26 102/72/26 65/13/26
f 105/11/25 106/94/25 103/110/25
f 106/94/26 104/6/26 102/72/26
f 107/76/27 109/111/27 76/99/27
f 109/111/28 108/26/28 74/25/28
f 111/17/27 112/96/27 109/111/27
f 112/96/28 110/35/28 108/26/28
f 14/28/2 101/27/2 66/71/2
