# Blender v2.79 (sub 0) OBJ File: 'Door.blend'
# www.blender.org
mtllib door.mtl
o Door
v 0.075000 1.787294 -0.987295
v 0.062294 1.800000 -1.000001
v 0.062294 0.100000 -1.000001
v 0.075000 0.112706 -0.987295
v 0.075000 1.787294 -0.012707
v 0.062294 1.800000 0.000000
v 0.075000 0.112706 -0.012707
v 0.062294 0.100000 0.000000
v -0.075000 1.787294 -0.987295
v -0.062294 1.800000 -1.000001
v -0.075000 0.112706 -0.987295
v -0.062294 0.100000 -1.000001
v -0.075000 1.787294 -0.012707
v -0.062294 1.800000 0.000000
v -0.075000 0.112706 -0.012707
v -0.062294 0.100000 0.000000
v 0.000000 0.800000 -0.010000
v 0.000000 0.500000 -0.010000
v 0.000000 0.200000 -0.010000
v 0.000000 1.700000 -0.010000
v 0.014695 0.200000 -0.005225
v 0.014695 1.700000 -0.005225
v 0.023776 0.200000 0.007275
v 0.023776 1.700000 0.007275
v 0.023776 0.200000 0.022725
v 0.023776 1.700000 0.022725
v 0.014695 0.200000 0.035225
v 0.014695 1.700000 0.035225
v -0.000000 0.200000 0.040000
v -0.000000 1.700000 0.040000
v -0.014695 0.200000 0.035225
v -0.014695 1.700000 0.035225
v -0.023776 0.200000 0.022725
v -0.023776 1.700000 0.022725
v -0.023776 0.200000 0.007275
v -0.023776 1.700000 0.007275
v -0.014695 0.200000 -0.005225
v -0.014695 1.700000 -0.005225
v 0.000000 1.100000 -0.010000
v 0.000000 1.400000 -0.010000
v 0.014695 1.400000 -0.005225
v 0.014695 1.100000 -0.005225
v 0.014695 0.800000 -0.005225
v 0.014695 0.500000 -0.005225
v 0.023776 1.400000 0.007275
v 0.023776 1.100000 0.007275
v 0.023776 0.800000 0.007275
v 0.023776 0.500000 0.007275
v 0.023776 1.400000 0.022725
v 0.023776 1.100000 0.022725
v 0.023776 0.800000 0.022725
v 0.023776 0.500000 0.022725
v 0.014695 1.400000 0.035225
v 0.014695 1.100000 0.035225
v 0.014695 0.800000 0.035225
v 0.014695 0.500000 0.035225
v -0.000000 1.400000 0.040000
v -0.000000 1.100000 0.040000
v -0.000000 0.800000 0.040000
v -0.000000 0.500000 0.040000
v -0.014695 1.400000 0.035225
v -0.014695 1.100000 0.035225
v -0.014695 0.800000 0.035225
v -0.014695 0.500000 0.035225
v -0.023776 1.400000 0.022725
v -0.023776 1.100000 0.022725
v -0.023776 0.800000 0.022725
v -0.023776 0.500000 0.022725
v -0.023776 1.400000 0.007275
v -0.023776 1.100000 0.007275
v -0.023776 0.800000 0.007275
v -0.023776 0.500000 0.007275
v -0.014695 1.400000 -0.005225
v -0.014695 1.100000 -0.005225
v -0.014695 0.800000 -0.005225
v -0.014695 0.500000 -0.005225
v 0.000000 0.200000 0.015000
v 0.000000 0.500000 0.015000
v 0.000000 0.800000 0.015000
v 0.000000 1.100000 0.015000
v 0.000000 1.400000 0.015000
v 0.000000 1.700000 0.015000
v -0.050000 0.900000 -0.850001
v -0.050000 1.100000 -0.850001
v -0.050000 0.900000 -0.950001
v -0.050000 1.100000 -0.950001
v -0.050000 0.900000 -0.893334
v -0.050000 0.900000 -0.906668
v -0.050000 1.100000 -0.906668
v -0.050000 1.100000 -0.893334
v -0.050000 1.023333 -0.950001
v -0.050000 0.976667 -0.950001
v -0.050000 1.023333 -0.850001
v -0.050000 0.976667 -0.850001
v -0.050000 1.023333 -0.906668
v -0.050000 0.976667 -0.906668
v -0.050000 1.023333 -0.893334
v -0.050000 0.976667 -0.893334
v -0.080000 1.023333 -0.893334
v -0.080000 0.976667 -0.893334
v -0.080000 1.023333 -0.906668
v -0.080000 0.976667 -0.906668
v -0.100000 0.912410 -0.862410
v -0.087590 0.900000 -0.850001
v -0.096365 0.903635 -0.853635
v -0.100000 1.087590 -0.862410
v -0.087590 1.100000 -0.850001
v -0.096365 1.096365 -0.853635
v -0.100000 0.912410 -0.937591
v -0.087590 0.900000 -0.950001
v -0.096365 0.903635 -0.946366
v -0.100000 1.087590 -0.937591
v -0.087590 1.100000 -0.950001
v -0.096365 1.096365 -0.946366
v -0.087590 0.900000 -0.906668
v -0.100000 0.912410 -0.906668
v -0.096365 0.903635 -0.906668
v -0.100000 0.912410 -0.893334
v -0.087590 0.900000 -0.893334
v -0.096365 0.903635 -0.893334
v -0.087590 1.100000 -0.893334
v -0.100000 1.087590 -0.893334
v -0.096365 1.096365 -0.893334
v -0.100000 1.087590 -0.906668
v -0.087590 1.100000 -0.906668
v -0.096365 1.096365 -0.906668
v -0.087590 0.976667 -0.850001
v -0.100000 0.976667 -0.862410
v -0.096365 0.976667 -0.853635
v -0.100000 1.023333 -0.862410
v -0.087590 1.023333 -0.850001
v -0.096365 1.023333 -0.853635
v -0.087590 1.023333 -0.950001
v -0.100000 1.023333 -0.937591
v -0.096365 1.023333 -0.946366
v -0.100000 0.976667 -0.937591
v -0.087590 0.976667 -0.950001
v -0.096365 0.976667 -0.946366
v -0.100000 1.035743 -0.880925
v -0.087590 1.023333 -0.893334
v -0.096365 1.026968 -0.889700
v -0.087590 0.976667 -0.893334
v -0.100000 0.964257 -0.880925
v -0.096365 0.973032 -0.889699
v -0.087590 1.023333 -0.906668
v -0.100000 1.035743 -0.919077
v -0.096365 1.026968 -0.910302
v -0.100000 0.964257 -0.919077
v -0.087590 0.976667 -0.906668
v -0.096365 0.973032 -0.910302
vt -0.092388 0.394531
vt -0.040732 -0.105469
vt -0.040732 0.394531
vt 0.010924 0.894531
vt -0.040732 0.044532
vt 0.010924 0.044532
vt 0.897075 0.888178
vt 0.492998 0.050885
vt 0.897075 0.050885
vt 0.016192 0.044532
vt 0.067848 0.894531
vt 0.016192 0.894531
vt -0.092388 0.894531
vt -0.040732 0.394531
vt -0.040732 0.894531
vt 0.487730 0.894531
vt 0.482461 0.050885
vt 0.487730 0.044532
vt 0.073116 0.044532
vt 0.078384 0.050885
vt -0.097656 -0.099115
vt -0.092388 -0.105469
vt 0.073116 0.888178
vt 0.067848 0.044532
vt 0.073116 0.050885
vt 0.010924 0.050885
vt -0.097656 0.400885
vt -0.092388 0.394531
vt 0.902344 0.894531
vt 0.902344 0.044532
vt 0.487730 0.044532
vt 0.482461 0.888178
vt 0.078384 0.888178
vt -0.040732 0.894531
vt 0.492998 0.888178
vt -0.097656 0.388178
vt 0.010924 0.888178
vt -0.097656 0.888178
vt 0.351118 0.609523
vt 0.363446 0.634502
vt 0.331172 0.649986
vt 0.498477 0.000000
vt 0.519461 0.600000
vt 0.498477 0.600000
vt 0.242660 0.985461
vt 0.261752 0.385461
vt 0.261752 0.985461
vt 0.115248 0.400000
vt 0.135812 1.000000
vt 0.115248 1.000000
vt 0.298898 0.665469
vt 0.298898 0.634576
vt 0.316689 0.600000
vt 0.299713 0.000000
vt 0.316689 0.000000
vt 0.351103 0.890394
vt 0.331163 0.899943
vt 0.331163 0.849943
vt 0.464524 0.000000
vt 0.481501 0.600000
vt 0.464524 0.600000
vt 0.299713 0.600000
vt 0.278729 0.000000
vt 0.426564 0.000000
vt 0.443540 0.600000
vt 0.426564 0.600000
vt 0.311222 0.809492
vt 0.331163 0.799943
vt 0.278729 0.600000
vt 0.261752 0.000000
vt 0.363427 0.865394
vt 0.519461 0.000000
vt 0.536438 0.600000
vt 0.631031 0.000000
vt 0.650123 0.600000
vt 0.631031 0.600000
vt 0.481501 0.000000
vt 0.481501 0.600000
vt 0.298898 0.834492
vt 0.650123 0.000000
vt 0.670687 0.600000
vt 0.363427 0.834492
vt 0.591375 0.000000
vt 0.611939 0.600000
vt 0.591375 0.600000
vt 0.371626 0.000000
vt 0.388603 0.600000
vt 0.371626 0.600000
vt 0.443540 0.000000
vt 0.298898 0.865394
vt 0.388603 0.000000
vt 0.409587 0.600000
vt 0.311225 0.709495
vt 0.331172 0.699971
vt 0.331172 0.749957
vt 0.710344 0.600000
vt 0.689780 0.000000
vt 0.710344 0.000000
vt 0.409587 0.000000
vt 0.426564 0.600000
vt 0.730908 0.600000
vt 0.710344 0.000000
vt 0.730908 0.000000
vt 0.351103 0.809492
vt 0.222096 0.385461
vt 0.222096 0.985461
vt 0.351118 0.709541
vt 0.363446 0.734548
vt 0.311222 0.890394
vt 0.750000 0.600000
vt 0.750000 0.000000
vt 0.096156 0.400000
vt 0.096156 1.000000
vt 0.333666 0.600000
vt 0.316689 0.000000
vt 0.333666 0.000000
vt 0.311225 0.790374
vt 0.298898 0.765366
vt 0.574398 0.000000
vt 0.591375 0.600000
vt 0.574398 0.600000
vt 0.363446 0.765441
vt 0.351118 0.790420
vt 0.354650 0.600000
vt 0.354650 0.000000
vt 0.298898 0.734474
vt 0.553414 0.000000
vt 0.553414 0.600000
vt 0.371626 0.600000
vt 0.371626 0.000000
vt 0.536438 0.000000
vt 0.536438 0.600000
vt 0.331172 0.799943
vt 0.670687 0.600000
vt 0.670687 0.000000
vt 0.631031 0.000000
vt 0.631031 0.600000
vt 0.311225 0.690448
vt 0.331172 0.699971
vt 0.331172 0.600000
vt 0.351118 0.690402
vt 0.311225 0.609569
vt 0.363446 0.665395
vt 0.135812 0.850912
vt 0.135812 0.820010
vt 0.168077 0.835461
vt 0.200342 0.820010
vt 0.200342 0.850912
vt 0.148136 0.795010
vt 0.188018 0.875912
vt 0.168077 0.785461
vt 0.168077 0.885461
vt 0.148136 0.875912
vt 0.188018 0.795010
vt 0.502005 0.609549
vt 0.521946 0.600000
vt 0.521946 0.650000
vt 0.554211 0.665451
vt 0.541887 0.690451
vt 0.489681 0.634549
vt 0.554211 0.634549
vt 0.489681 0.665451
vt 0.541887 0.609549
vt 0.502005 0.690451
vt 0.521946 0.700000
vt 0.521946 0.800000
vt 0.502005 0.790451
vt 0.521946 0.750000
vt 0.541887 0.790451
vt 0.489681 0.765451
vt 0.489681 0.734549
vt 0.502005 0.709549
vt 0.521946 0.700000
vt 0.541887 0.709549
vt 0.554211 0.734549
vt 0.554211 0.765451
vt 0.224690 0.121245
vt 0.189728 0.017550
vt 0.207837 0.017550
vt 0.172874 0.264216
vt 0.147730 0.367911
vt 0.147730 0.239397
vt 0.076960 0.000000
vt 0.135812 0.153333
vt 0.076960 0.153333
vt 0.489681 0.686667
vt 0.438671 0.600000
vt 0.489681 0.600000
vt 0.135812 0.632128
vt 0.186535 0.785461
vt 0.135812 0.785461
vt 0.172874 0.121245
vt 0.147730 0.017550
vt 0.050722 0.800000
vt 0.000000 0.646667
vt 0.050722 0.646667
vt 0.135812 0.538795
vt 0.186535 0.632128
vt 0.489681 0.800001
vt 0.438671 0.713334
vt 0.489681 0.713334
vt 0.207837 0.367911
vt 0.224690 0.264216
vt 0.000000 0.000000
vt 0.058852 0.153333
vt 0.000000 0.153333
vt 0.058852 0.000000
vt 0.135812 0.385461
vt 0.186535 0.538795
vt 0.438671 0.686667
vt 0.375553 0.686667
vt 0.426563 0.713334
vt 0.375553 0.713334
vt 0.083814 0.541809
vt 0.073514 0.515142
vt 0.083814 0.515142
vt 0.426563 0.800001
vt 0.375553 0.800001
vt 0.147730 0.146064
vt 0.058852 0.246667
vt 0.076960 0.400000
vt 0.058852 0.400000
vt 0.076960 0.246667
vt 0.000000 0.246667
vt 0.000000 0.400000
vt 0.249835 0.367911
vt 0.249835 0.239397
vt 0.249835 0.146064
vt 0.135812 0.400000
vt 0.135812 0.246667
vt 0.375553 0.600000
vt 0.426563 0.686667
vt 0.085914 0.407269
vt 0.096156 0.500603
vt 0.085914 0.500602
vt 0.050722 0.553333
vt 0.050722 0.400000
vt 0.000000 0.553333
vt 0.203469 0.493333
vt 0.221578 0.586667
vt 0.203469 0.586667
vt 0.083814 0.583014
vt 0.073514 0.556348
vt 0.083814 0.556348
vt 0.209177 0.486064
vt 0.198935 0.392731
vt 0.209177 0.392731
vt 0.363446 0.792731
vt 0.363446 0.713334
vt 0.207837 0.000000
vt 0.249835 0.017550
vt 0.198935 0.392731
vt 0.198935 0.538795
vt 0.261752 0.239397
vt 0.426564 0.792731
vt 0.426564 0.713334
vt 0.189728 0.385461
vt 0.189728 0.367911
vt 0.063123 0.407270
vt 0.063123 0.553333
vt 0.135813 0.146064
vt 0.363446 0.607269
vt 0.189728 0.000000
vt 0.135812 0.000000
vt 0.363446 0.686667
vt 0.426564 0.607269
vt 0.207837 0.385461
vt 0.261752 0.385461
vt 0.426564 0.686667
vt 0.198935 0.778192
vt 0.261752 0.146064
vt 0.261752 0.000000
vt 0.198935 0.632128
vt 0.063123 0.792731
vt 0.135813 0.239397
vt 0.135812 0.385461
vt 0.063123 0.646667
vt 0.073514 0.400000
vt 0.212773 0.138795
vt 0.212773 0.246667
vt 0.184792 0.246667
vt 0.221578 0.385461
vt 0.095921 0.549078
vt 0.184792 0.138795
vt 0.095921 0.549078
vt 0.242660 0.385461
vt 0.135812 0.400000
vt 0.481501 0.000000
vt 0.261752 0.600000
vt 0.536438 0.000000
vt 0.670687 0.000000
vt 0.611939 0.000000
vt 0.689780 0.600000
vt 0.426563 0.000000
vt 0.710344 0.600000
vt 0.316689 0.600000
vt 0.591375 0.000000
vt 0.135812 0.000000
vt 0.000000 0.800000
vt 0.438671 0.800001
vt 0.186535 0.385461
vt 0.073514 0.541809
vt 0.426563 0.600000
vt 0.096156 0.407269
vt 0.221578 0.493333
vt 0.073514 0.583015
vt 0.198935 0.486064
vt 0.073514 0.507872
vt 0.221578 0.493333
vt 0.095921 0.507872
vt 0.095921 0.590284
vn 0.0000 -1.0000 0.0000
vn 0.0000 0.0000 1.0000
vn -1.0000 0.0000 0.0000
vn 0.0000 0.0000 -1.0000
vn 0.0000 1.0000 0.0000
vn 0.7071 0.0000 0.7071
vn 0.7071 0.7071 0.0000
vn 0.7071 -0.7071 0.0000
vn 0.7071 0.0000 -0.7071
vn -0.7071 0.0000 -0.7071
vn -0.7071 0.7071 0.0000
vn -0.7071 0.0000 0.7071
vn -0.7071 -0.7071 0.0000
vn 1.0000 0.0000 0.0000
vn 0.3090 0.0000 -0.9511
vn -0.3090 0.0000 0.9511
vn 0.8090 0.0000 -0.5878
vn -0.8090 0.0000 -0.5878
vn -0.8090 0.0000 0.5878
vn 0.8090 0.0000 0.5878
vn 0.3090 0.0000 0.9511
vn -0.3090 0.0000 -0.9511
vn -0.3827 -0.9239 0.0000
vn -0.9239 -0.3827 0.0000
vn -0.3827 -0.0000 0.9239
vn -0.9239 0.0000 0.3827
vn -0.3827 0.9239 0.0000
vn -0.9239 0.3827 0.0000
vn -0.3827 0.0000 -0.9239
vn -0.9239 0.0000 -0.3827
usemtl Metal2
s off
f 3/1/1 16/2/1 12/3/1
f 6/4/2 16/5/2 8/6/2
f 13/7/3 11/8/3 15/9/3
f 10/10/4 3/11/4 12/12/4
f 10/13/5 6/14/5 2/15/5
f 8/16/6 5/17/6 6/18/6
f 2/19/7 5/17/7 1/20/7
f 3/1/8 7/21/8 8/22/8
f 4/23/9 2/24/9 1/25/9
f 12/12/10 9/26/10 10/10/10
f 10/13/11 13/27/11 14/28/11
f 14/29/12 15/9/12 16/30/12
f 12/31/13 15/9/13 11/8/13
f 1/20/14 7/32/14 4/33/14
f 3/1/1 8/22/1 16/2/1
f 6/4/2 14/34/2 16/5/2
f 13/7/3 9/35/3 11/8/3
f 10/10/4 2/24/4 3/11/4
f 10/13/5 14/28/5 6/14/5
f 8/16/6 7/32/6 5/17/6
f 2/19/7 6/18/7 5/17/7
f 3/1/8 4/36/8 7/21/8
f 4/23/9 3/11/9 2/24/9
f 12/12/10 11/37/10 9/26/10
f 10/13/11 9/38/11 13/27/11
f 14/29/12 13/7/12 15/9/12
f 12/31/13 16/30/13 15/9/13
f 1/20/14 5/17/14 7/32/14
usemtl Metal1
f 17/39/1 43/40/1 79/41/1
f 68/42/3 35/43/3 33/44/3
f 40/45/15 22/46/15 41/47/15
f 58/48/16 63/49/16 59/50/16
f 63/51/1 67/52/1 79/41/1
f 22/53/17 45/54/17 41/55/17
f 64/56/5 60/57/5 78/58/5
f 70/59/18 75/60/18 71/61/18
f 24/62/14 49/63/14 45/54/14
f 62/64/19 67/65/19 63/66/19
f 44/67/5 18/68/5 78/58/5
f 26/69/20 53/70/20 49/63/20
f 68/71/5 64/56/5 78/58/5
f 72/72/18 37/73/18 35/43/18
f 28/74/21 57/75/21 53/76/21
f 64/77/19 33/44/19 31/78/19
f 48/79/5 44/67/5 78/58/5
f 30/80/16 61/81/16 57/75/16
f 72/82/5 68/71/5 78/58/5
f 74/83/22 17/84/22 75/85/22
f 32/86/19 65/87/19 61/88/19
f 66/89/3 71/61/3 67/65/3
f 52/90/5 48/79/5 78/58/5
f 34/91/3 69/92/3 65/87/3
f 29/93/1 31/94/1 77/95/1
f 76/96/22 19/97/22 37/98/22
f 36/99/18 73/100/18 69/92/18
f 60/101/16 31/102/16 29/103/16
f 76/104/5 72/82/5 78/58/5
f 38/105/22 40/45/22 73/106/22
f 33/107/1 35/108/1 77/95/1
f 56/109/5 52/90/5 78/58/5
f 56/110/21 29/103/21 27/111/21
f 18/68/5 76/104/5 78/58/5
f 54/112/21 59/50/21 55/113/21
f 60/57/5 56/109/5 78/58/5
f 52/114/20 27/115/20 25/116/20
f 23/117/1 25/118/1 77/95/1
f 50/119/20 55/120/20 51/121/20
f 37/122/1 19/123/1 77/95/1
f 48/124/14 25/116/14 23/125/14
f 27/126/1 29/93/1 77/95/1
f 46/127/14 51/121/14 47/128/14
f 31/94/1 33/107/1 77/95/1
f 44/129/17 23/125/17 21/130/17
f 35/108/1 37/122/1 77/95/1
f 42/131/17 47/128/17 43/132/17
f 21/133/1 23/117/1 77/95/1
f 19/97/15 44/134/15 21/135/15
f 19/123/1 21/133/1 77/95/1
f 17/84/15 42/136/15 43/137/15
f 25/118/1 27/126/1 77/95/1
f 59/138/1 63/51/1 79/41/1
f 55/139/1 59/138/1 79/41/1
f 75/140/1 17/39/1 79/41/1
f 51/141/1 55/139/1 79/41/1
f 71/142/1 75/140/1 79/41/1
f 47/143/1 51/141/1 79/41/1
f 67/52/1 71/142/1 79/41/1
f 43/40/1 47/143/1 79/41/1
f 50/144/5 46/145/5 80/146/5
f 70/147/5 66/148/5 80/146/5
f 46/145/5 42/149/5 80/146/5
f 66/148/5 62/150/5 80/146/5
f 42/149/5 39/151/5 80/146/5
f 62/150/5 58/152/5 80/146/5
f 58/152/5 54/153/5 80/146/5
f 39/151/5 74/154/5 80/146/5
f 54/153/5 50/144/5 80/146/5
f 74/154/5 70/147/5 80/146/5
f 73/155/1 40/156/1 81/157/1
f 49/158/1 53/159/1 81/157/1
f 69/160/1 73/155/1 81/157/1
f 45/161/1 49/158/1 81/157/1
f 65/162/1 69/160/1 81/157/1
f 41/163/1 45/161/1 81/157/1
f 61/164/1 65/162/1 81/157/1
f 40/156/1 41/163/1 81/157/1
f 57/165/1 61/164/1 81/157/1
f 53/159/1 57/165/1 81/157/1
f 20/166/5 38/167/5 82/168/5
f 22/169/5 20/166/5 82/168/5
f 38/167/5 36/170/5 82/168/5
f 34/171/5 32/172/5 82/168/5
f 30/173/5 28/174/5 82/168/5
f 26/175/5 24/176/5 82/168/5
f 36/170/5 34/171/5 82/168/5
f 32/172/5 30/173/5 82/168/5
f 28/174/5 26/175/5 82/168/5
f 24/176/5 22/169/5 82/168/5
f 143/177/3 116/178/3 118/179/3
f 146/180/3 112/181/3 134/182/3
f 90/183/14 93/184/14 97/185/14
f 90/186/5 107/187/5 84/188/5
f 94/189/2 104/190/2 83/191/2
f 148/192/3 109/193/3 116/178/3
f 113/194/4 91/195/4 133/196/4
f 93/197/2 127/198/2 94/189/2
f 86/199/5 125/200/5 89/201/5
f 122/202/3 146/180/3 139/203/3
f 86/204/14 95/205/14 91/206/14
f 89/207/14 97/185/14 95/205/14
f 84/208/2 131/209/2 93/197/2
f 89/201/5 121/210/5 90/186/5
f 115/211/1 87/212/1 119/213/1
f 142/214/5 102/215/5 149/216/5
f 119/213/1 83/217/1 104/218/1
f 146/180/3 136/219/3 148/192/3
f 96/220/14 87/221/14 88/222/14
f 95/205/14 98/223/14 96/220/14
f 92/224/14 88/222/14 85/225/14
f 91/206/14 96/220/14 92/224/14
f 106/226/3 139/203/3 130/227/3
f 128/228/3 139/203/3 143/177/3
f 98/223/14 83/229/14 87/221/14
f 97/185/14 94/230/14 98/223/14
f 110/231/1 88/232/1 115/211/1
f 140/233/4 100/234/4 142/235/4
f 137/236/4 85/225/4 110/237/4
f 133/196/4 92/238/4 137/236/4
f 99/239/3 102/240/3 100/241/3
f 145/242/1 99/243/1 140/244/1
f 149/245/2 101/246/2 145/247/2
f 119/213/23 105/248/23 120/249/23
f 120/250/24 103/251/24 118/179/24
f 131/209/25 108/252/25 132/253/25
f 132/254/26 106/226/26 130/227/26
f 125/200/27 114/255/27 126/256/27
f 126/257/28 112/181/28 124/258/28
f 137/236/29 111/259/29 138/260/29
f 138/261/30 109/193/30 136/219/30
f 115/211/23 111/262/23 110/231/23
f 117/263/24 109/193/24 111/264/24
f 119/213/23 117/265/23 115/211/23
f 120/250/24 116/178/24 117/263/24
f 121/210/27 108/266/27 107/187/27
f 123/267/28 106/226/28 108/268/28
f 125/200/27 123/269/27 121/210/27
f 126/257/28 122/202/28 123/267/28
f 127/198/25 105/270/25 104/190/25
f 129/271/26 103/251/26 105/272/26
f 131/209/25 129/273/25 127/198/25
f 132/254/26 128/228/26 129/271/26
f 133/196/29 114/274/29 113/194/29
f 135/275/30 112/181/30 114/276/30
f 137/236/29 135/277/29 133/196/29
f 138/261/30 134/182/30 135/275/30
f 142/235/29 141/278/29 140/233/29
f 144/279/30 139/203/30 141/280/30
f 148/192/26 147/281/26 146/180/26
f 147/282/25 149/245/25 145/247/25
f 149/216/27 144/283/27 142/214/27
f 150/284/28 143/177/28 144/279/28
f 139/203/24 147/281/24 141/280/24
f 141/285/23 145/242/23 140/244/23
f 103/251/3 143/177/3 118/179/3
f 68/42/3 72/72/3 35/43/3
f 40/45/15 20/286/15 22/46/15
f 58/48/16 62/287/16 63/49/16
f 22/53/17 24/62/17 45/54/17
f 70/59/18 74/288/18 75/60/18
f 24/62/14 26/69/14 49/63/14
f 62/64/19 66/89/19 67/65/19
f 26/69/20 28/289/20 53/70/20
f 72/72/18 76/290/18 37/73/18
f 28/74/21 30/80/21 57/75/21
f 64/77/19 68/42/19 33/44/19
f 30/80/16 32/291/16 61/81/16
f 74/83/22 39/292/22 17/84/22
f 32/86/19 34/91/19 65/87/19
f 66/89/3 70/59/3 71/61/3
f 34/91/3 36/99/3 69/92/3
f 76/96/22 18/293/22 19/97/22
f 36/99/18 38/294/18 73/100/18
f 60/101/16 64/295/16 31/102/16
f 38/105/22 20/286/22 40/45/22
f 56/110/21 60/101/21 29/103/21
f 54/112/21 58/48/21 59/50/21
f 52/114/20 56/296/20 27/115/20
f 50/119/20 54/297/20 55/120/20
f 48/124/14 52/114/14 25/116/14
f 46/127/14 50/119/14 51/121/14
f 44/129/17 48/124/17 23/125/17
f 42/131/17 46/127/17 47/128/17
f 19/97/15 18/293/15 44/134/15
f 17/84/15 39/292/15 42/136/15
f 143/177/3 148/192/3 116/178/3
f 146/180/3 124/258/3 112/181/3
f 90/183/14 84/298/14 93/184/14
f 90/186/5 121/210/5 107/187/5
f 94/189/2 127/198/2 104/190/2
f 148/192/3 136/219/3 109/193/3
f 113/194/4 86/299/4 91/195/4
f 93/197/2 131/209/2 127/198/2
f 86/199/5 113/300/5 125/200/5
f 122/202/3 124/258/3 146/180/3
f 86/204/14 89/207/14 95/205/14
f 89/207/14 90/183/14 97/185/14
f 84/208/2 107/301/2 131/209/2
f 89/201/5 125/200/5 121/210/5
f 115/211/1 88/232/1 87/212/1
f 142/214/5 100/302/5 102/215/5
f 119/213/1 87/212/1 83/217/1
f 146/180/3 134/182/3 136/219/3
f 96/220/14 98/223/14 87/221/14
f 95/205/14 97/185/14 98/223/14
f 92/224/14 96/220/14 88/222/14
f 91/206/14 95/205/14 96/220/14
f 106/226/3 122/202/3 139/203/3
f 128/228/3 130/227/3 139/203/3
f 98/223/14 94/230/14 83/229/14
f 97/185/14 93/184/14 94/230/14
f 110/231/1 85/303/1 88/232/1
f 140/233/4 99/304/4 100/234/4
f 137/236/4 92/238/4 85/225/4
f 133/196/4 91/195/4 92/238/4
f 99/239/3 101/305/3 102/240/3
f 145/242/1 101/306/1 99/243/1
f 149/245/2 102/307/2 101/246/2
f 119/213/23 104/218/23 105/248/23
f 120/250/24 105/272/24 103/251/24
f 131/209/25 107/301/25 108/252/25
f 132/254/26 108/268/26 106/226/26
f 125/200/27 113/300/27 114/255/27
f 126/257/28 114/276/28 112/181/28
f 137/236/29 110/237/29 111/259/29
f 138/261/30 111/264/30 109/193/30
f 115/211/23 117/265/23 111/262/23
f 117/263/24 116/178/24 109/193/24
f 119/213/23 120/249/23 117/265/23
f 120/250/24 118/179/24 116/178/24
f 121/210/27 123/269/27 108/266/27
f 123/267/28 122/202/28 106/226/28
f 125/200/27 126/256/27 123/269/27
f 126/257/28 124/258/28 122/202/28
f 127/198/25 129/273/25 105/270/25
f 129/271/26 128/228/26 103/251/26
f 131/209/25 132/253/25 129/273/25
f 132/254/26 130/227/26 128/228/26
f 133/196/29 135/277/29 114/274/29
f 135/275/30 134/182/30 112/181/30
f 137/236/29 138/260/29 135/277/29
f 138/261/30 136/219/30 134/182/30
f 142/235/29 144/308/29 141/278/29
f 144/279/30 143/177/30 139/203/30
f 148/192/26 150/284/26 147/281/26
f 147/282/25 150/309/25 149/245/25
f 149/216/27 150/310/27 144/283/27
f 150/284/28 148/192/28 143/177/28
f 139/203/24 146/180/24 147/281/24
f 141/285/23 147/311/23 145/242/23
f 103/251/3 128/228/3 143/177/3
