# Blender v2.79 (sub 0) OBJ File: 'ElevatorDoors.blend'
# www.blender.org
mtllib elevator_doors.mtl
o ElevatorLeftDoors
v 0.050000 2.000000 1.000000
v 0.050000 0.000000 1.000000
v -0.050000 2.000000 1.000000
v -0.050000 0.000000 1.000000
v 0.043040 0.000000 0.000000
v 0.050000 0.000000 0.006960
v 0.050000 2.000000 0.006960
v 0.043040 2.000000 0.000000
v -0.043040 2.000000 0.000000
v -0.050000 2.000000 0.006960
v -0.050000 0.000000 0.006960
v -0.043040 0.000000 0.000000
v 0.043040 0.000000 0.000000
v -0.043040 0.000000 0.000000
v -3.350000 2.000000 1.000000
v -3.350000 0.000000 1.000000
v -3.450000 2.000000 1.000000
v -3.450000 0.000000 1.000000
v -3.356960 0.000000 0.000000
v -3.350000 0.000000 0.006960
v -3.350000 2.000000 0.006960
v -3.356960 2.000000 0.000000
v -3.443040 2.000000 0.000000
v -3.450000 2.000000 0.006960
v -3.450000 0.000000 0.006960
v -3.443040 0.000000 0.000000
v -3.356960 0.000000 0.000000
v -3.443040 0.000000 0.000000
vt 0.495143 0.054953
vt 0.503189 0.817836
vt 0.495143 0.817836
vt 0.041653 0.817836
vt 0.496289 0.054953
vt 0.496289 0.817836
vt 0.503189 0.054953
vt 0.041653 0.054953
vt 0.041564 0.054946
vt 0.487036 0.819306
vt 0.487036 0.054946
vt 0.888531 0.055059
vt 0.849916 0.819419
vt 0.849916 0.055059
vt 0.038742 0.055059
vt 0.054400 0.819306
vt 0.038742 0.819419
vt 0.041564 0.054946
vt 0.487036 0.819306
vt 0.487036 0.054946
vt 0.888531 0.055059
vt 0.849916 0.819419
vt 0.849916 0.055059
vt 0.495143 0.054953
vt 0.503189 0.817836
vt 0.495143 0.817836
vt 0.038742 0.055059
vt 0.054400 0.819306
vt 0.038742 0.819419
vt 0.041653 0.817836
vt 0.496289 0.054953
vt 0.496289 0.817836
vt 0.041564 0.819306
vt 0.888531 0.819419
vt 0.054400 0.054946
vt 0.041564 0.819306
vt 0.888531 0.819419
vt 0.503189 0.054953
vt 0.054400 0.054946
vt 0.041653 0.054953
vn 0.7071 0.0000 -0.7071
vn 1.0000 0.0000 0.0000
vn -1.0000 0.0000 0.0000
vn 0.0000 0.0000 -1.0000
vn -0.7071 0.0000 -0.7071
usemtl Doors1
s off
f 6/1/1 8/2/1 7/3/1
f 1/4/2 6/5/2 7/6/2
f 6/1/1 5/7/1 8/2/1
f 1/4/2 2/8/2 6/5/2
usemtl Doors2
f 4/9/3 10/10/3 11/11/3
f 12/12/4 8/13/4 5/14/4
f 12/15/5 10/16/5 9/17/5
f 18/18/3 24/19/3 25/20/3
f 26/21/4 22/22/4 19/23/4
f 20/24/1 22/25/1 21/26/1
f 26/27/5 24/28/5 23/29/5
f 15/30/2 20/31/2 21/32/2
f 4/9/3 3/33/3 10/10/3
f 12/12/4 9/34/4 8/13/4
f 12/15/5 11/35/5 10/16/5
f 18/18/3 17/36/3 24/19/3
f 26/21/4 23/37/4 22/22/4
f 20/24/1 19/38/1 22/25/1
f 26/27/5 25/39/5 24/28/5
f 15/30/2 16/40/2 20/31/2
l 13 14
l 27 28
