# Blender v2.79 (sub 0) OBJ File: 'ElevatorLamp.blend'
# www.blender.org
mtllib elevator_lamp.mtl
vt 0 0
o ElevatorLamp
v 0.540000 -0.077125 -0.084500
v -0.540000 -0.077125 -0.084500
v -0.540000 -0.077125 0.035500
v 0.540000 -0.077125 0.035500
v -0.540000 -0.081905 0.035971
v 0.540000 -0.081905 0.035971
v -0.540000 -0.086501 0.037365
v 0.540000 -0.086501 0.037365
v -0.540000 -0.090737 0.039629
v 0.540000 -0.090737 0.039629
v -0.540000 -0.094449 0.042676
v 0.540000 -0.094449 0.042676
v -0.540000 -0.097496 0.046389
v 0.540000 -0.097496 0.046389
v -0.540000 -0.099760 0.050624
v 0.540000 -0.099760 0.050624
v -0.540000 -0.101155 0.055220
v 0.540000 -0.101155 0.055220
v -0.540000 -0.101625 0.060000
v 0.540000 -0.101625 0.060000
v -0.540000 -0.101155 0.064780
v 0.540000 -0.101155 0.064780
v -0.540000 -0.099760 0.069376
v 0.540000 -0.099760 0.069376
v -0.540000 -0.097496 0.073611
v 0.540000 -0.097496 0.073611
v -0.540000 -0.094449 0.077324
v 0.540000 -0.094449 0.077324
v -0.540000 -0.090737 0.080371
v 0.540000 -0.090737 0.080371
v -0.540000 -0.086501 0.082635
v 0.540000 -0.086501 0.082635
v -0.540000 -0.081905 0.084029
v 0.540000 -0.081905 0.084029
v -0.540000 -0.077125 0.084500
v 0.540000 -0.077125 0.084500
v -0.540000 -0.072346 0.084029
v 0.540000 -0.072346 0.084029
v -0.540000 -0.067750 0.082635
v 0.540000 -0.067750 0.082635
v -0.540000 -0.063514 0.080371
v 0.540000 -0.063514 0.080371
v -0.540000 -0.059801 0.077324
v 0.540000 -0.059801 0.077324
v -0.540000 -0.056754 0.073611
v 0.540000 -0.056754 0.073611
v -0.540000 -0.054490 0.069376
v 0.540000 -0.054490 0.069376
v -0.540000 -0.053096 0.064780
v 0.540000 -0.053096 0.064780
v -0.540000 -0.052625 0.060000
v 0.540000 -0.052625 0.060000
v -0.540000 -0.053096 0.055220
v 0.540000 -0.053096 0.055220
v -0.540000 -0.054490 0.050624
v 0.540000 -0.054490 0.050624
v -0.540000 -0.056754 0.046389
v 0.540000 -0.056754 0.046389
v -0.540000 -0.059801 0.042676
v 0.540000 -0.059801 0.042676
v -0.540000 -0.063514 0.039629
v 0.540000 -0.063514 0.039629
v -0.540000 -0.067750 0.037365
v 0.540000 -0.067750 0.037365
v -0.540000 -0.072346 0.035971
v 0.540000 -0.072346 0.035971
v -0.540000 -0.081905 -0.084029
v 0.540000 -0.081905 -0.084029
v -0.540000 -0.086501 -0.082635
v 0.540000 -0.086501 -0.082635
v -0.540000 -0.090737 -0.080371
v 0.540000 -0.090737 -0.080371
v -0.540000 -0.094449 -0.077324
v 0.540000 -0.094449 -0.077324
v -0.540000 -0.097496 -0.073611
v 0.540000 -0.097496 -0.073611
v -0.540000 -0.099760 -0.069376
v 0.540000 -0.099760 -0.069376
v -0.540000 -0.101155 -0.064780
v 0.540000 -0.101155 -0.064780
v -0.540000 -0.101625 -0.060000
v 0.540000 -0.101625 -0.060000
v -0.540000 -0.101155 -0.055220
v 0.540000 -0.101155 -0.055220
v -0.540000 -0.099760 -0.050624
v 0.540000 -0.099760 -0.050624
v -0.540000 -0.097496 -0.046389
v 0.540000 -0.097496 -0.046389
v -0.540000 -0.094449 -0.042676
v 0.540000 -0.094449 -0.042676
v -0.540000 -0.090737 -0.039629
v 0.540000 -0.090737 -0.039629
v -0.540000 -0.086501 -0.037365
v 0.540000 -0.086501 -0.037365
v -0.540000 -0.081905 -0.035971
v 0.540000 -0.081905 -0.035971
v -0.540000 -0.077125 -0.035500
v 0.540000 -0.077125 -0.035500
v -0.540000 -0.072346 -0.035971
v 0.540000 -0.072346 -0.035971
v -0.540000 -0.067750 -0.037365
v 0.540000 -0.067750 -0.037365
v -0.540000 -0.063514 -0.039629
v 0.540000 -0.063514 -0.039629
v -0.540000 -0.059801 -0.042676
v 0.540000 -0.059801 -0.042676
v -0.540000 -0.056754 -0.046389
v 0.540000 -0.056754 -0.046389
v -0.540000 -0.054490 -0.050624
v 0.540000 -0.054490 -0.050624
v -0.540000 -0.053096 -0.055220
v 0.540000 -0.053096 -0.055220
v -0.540000 -0.052625 -0.060000
v 0.540000 -0.052625 -0.060000
v -0.540000 -0.053096 -0.064780
v 0.540000 -0.053096 -0.064780
v -0.540000 -0.054490 -0.069376
v 0.540000 -0.054490 -0.069376
v -0.540000 -0.056754 -0.073611
v 0.540000 -0.056754 -0.073611
v -0.540000 -0.059801 -0.077324
v 0.540000 -0.059801 -0.077324
v -0.540000 -0.063514 -0.080371
v 0.540000 -0.063514 -0.080371
v -0.540000 -0.067750 -0.082635
v 0.540000 -0.067750 -0.082635
v -0.540000 -0.072346 -0.084029
v 0.540000 -0.072346 -0.084029
vn 1.0000 0.0000 0.0000
vn -0.0000 -0.0980 -0.9952
vn 0.0000 0.4714 -0.8819
vn -0.0000 -0.2903 -0.9569
vn 0.0000 0.6344 -0.7730
vn -0.0000 -0.4714 -0.8819
vn 0.0000 0.7730 -0.6344
vn -0.0000 -0.6344 -0.7730
vn 0.0000 0.8819 -0.4714
vn -0.0000 -0.7730 -0.6344
vn 0.0000 0.9569 -0.2903
vn -0.0000 -0.8819 -0.4714
vn 0.0000 0.9952 -0.0980
vn -0.0000 -0.9569 -0.2903
vn 0.0000 0.9952 0.0980
vn -0.0000 -0.9952 -0.0980
vn 0.0000 0.9569 0.2903
vn -0.0000 -0.9952 0.0980
vn 0.0000 0.8819 0.4714
vn -0.0000 -0.9569 0.2903
vn 0.0000 0.7730 0.6344
vn -0.0000 -0.8819 0.4714
vn 0.0000 0.6344 0.7730
vn -0.0000 -0.7730 0.6344
vn 0.0000 0.4714 0.8819
vn -0.0000 -0.6344 0.7730
vn 0.0000 0.2903 0.9569
vn -0.0000 -0.4714 0.8819
vn 0.0000 0.0980 0.9952
vn -0.0000 -0.2903 0.9569
vn -0.0000 -0.0980 0.9952
vn -1.0000 0.0000 0.0000
vn 0.0000 0.0980 -0.9952
vn 0.0000 0.2903 -0.9569
vn 1.0000 -0.0001 0.0000
vn -1.0000 0.0001 0.0000
vn -1.0000 -0.0001 0.0000
vn 1.0000 0.0001 0.0000
usemtl ElevatorLamp
s off
f 70/1/1 118/1/1 102/1/1
f 4/1/2 5/1/2 3/1/2
f 124/1/3 125/1/3 123/1/3
f 6/1/4 7/1/4 5/1/4
f 122/1/5 123/1/5 121/1/5
f 8/1/6 9/1/6 7/1/6
f 120/1/7 121/1/7 119/1/7
f 10/1/8 11/1/8 9/1/8
f 118/1/9 119/1/9 117/1/9
f 12/1/10 13/1/10 11/1/10
f 116/1/11 117/1/11 115/1/11
f 14/1/12 15/1/12 13/1/12
f 114/1/13 115/1/13 113/1/13
f 16/1/14 17/1/14 15/1/14
f 111/1/15 114/1/15 113/1/15
f 18/1/16 19/1/16 17/1/16
f 109/1/17 112/1/17 111/1/17
f 19/1/18 22/1/18 21/1/18
f 108/1/19 109/1/19 107/1/19
f 21/1/20 24/1/20 23/1/20
f 106/1/21 107/1/21 105/1/21
f 24/1/22 25/1/22 23/1/22
f 104/1/23 105/1/23 103/1/23
f 25/1/24 28/1/24 27/1/24
f 101/1/25 104/1/25 103/1/25
f 27/1/26 30/1/26 29/1/26
f 99/1/27 102/1/27 101/1/27
f 29/1/28 32/1/28 31/1/28
f 97/1/29 100/1/29 99/1/29
f 31/1/30 34/1/30 33/1/30
f 96/1/31 97/1/31 95/1/31
f 34/1/31 35/1/31 33/1/31
f 94/1/30 95/1/30 93/1/30
f 35/1/29 38/1/29 37/1/29
f 91/1/28 94/1/28 93/1/28
f 37/1/27 40/1/27 39/1/27
f 90/1/26 91/1/26 89/1/26
f 40/1/25 41/1/25 39/1/25
f 88/1/24 89/1/24 87/1/24
f 41/1/23 44/1/23 43/1/23
f 86/1/22 87/1/22 85/1/22
f 44/1/21 45/1/21 43/1/21
f 84/1/20 85/1/20 83/1/20
f 46/1/19 47/1/19 45/1/19
f 82/1/18 83/1/18 81/1/18
f 48/1/17 49/1/17 47/1/17
f 80/1/16 81/1/16 79/1/16
f 49/1/15 52/1/15 51/1/15
f 78/1/14 79/1/14 77/1/14
f 52/1/13 53/1/13 51/1/13
f 76/1/12 77/1/12 75/1/12
f 54/1/11 55/1/11 53/1/11
f 74/1/10 75/1/10 73/1/10
f 56/1/9 57/1/9 55/1/9
f 72/1/8 73/1/8 71/1/8
f 58/1/7 59/1/7 57/1/7
f 95/1/32 111/1/32 127/1/32
f 70/1/6 71/1/6 69/1/6
f 60/1/5 61/1/5 59/1/5
f 128/1/33 2/1/33 127/1/33
f 68/1/4 69/1/4 67/1/4
f 62/1/3 63/1/3 61/1/3
f 8/1/1 56/1/1 40/1/1
f 1/1/2 67/1/2 2/1/2
f 64/1/34 65/1/34 63/1/34
f 126/1/34 127/1/34 125/1/34
f 66/1/33 3/1/33 65/1/33
f 33/1/32 49/1/32 65/1/32
f 70/1/1 68/1/1 1/1/1
f 1/1/1 128/1/1 70/1/1
f 128/1/1 126/1/1 70/1/1
f 126/1/1 124/1/1 122/1/1
f 122/1/1 120/1/1 118/1/1
f 118/1/1 116/1/1 114/1/1
f 114/1/1 112/1/1 110/1/1
f 110/1/1 108/1/1 102/1/1
f 108/1/1 106/1/1 102/1/1
f 106/1/35 104/1/35 102/1/35
f 102/1/1 100/1/1 98/1/1
f 98/1/1 96/1/1 102/1/1
f 96/1/1 94/1/1 102/1/1
f 94/1/1 92/1/1 90/1/1
f 90/1/35 88/1/35 86/1/35
f 86/1/1 84/1/1 78/1/1
f 84/1/35 82/1/35 78/1/35
f 82/1/1 80/1/1 78/1/1
f 78/1/35 76/1/35 74/1/35
f 74/1/1 72/1/1 70/1/1
f 126/1/1 122/1/1 70/1/1
f 122/1/1 118/1/1 70/1/1
f 118/1/1 114/1/1 102/1/1
f 114/1/1 110/1/1 102/1/1
f 94/1/1 90/1/1 102/1/1
f 90/1/1 86/1/1 102/1/1
f 78/1/1 74/1/1 70/1/1
f 86/1/1 78/1/1 102/1/1
f 78/1/1 70/1/1 102/1/1
f 4/1/2 6/1/2 5/1/2
f 124/1/3 126/1/3 125/1/3
f 6/1/4 8/1/4 7/1/4
f 122/1/5 124/1/5 123/1/5
f 8/1/6 10/1/6 9/1/6
f 120/1/7 122/1/7 121/1/7
f 10/1/8 12/1/8 11/1/8
f 118/1/9 120/1/9 119/1/9
f 12/1/10 14/1/10 13/1/10
f 116/1/11 118/1/11 117/1/11
f 14/1/12 16/1/12 15/1/12
f 114/1/13 116/1/13 115/1/13
f 16/1/14 18/1/14 17/1/14
f 111/1/15 112/1/15 114/1/15
f 18/1/16 20/1/16 19/1/16
f 109/1/17 110/1/17 112/1/17
f 19/1/18 20/1/18 22/1/18
f 108/1/19 110/1/19 109/1/19
f 21/1/20 22/1/20 24/1/20
f 106/1/21 108/1/21 107/1/21
f 24/1/22 26/1/22 25/1/22
f 104/1/23 106/1/23 105/1/23
f 25/1/24 26/1/24 28/1/24
f 101/1/25 102/1/25 104/1/25
f 27/1/26 28/1/26 30/1/26
f 99/1/27 100/1/27 102/1/27
f 29/1/28 30/1/28 32/1/28
f 97/1/29 98/1/29 100/1/29
f 31/1/30 32/1/30 34/1/30
f 96/1/31 98/1/31 97/1/31
f 34/1/31 36/1/31 35/1/31
f 94/1/30 96/1/30 95/1/30
f 35/1/29 36/1/29 38/1/29
f 91/1/28 92/1/28 94/1/28
f 37/1/27 38/1/27 40/1/27
f 90/1/26 92/1/26 91/1/26
f 40/1/25 42/1/25 41/1/25
f 88/1/24 90/1/24 89/1/24
f 41/1/23 42/1/23 44/1/23
f 86/1/22 88/1/22 87/1/22
f 44/1/21 46/1/21 45/1/21
f 84/1/20 86/1/20 85/1/20
f 46/1/19 48/1/19 47/1/19
f 82/1/18 84/1/18 83/1/18
f 48/1/17 50/1/17 49/1/17
f 80/1/16 82/1/16 81/1/16
f 49/1/15 50/1/15 52/1/15
f 78/1/14 80/1/14 79/1/14
f 52/1/13 54/1/13 53/1/13
f 76/1/12 78/1/12 77/1/12
f 54/1/11 56/1/11 55/1/11
f 74/1/10 76/1/10 75/1/10
f 56/1/9 58/1/9 57/1/9
f 72/1/8 74/1/8 73/1/8
f 58/1/7 60/1/7 59/1/7
f 127/1/32 2/1/32 67/1/32
f 67/1/36 69/1/36 71/1/36
f 71/1/32 73/1/32 79/1/32
f 73/1/37 75/1/37 79/1/37
f 75/1/32 77/1/32 79/1/32
f 79/1/36 81/1/36 83/1/36
f 83/1/32 85/1/32 87/1/32
f 87/1/32 89/1/32 95/1/32
f 89/1/32 91/1/32 95/1/32
f 91/1/32 93/1/32 95/1/32
f 95/1/32 97/1/32 99/1/32
f 99/1/32 101/1/32 95/1/32
f 101/1/32 103/1/32 95/1/32
f 103/1/32 105/1/32 111/1/32
f 105/1/32 107/1/32 111/1/32
f 107/1/32 109/1/32 111/1/32
f 111/1/32 113/1/32 115/1/32
f 115/1/32 117/1/32 119/1/32
f 119/1/37 121/1/37 123/1/37
f 123/1/32 125/1/32 127/1/32
f 127/1/32 67/1/32 79/1/32
f 67/1/32 71/1/32 79/1/32
f 79/1/32 83/1/32 87/1/32
f 111/1/32 115/1/32 127/1/32
f 115/1/32 119/1/32 127/1/32
f 119/1/32 123/1/32 127/1/32
f 79/1/32 87/1/32 95/1/32
f 95/1/32 103/1/32 111/1/32
f 127/1/32 79/1/32 95/1/32
f 70/1/6 72/1/6 71/1/6
f 60/1/5 62/1/5 61/1/5
f 128/1/33 1/1/33 2/1/33
f 68/1/4 70/1/4 69/1/4
f 62/1/3 64/1/3 63/1/3
f 8/1/1 6/1/1 4/1/1
f 4/1/1 66/1/1 8/1/1
f 66/1/1 64/1/1 8/1/1
f 64/1/1 62/1/1 60/1/1
f 60/1/1 58/1/1 56/1/1
f 56/1/1 54/1/1 52/1/1
f 52/1/1 50/1/1 48/1/1
f 48/1/1 46/1/1 40/1/1
f 46/1/1 44/1/1 40/1/1
f 44/1/35 42/1/35 40/1/35
f 40/1/1 38/1/1 36/1/1
f 36/1/1 34/1/1 40/1/1
f 34/1/1 32/1/1 40/1/1
f 32/1/1 30/1/1 28/1/1
f 28/1/35 26/1/35 24/1/35
f 24/1/1 22/1/1 16/1/1
f 22/1/35 20/1/35 16/1/35
f 20/1/38 18/1/38 16/1/38
f 16/1/1 14/1/1 12/1/1
f 12/1/1 10/1/1 8/1/1
f 64/1/1 60/1/1 8/1/1
f 60/1/1 56/1/1 8/1/1
f 56/1/1 52/1/1 40/1/1
f 52/1/1 48/1/1 40/1/1
f 32/1/1 28/1/1 40/1/1
f 28/1/1 24/1/1 40/1/1
f 16/1/1 12/1/1 8/1/1
f 24/1/1 16/1/1 40/1/1
f 16/1/1 8/1/1 40/1/1
f 1/1/2 68/1/2 67/1/2
f 64/1/34 66/1/34 65/1/34
f 126/1/34 128/1/34 127/1/34
f 66/1/33 4/1/33 3/1/33
f 65/1/32 3/1/32 5/1/32
f 5/1/32 7/1/32 9/1/32
f 9/1/32 11/1/32 17/1/32
f 11/1/37 13/1/37 17/1/37
f 13/1/32 15/1/32 17/1/32
f 17/1/36 19/1/36 21/1/36
f 21/1/32 23/1/32 25/1/32
f 25/1/32 27/1/32 33/1/32
f 27/1/32 29/1/32 33/1/32
f 29/1/32 31/1/32 33/1/32
f 33/1/32 35/1/32 37/1/32
f 37/1/32 39/1/32 33/1/32
f 39/1/32 41/1/32 33/1/32
f 41/1/32 43/1/32 49/1/32
f 43/1/32 45/1/32 49/1/32
f 45/1/32 47/1/32 49/1/32
f 49/1/32 51/1/32 53/1/32
f 53/1/32 55/1/32 49/1/32
f 55/1/32 57/1/32 49/1/32
f 57/1/37 59/1/37 61/1/37
f 61/1/32 63/1/32 65/1/32
f 65/1/32 5/1/32 17/1/32
f 5/1/32 9/1/32 17/1/32
f 17/1/32 21/1/32 25/1/32
f 57/1/32 61/1/32 65/1/32
f 17/1/32 25/1/32 33/1/32
f 33/1/32 41/1/32 49/1/32
f 49/1/32 57/1/32 65/1/32
f 65/1/32 17/1/32 33/1/32
