# Blender v2.79 (sub 0) OBJ File: 'Test.blend'
# www.blender.org
mtllib test.mtl
o Floor
v -4.000000 0.000000 4.000000
v 4.000000 0.000000 4.000000
v -4.000000 0.000000 -4.000000
v 4.000000 0.000000 -4.000000
v 1.000000 0.000000 4.000000
v 1.000000 0.000000 -4.000000
v -1.000000 0.000000 -4.000000
v -1.000000 0.000000 4.000000
v 1.000000 0.000000 -6.000000
v -1.000000 0.000000 -6.000000
v 1.000000 0.000000 -12.000000
v -1.000000 0.000000 -12.000000
v 3.000000 0.000000 -6.000000
v 3.000000 0.000000 -12.000000
v -3.000000 0.000000 -6.000000
v -3.000000 0.000000 -12.000000
v -1.000000 0.000000 -16.000000
v 1.000000 0.000000 -16.000000
v -1.000000 0.000000 -10.000000
v 1.000000 0.000000 -10.000000
v 3.000000 0.000000 -10.000000
v -3.000000 0.000000 -10.000000
v -1.000000 0.000000 -8.000000
v -3.000000 0.000000 -8.000000
v 1.000000 0.000000 -8.000000
v 3.000000 0.000000 -8.000000
v 5.000000 0.000000 -10.000000
v 5.000000 0.000000 -8.000000
vt 1.500000 0.444882
vt 0.000000 4.444882
vt 0.000000 0.444882
vt 1.000000 0.444883
vt 0.000000 4.444883
vt 0.000000 0.444883
vt 2.000000 0.444882
vt 0.500000 4.444882
vt 0.500000 0.444882
vt 1.000000 0.444882
vt 0.000000 1.444882
vt 0.000000 0.444882
vt 1.000000 0.444882
vt 0.000000 1.444882
vt 0.000000 0.444882
vt 0.000000 -0.555118
vt 1.000000 0.444882
vt 0.000000 0.444882
vt -1.000000 0.444882
vt 1.000000 0.444882
vt 0.000000 2.444882
vt 0.000000 0.444882
vt 0.000000 1.444882
vt -1.000000 0.444882
vt 0.000000 0.444882
vt 0.000000 -0.555118
vt 1.000000 0.444882
vt 0.000000 0.444882
vt 1.000000 0.444882
vt 1.000000 0.444882
vt 0.000000 1.444882
vt 0.000000 0.444882
vt -1.000000 0.444882
vt 0.000000 -0.555118
vt 1.000000 0.444882
vt 0.000000 0.444882
vt 0.000000 -0.555118
vt 1.000000 0.444882
vt 0.000000 0.444882
vt 1.500000 4.444882
vt 1.000000 4.444883
vt 2.000000 4.444882
vt 1.000000 1.444882
vt 1.000000 1.444882
vt 1.000000 -0.555118
vt -1.000000 1.444882
vt 1.000000 2.444882
vt -1.000000 1.444882
vt 1.000000 -0.555118
vt 1.000000 1.444882
vt 1.000000 1.444882
vt -1.000000 1.444882
vt 1.000000 -0.555118
vt 1.000000 -0.555118
vn 0.0000 1.0000 0.0000
usemtl Paving
s off
f 2/1/1 6/2/1 5/3/1
f 5/4/1 7/5/1 8/6/1
f 8/7/1 3/8/1 1/9/1
f 6/10/1 10/11/1 7/12/1
f 20/13/1 12/14/1 19/15/1
f 9/16/1 26/17/1 25/18/1
f 12/14/1 22/19/1 19/15/1
f 11/20/1 17/21/1 12/22/1
f 19/23/1 24/24/1 23/25/1
f 20/26/1 14/27/1 11/28/1
f 25/29/1 19/23/1 23/25/1
f 9/30/1 23/31/1 10/32/1
f 23/31/1 15/33/1 10/32/1
f 25/34/1 21/35/1 20/36/1
f 26/37/1 27/38/1 21/39/1
f 2/1/1 4/40/1 6/2/1
f 5/4/1 6/41/1 7/5/1
f 8/7/1 7/42/1 3/8/1
f 6/10/1 9/43/1 10/11/1
f 20/13/1 11/44/1 12/14/1
f 9/16/1 13/45/1 26/17/1
f 12/14/1 16/46/1 22/19/1
f 11/20/1 18/47/1 17/21/1
f 19/23/1 22/48/1 24/24/1
f 20/26/1 21/49/1 14/27/1
f 25/29/1 20/50/1 19/23/1
f 9/30/1 25/51/1 23/31/1
f 23/31/1 24/52/1 15/33/1
f 25/34/1 26/53/1 21/35/1
f 26/37/1 28/54/1 27/38/1
