# WaveFront *.obj file (generated by CINEMA 4D)

mtllib ./battery.mtl

v -0.00089999998454 -0.20000000298023 -0.10000000149012
v -0.00089999998454 0 -0.10000000149012
v -0.00089999998454 -0.20000000298023 0.10000000149012
v -0.00089999998454 0 0.10000000149012
# 4 vertices

vn -1 0 0
vn -1 0 0
vn 0 0 0
vn -1 0 0
# 4 normals

vt 0 1 0
vt 1 1 0
vt 1 0 0
vt 0 0 0
# 4 texture coordinates

o Plane.1
usemtl Mat
f 1/1/1 3/2/2 4/3/1
f 1/1/1 4/3/1 2/4/4

v 0 -0.20000000298023 0.10000000149012
v 0 0 0.10000000149012
v 0 -0.20000000298023 -0.10000000149012
v 0 0 -0.10000000149012
# 4 vertices

vn 1 0 0
vn 1 0 0
# 2 normals

# 0 texture coordinate

o Plane
usemtl Mat
f 5/1/5 7/2/6 8/3/5
f 5/1/5 8/3/5 6/4/5

