# Blender v2.79 (sub 0) OBJ File: 'north_east_south_west_none_2.blend'
# www.blender.org
mtllib north_east_south_west_none_2.mtl
o Room
v 3.000000 2.000000 -3.000000
v -3.000000 2.000000 3.000000
v 3.000000 2.450000 -3.000000
v 3.000000 0.000000 -3.000000
v -3.000000 2.000000 -3.000000
v -3.000000 2.450000 3.000000
v -3.000000 0.000000 -3.000000
v -3.000000 2.450000 -3.000000
v -0.500000 2.450000 3.000000
v 0.500000 2.450000 3.000000
v -0.500000 2.000000 3.000000
v 0.500000 2.000000 3.000000
v 0.500000 0.000000 3.000000
v -0.500000 0.000000 3.000000
v -3.000000 2.450000 -0.500000
v -3.000000 0.000000 -0.500000
v -3.000000 0.000000 0.500000
v -3.000000 2.450000 0.500000
v -3.000000 2.000000 -0.500000
v -3.000000 2.000000 0.500000
v -0.500000 2.450000 -3.000000
v -0.500000 0.000000 -3.000000
v 0.500000 0.000000 -3.000000
v 0.500000 2.450000 -3.000000
v 0.500000 2.000000 -3.000000
v -0.500000 2.000000 -3.000000
v 3.000000 0.000000 -0.500000
v 3.000000 2.450000 -0.500000
v 3.000000 0.000000 0.500000
v 3.000000 2.450000 0.500000
v 3.000000 2.000000 -0.500000
v 3.000000 2.000000 0.500000
v 5.000000 0.000000 -0.500000
v 5.000000 0.000000 0.500000
v 5.000000 2.000000 -0.500000
v 5.000000 2.000000 0.500000
v -0.500000 2.000000 5.000000
v 0.500000 2.000000 5.000000
v 0.500000 0.000000 5.000000
v -0.500000 0.000000 5.000000
v -5.000000 0.000000 -0.500000
v -5.000000 0.000000 0.500000
v -5.000000 2.000000 -0.500000
v -5.000000 2.000000 0.500000
v -0.500000 0.000000 -5.000000
v 0.500000 0.000000 -5.000000
v 0.500000 2.000000 -5.000000
v -0.500000 2.000000 -5.000000
v -3.000000 0.000000 3.000000
v 3.000000 2.450000 3.000000
v 3.000000 2.000000 3.000000
v 3.000000 0.000000 3.000000
vn 0.0000 0.0000 -1.0000
vn 0.0000 0.0000 1.0000
vn 1.0000 0.0000 0.0000
vn -1.0000 0.0000 0.0000
vn 0.0000 -1.0000 0.0000
usemtl Material
s off
f 10/1/1 51/1/1 12/1/1
f 11/1/1 6/1/1 9/1/1
f 14/1/1 2/1/1 11/1/1
f 23/1/2 1/1/2 25/1/2
f 25/1/2 3/1/2 24/1/2
f 12/1/1 9/1/1 10/1/1
f 26/1/2 7/1/2 22/1/2
f 19/1/3 18/1/3 20/1/3
f 26/1/2 24/1/2 21/1/2
f 21/1/2 5/1/2 26/1/2
f 31/1/4 30/1/4 28/1/4
f 12/1/1 52/1/1 13/1/1
f 35/1/5 32/1/5 31/1/5
f 32/1/1 34/1/1 29/1/1
f 33/1/2 31/1/2 27/1/2
f 39/1/4 12/1/4 13/1/4
f 37/1/3 14/1/3 11/1/3
f 38/1/5 11/1/5 12/1/5
f 44/1/5 19/1/5 20/1/5
f 42/1/1 20/1/1 17/1/1
f 43/1/2 16/1/2 19/1/2
f 48/1/5 25/1/5 26/1/5
f 25/1/4 46/1/4 23/1/4
f 45/1/3 26/1/3 22/1/3
f 50/1/4 32/1/4 51/1/4
f 51/1/4 29/1/4 52/1/4
f 27/1/4 1/1/4 4/1/4
f 31/1/4 3/1/4 1/1/4
f 5/1/3 15/1/3 19/1/3
f 7/1/3 19/1/3 16/1/3
f 49/1/3 20/1/3 2/1/3
f 2/1/3 18/1/3 6/1/3
f 10/1/1 50/1/1 51/1/1
f 11/1/1 2/1/1 6/1/1
f 14/1/1 49/1/1 2/1/1
f 23/1/2 4/1/2 1/1/2
f 25/1/2 1/1/2 3/1/2
f 12/1/1 11/1/1 9/1/1
f 26/1/2 5/1/2 7/1/2
f 19/1/3 15/1/3 18/1/3
f 26/1/2 25/1/2 24/1/2
f 21/1/2 8/1/2 5/1/2
f 31/1/4 32/1/4 30/1/4
f 12/1/1 51/1/1 52/1/1
f 35/1/5 36/1/5 32/1/5
f 32/1/1 36/1/1 34/1/1
f 33/1/2 35/1/2 31/1/2
f 39/1/4 38/1/4 12/1/4
f 37/1/3 40/1/3 14/1/3
f 38/1/5 37/1/5 11/1/5
f 44/1/5 43/1/5 19/1/5
f 42/1/1 44/1/1 20/1/1
f 43/1/2 41/1/2 16/1/2
f 48/1/5 47/1/5 25/1/5
f 25/1/4 47/1/4 46/1/4
f 45/1/3 48/1/3 26/1/3
f 50/1/4 30/1/4 32/1/4
f 51/1/4 32/1/4 29/1/4
f 27/1/4 31/1/4 1/1/4
f 31/1/4 28/1/4 3/1/4
f 5/1/3 8/1/3 15/1/3
f 7/1/3 5/1/3 19/1/3
f 49/1/3 17/1/3 20/1/3
f 2/1/3 20/1/3 18/1/3
vt 0 0 0

