# Blender v2.79 (sub 0) OBJ File: 'north_east_south_west_none_1.blend'
# www.blender.org
mtllib north_east_south_west_none_1.mtl
o Room
v 1.500000 2.450000 -1.500000
v -1.500000 2.450000 1.500000
v 1.500000 0.000000 -1.500000
v -1.500000 2.450000 -1.500000
v -1.500000 0.000000 -1.500000
v -0.500000 2.450000 1.500000
v 0.500000 2.450000 1.500000
v 0.500000 0.000000 1.500000
v -0.500000 0.000000 1.500000
v -1.500000 0.000000 -0.500000
v -1.500000 0.000000 0.500000
v -1.500000 2.450000 -0.500000
v -1.500000 2.450000 0.500000
v -0.500000 0.000000 -1.500000
v 0.500000 0.000000 -1.500000
v 0.500000 2.450000 -1.500000
v -0.500000 2.450000 -1.500000
v 1.500000 0.000000 -0.500000
v 1.500000 0.000000 0.500000
v 1.500000 2.450000 -0.500000
v 1.500000 2.450000 0.500000
v 5.000000 0.000000 -0.500000
v 5.000000 0.000000 0.500000
v 5.000000 2.450000 -0.500000
v 5.000000 2.450000 0.500000
v -0.500000 2.450000 5.000000
v 0.500000 2.450000 5.000000
v 0.500000 0.000000 5.000000
v -0.500000 0.000000 5.000000
v -5.000000 0.000000 -0.500000
v -5.000000 0.000000 0.500000
v -5.000000 2.450000 -0.500000
v -5.000000 2.450000 0.500000
v -0.500000 0.000000 -5.000000
v 0.500000 0.000000 -5.000000
v 0.500000 2.450000 -5.000000
v -0.500000 2.450000 -5.000000
v -1.500000 0.000000 1.500000
v 1.500000 2.450000 1.500000
v 1.500000 0.000000 1.500000
vt 0.372799 -0.500000
vt 0.118398 0.725000
vt 0.372799 0.725000
vt 0.627201 -0.500000
vt 0.881602 0.725000
vt 0.627201 0.725000
vt 0.372799 1.725000
vt 0.118398 0.500000
vt 0.372799 0.500000
vt 0.627201 1.725000
vt 0.881602 0.500000
vt 0.627201 0.500000
vt 0.372799 1.725000
vt 1.263204 0.500000
vt 0.372799 0.500000
vt 1.263204 0.500000
vt 0.372799 1.725000
vt 0.372799 0.500000
vt -0.263204 0.500000
vt -0.263204 0.725000
vt 0.627201 -0.500000
vt 0.627201 0.725000
vt -0.263204 0.500000
vt 0.627201 1.725000
vt 0.627201 0.500000
vt -0.263204 0.725000
vt 0.627201 -0.500000
vt 0.627201 0.725000
vt 0.372799 1.725000
vt 1.263204 0.500000
vt 0.372799 0.500000
vt 1.263204 0.500000
vt 0.627201 1.725000
vt 0.881602 0.500000
vt 0.627201 0.500000
vt 0.118398 0.500000
vt 0.372799 1.725000
vt 0.372799 0.500000
vt 0.881602 0.500000
vt 0.627201 1.725000
vt 0.627201 0.500000
vt 0.627201 -0.500000
vt 0.881602 0.725000
vt 0.627201 0.725000
vt 0.118398 -0.500000
vt 0.881602 -0.500000
vt 0.118398 1.725000
vt 0.881602 1.725000
vt 1.263204 1.725000
vt 1.263204 1.725000
vt -0.263204 1.725000
vt -0.263204 -0.500000
vt -0.263204 1.725000
vt -0.263204 -0.500000
vt 1.263204 1.725000
vt 1.263204 1.725000
vt 0.881602 1.725000
vt 0.118398 1.725000
vt 0.881602 1.725000
vt 0.881602 -0.500000
vn 0.0000 0.0000 -1.0000
vn 0.0000 0.0000 1.0000
vn -1.0000 -0.0000 0.0000
vn 1.0000 0.0000 0.0000
usemtl Material
s off
f 9/1/1 2/2/1 6/3/1
f 15/4/2 1/5/2 16/6/2
f 17/7/2 5/8/2 14/9/2
f 7/10/1 40/11/1 8/12/1
f 21/13/1 23/14/1 19/15/1
f 22/16/2 20/17/2 18/18/2
f 28/19/3 7/10/3 8/12/3
f 26/20/4 9/21/4 6/22/4
f 31/23/1 13/24/1 11/25/1
f 32/26/2 10/27/2 12/28/2
f 16/29/3 35/30/3 15/31/3
f 34/32/4 17/7/4 14/9/4
f 39/33/3 19/34/3 40/35/3
f 18/36/3 1/37/3 3/38/3
f 5/39/4 12/40/4 10/41/4
f 38/42/4 13/43/4 2/44/4
f 9/1/1 38/45/1 2/2/1
f 15/4/2 3/46/2 1/5/2
f 17/7/2 4/47/2 5/8/2
f 7/10/1 39/48/1 40/11/1
f 21/13/1 25/49/1 23/14/1
f 22/16/2 24/50/2 20/17/2
f 28/19/3 27/51/3 7/10/3
f 26/20/4 29/52/4 9/21/4
f 31/23/1 33/53/1 13/24/1
f 32/26/2 30/54/2 10/27/2
f 16/29/3 36/55/3 35/30/3
f 34/32/4 37/56/4 17/7/4
f 39/33/3 21/57/3 19/34/3
f 18/36/3 20/58/3 1/37/3
f 5/39/4 4/59/4 12/40/4
f 38/42/4 11/60/4 13/43/4
