# Blender v2.79 (sub 0) OBJ File: 'north_none_1.blend'
# www.blender.org
mtllib north_none_1.mtl
o Room
v -0.500000 0.000000 -3.000000
v 0.500000 0.000000 -3.000000
v -0.500000 2.450000 -3.000000
v -0.500000 0.000000 -5.000000
v 0.500000 0.000000 -5.000000
v 0.500000 2.450000 -5.000000
v -0.500000 2.450000 -5.000000
v 2.500000 2.450000 -4.000000
v 2.500000 0.000000 -4.000000
v 1.500000 0.000000 -4.000000
v 1.500000 2.450000 -4.000000
v -2.500000 0.000000 -2.500000
v -2.500000 2.450000 -2.500000
v -1.500000 2.450000 -2.500000
v -1.500000 0.000000 -2.500000
v -1.500000 0.000000 1.000000
v -1.500000 2.450000 1.000000
v -1.500000 2.450000 2.000000
v -1.500000 0.000000 2.000000
v 1.500000 2.450000 1.000000
v 1.500000 0.000000 1.000000
v 1.500000 2.450000 2.000000
v 1.500000 0.000000 2.000000
v -2.500000 2.450000 1.000000
v -2.500000 0.000000 1.000000
v -2.500000 0.000000 2.000000
v -2.500000 2.450000 2.000000
v 2.500000 0.000000 1.000000
v 2.500000 2.450000 1.000000
v 2.500000 0.000000 2.000000
v 2.500000 2.450000 2.000000
v 0.500000 2.450000 2.000000
v -0.500000 2.450000 2.000000
v 0.500000 0.000000 2.000000
v -0.500000 0.000000 2.000000
v 0.500000 2.450000 1.000000
v 0.500000 0.000000 1.000000
v -0.500000 0.000000 1.000000
v -0.500000 2.450000 1.000000
v -0.500000 0.000000 4.000000
v -0.500000 2.450000 4.000000
v -0.500000 2.450000 3.000000
v -0.500000 0.000000 3.000000
v 0.500000 2.450000 -3.000000
v 0.500000 0.000000 4.000000
v 0.500000 0.000000 3.000000
v 0.500000 2.450000 3.000000
v 0.500000 2.450000 4.000000
v 4.000000 2.450000 -2.500000
v 4.000000 0.000000 -2.500000
v 3.000000 0.000000 -2.500000
v 3.000000 2.450000 -2.500000
v 3.000000 0.000000 4.000000
v 3.000000 2.450000 4.000000
v 3.000000 2.450000 3.000000
v 3.000000 0.000000 3.000000
v 4.000000 2.450000 4.000000
v 4.000000 0.000000 4.000000
v 4.000000 0.000000 3.000000
v 4.000000 2.450000 3.000000
v -3.999999 2.450000 3.000000
v -3.000000 2.450000 3.000000
v -3.000000 0.000000 3.000000
v -3.999999 0.000000 3.000000
v -3.999999 0.000000 4.000000
v -3.999999 2.450000 4.000000
v -3.000000 0.000000 4.000000
v -3.000000 2.450000 4.000000
v -3.000000 2.450000 -4.000000
v -3.000000 0.000000 -4.000000
v -3.000000 2.450000 -3.000000
v -3.000000 0.000000 -3.000000
v -4.000000 2.450000 -4.000000
v -4.000000 0.000000 -4.000000
v -4.000000 2.450000 -3.000000
v -4.000000 0.000000 -3.000000
v 0.500000 2.450000 -4.000000
v -0.500000 0.000000 -4.000000
v 0.500000 0.000000 -4.000000
v -0.500000 2.450000 -4.000000
v -1.500000 0.000000 -1.500000
v -1.500000 2.450000 -1.500000
v -2.500000 0.000000 -1.500000
v -2.500000 2.450000 -1.500000
v 1.000000 2.450000 -2.500000
v 1.000000 0.000000 -2.500000
v 1.000000 0.000000 -1.500000
v 1.000000 2.450000 -1.500000
v -0.000000 0.000000 -1.500000
v -0.000000 2.450000 -1.500000
v -0.000000 2.450000 -2.500000
v -0.000000 0.000000 -2.500000
v 1.000000 0.000000 0.500000
v 1.000000 2.450000 0.500000
v 0.000000 0.000000 0.500000
v 0.000000 2.450000 0.500000
v 1.500000 0.000000 -3.000000
v 1.500000 2.450000 -3.000000
v 2.500000 2.450000 -3.000000
v 2.500000 0.000000 -3.000000
v 4.000000 2.450000 -4.000000
v 4.000000 0.000000 -4.000000
v 4.000000 2.450000 -3.000000
v 4.000000 0.000000 -3.000000
vt 0.500000 1.725000
vt 0.754401 0.500000
vt 0.500000 0.500000
vt 0.754401 0.500000
vt 0.500000 1.725000
vt 0.500000 0.500000
vt 0.245599 -0.500000
vt 0.500000 0.725000
vt 0.245599 0.725000
vt 0.627201 1.725000
vt 1.008803 0.500000
vt 0.627201 0.500000
vt 0.627201 0.500000
vt 0.372799 1.725000
vt 0.372799 0.500000
vt 0.372799 1.725000
vt -0.136004 0.500000
vt 0.372799 0.500000
vt 0.372799 -0.500000
vt 0.118398 0.725000
vt 0.372799 0.725000
vt 0.372799 1.725000
vt 0.118398 0.500000
vt 0.372799 0.500000
vt 0.627201 1.725000
vt 0.881602 0.500000
vt 0.627201 0.500000
vt 0.627201 -0.500000
vt 0.881602 0.725000
vt 0.627201 0.725000
vt 0.754401 1.725000
vt 0.500000 0.500000
vt 0.754401 0.500000
vt 0.627201 -0.500000
vt 0.372799 0.725000
vt 0.627201 0.725000
vt 0.500000 1.725000
vt 0.754401 0.500000
vt 0.500000 0.500000
vt 0.372799 1.725000
vt 0.627201 0.500000
vt 0.372799 0.500000
vt 0.245599 -0.500000
vt 0.500000 0.725000
vt 0.245599 0.725000
vt 0.245599 1.725000
vt 0.500000 0.500000
vt 0.245599 0.500000
vt 0.627201 1.725000
vt 0.627201 0.500000
vt 0.372799 -0.500000
vt 0.627201 0.725000
vt 0.372799 0.725000
vt 0.245599 -0.500000
vt 0.881602 0.725000
vt 0.245599 0.725000
vt 0.245599 1.725000
vt 0.881602 0.500000
vt 0.245599 0.500000
vt 0.372799 1.725000
vt 0.627201 0.500000
vt 0.372799 0.500000
vt 0.500000 1.725000
vt 0.245599 0.500000
vt 0.500000 0.500000
vt 0.245599 -0.500000
vt 1.644806 0.725000
vt 0.245599 0.725000
vt 0.627201 -0.500000
vt 1.263204 0.725000
vt 0.627201 0.725000
vt 0.627201 1.725000
vt 1.263204 0.500000
vt 0.500000 1.725000
vt 0.754401 0.500000
vt 0.500000 0.500000
vt 0.245599 1.725000
vt 1.644806 0.500000
vt 0.245599 0.500000
vt 0.754401 1.725000
vt -0.772007 0.500000
vt 0.754401 0.500000
vt 0.245599 -0.500000
vt -1.280810 0.725000
vt 0.245599 0.725000
vt 0.500000 1.725000
vt 0.754401 0.500000
vt 0.500000 0.500000
vt 0.754401 1.725000
vt 0.754401 0.500000
vt 0.245599 1.725000
vt 0.245599 0.500000
vt 0.372799 -0.500000
vt -0.263204 0.725000
vt 0.372799 0.725000
vt 0.372799 1.725000
vt -0.263204 0.500000
vt 0.372799 0.500000
vt 0.754401 -0.500000
vt 1.008803 0.725000
vt 0.754401 0.725000
vt 0.245599 1.725000
vt 0.245599 0.500000
vt 0.754401 1.725000
vt 0.500000 0.500000
vt 0.754401 0.500000
vt 0.627201 0.725000
vt 0.754401 -0.500000
vt 1.390405 0.725000
vt 0.754401 0.725000
vt 0.754401 1.725000
vt 1.390405 0.500000
vt 0.754401 0.500000
vt 0.500000 -0.500000
vt 0.754401 0.725000
vt 0.500000 0.725000
vt 0.372799 0.500000
vt 0.627201 1.725000
vt 0.627201 0.500000
vt 0.627201 -0.500000
vt 1.008803 0.725000
vt 0.627201 0.725000
vt 0.627201 1.725000
vt 1.008803 0.500000
vt 0.627201 0.500000
vt 0.372799 -0.500000
vt -0.136004 0.725000
vt 0.372799 0.725000
vt -0.008803 0.500000
vt 0.245599 1.725000
vt 0.245599 0.500000
vt 0.372799 0.725000
vt 0.627201 -0.500000
vt 0.627201 0.725000
vt 0.245599 1.725000
vt 1.263204 0.500000
vt 0.245599 0.500000
vt 0.245599 -0.500000
vt 1.263204 0.725000
vt 0.245599 0.725000
vt 1.008803 0.725000
vt 0.500000 0.725000
vt 0.245599 -0.500000
vt 0.245599 0.725000
vt 0.754401 1.725000
vt 0.754401 1.725000
vt 0.500000 -0.500000
vt 1.008803 1.725000
vt 0.627201 1.725000
vt -0.136004 1.725000
vt 0.118398 -0.500000
vt 0.118398 1.725000
vt 0.881602 1.725000
vt 0.881602 -0.500000
vt 0.500000 1.725000
vt 0.372799 -0.500000
vt 0.754401 1.725000
vt 0.627201 1.725000
vt 0.500000 -0.500000
vt 0.500000 1.725000
vt 0.627201 -0.500000
vt 0.881602 -0.500000
vt 0.881602 1.725000
vt 0.245599 1.725000
vt 1.644806 -0.500000
vt 1.263204 -0.500000
vt 1.263204 1.725000
vt 0.754401 1.725000
vt 1.644806 1.725000
vt -0.772007 1.725000
vt -1.280810 -0.500000
vt 0.754401 1.725000
vt -0.263204 -0.500000
vt -0.263204 1.725000
vt 1.008803 -0.500000
vt 0.500000 1.725000
vt 0.627201 -0.500000
vt 1.390405 -0.500000
vt 1.390405 1.725000
vt 0.754401 -0.500000
vt 0.372799 1.725000
vt 1.008803 -0.500000
vt 1.008803 1.725000
vt -0.136004 -0.500000
vt -0.008803 1.725000
vt 0.372799 -0.500000
vt 1.263204 1.725000
vt 1.263204 -0.500000
vt 1.008803 -0.500000
vt 0.500000 -0.500000
vn -1.0000 0.0000 0.0000
vn 1.0000 0.0000 -0.0000
vn 0.0000 0.0000 -1.0000
vn 0.0000 0.0000 1.0000
usemtl Material
s off
f 77/1/1 5/2/1 79/3/1
f 4/4/2 80/5/2 78/6/2
f 97/7/2 11/8/2 98/9/2
f 99/10/3 104/11/3 100/12/3
f 15/13/4 13/14/4 12/15/4
f 90/16/2 95/17/2 89/18/2
f 35/19/3 18/20/3 33/21/3
f 39/22/4 16/23/4 38/24/4
f 32/25/3 23/26/3 34/27/3
f 37/28/4 20/29/4 36/30/4
f 24/31/2 26/32/2 25/33/2
f 19/34/3 27/35/3 18/36/3
f 31/37/1 28/38/1 30/39/1
f 22/40/3 30/41/3 23/42/3
f 43/43/2 33/44/2 42/45/2
f 47/46/1 34/47/1 46/48/1
f 36/49/4 38/24/4 37/50/4
f 83/51/2 13/52/2 84/53/2
f 63/54/4 42/55/4 62/56/4
f 68/57/3 40/58/3 67/59/3
f 41/60/3 45/61/3 40/62/3
f 49/63/4 51/64/4 50/65/4
f 56/66/2 52/67/2 55/68/2
f 46/69/4 55/70/4 47/71/4
f 48/72/3 53/73/3 45/61/3
f 57/74/1 59/75/1 58/76/1
f 60/77/1 50/78/1 59/79/1
f 75/80/2 64/81/2 76/82/2
f 72/83/1 62/84/1 71/85/1
f 66/86/3 67/87/3 65/88/3
f 61/89/2 65/88/2 64/90/2
f 54/91/3 58/76/3 53/92/3
f 1/93/3 71/94/3 3/95/3
f 80/96/4 70/97/4 78/98/4
f 76/99/2 73/100/2 75/101/2
f 44/102/1 79/3/1 2/103/1
f 69/104/4 74/105/4 70/106/4
f 44/107/3 1/93/3 3/95/3
f 25/108/2 84/109/2 24/110/2
f 17/111/1 81/112/1 16/113/1
f 92/114/4 85/115/4 91/116/4
f 87/117/1 85/118/1 86/119/1
f 15/120/4 91/121/4 14/122/4
f 82/123/3 89/124/3 81/125/3
f 87/126/1 94/127/1 88/128/1
f 95/129/3 94/130/3 93/131/3
f 11/132/4 9/133/4 8/134/4
f 29/135/1 100/136/1 28/137/1
f 21/138/2 98/139/2 20/140/2
f 9/133/4 101/141/4 8/134/4
f 101/142/1 104/143/1 103/144/1
f 77/1/1 6/145/1 5/2/1
f 4/4/2 7/146/2 80/5/2
f 97/7/2 10/147/2 11/8/2
f 99/10/3 103/148/3 104/11/3
f 15/13/4 14/149/4 13/14/4
f 90/16/2 96/150/2 95/17/2
f 35/19/3 19/151/3 18/20/3
f 39/22/4 17/152/4 16/23/4
f 32/25/3 22/153/3 23/26/3
f 37/28/4 21/154/4 20/29/4
f 24/31/2 27/155/2 26/32/2
f 19/34/3 26/156/3 27/35/3
f 31/37/1 29/157/1 28/38/1
f 22/40/3 31/158/3 30/41/3
f 43/43/2 35/159/2 33/44/2
f 47/46/1 32/160/1 34/47/1
f 36/49/4 39/22/4 38/24/4
f 83/51/2 12/161/2 13/52/2
f 63/54/4 43/162/4 42/55/4
f 68/57/3 41/163/3 40/58/3
f 41/60/3 48/72/3 45/61/3
f 49/63/4 52/164/4 51/64/4
f 56/66/2 51/165/2 52/67/2
f 46/69/4 56/166/4 55/70/4
f 48/72/3 54/167/3 53/73/3
f 57/74/1 60/168/1 59/75/1
f 60/77/1 49/169/1 50/78/1
f 75/80/2 61/170/2 64/81/2
f 72/83/1 63/171/1 62/84/1
f 66/86/3 68/172/3 67/87/3
f 61/89/2 66/86/2 65/88/2
f 54/91/3 57/74/3 58/76/3
f 1/93/3 72/173/3 71/94/3
f 80/96/4 69/174/4 70/97/4
f 76/99/2 74/175/2 73/100/2
f 44/102/1 77/1/1 79/3/1
f 69/104/4 73/176/4 74/105/4
f 44/107/3 2/177/3 1/93/3
f 25/108/2 83/178/2 84/109/2
f 17/111/1 82/179/1 81/112/1
f 92/114/4 86/180/4 85/115/4
f 87/117/1 88/181/1 85/118/1
f 15/120/4 92/182/4 91/121/4
f 82/123/3 90/183/3 89/124/3
f 87/126/1 93/184/1 94/127/1
f 95/129/3 96/185/3 94/130/3
f 11/132/4 10/186/4 9/133/4
f 29/135/1 99/187/1 100/136/1
f 21/138/2 97/188/2 98/139/2
f 9/133/4 102/189/4 101/141/4
f 101/142/1 102/190/1 104/143/1
