# Blender v2.79 (sub 0) OBJ File: 'north_none_1.blend'
# www.blender.org
mtllib north_none_1.mtl
o Room
v 0.500000 0.000000 -3.000000
v -0.500000 0.000000 -5.000000
v 0.500000 0.000000 -5.000000
v 0.500000 2.450000 -5.000000
v -0.500000 2.450000 -5.000000
v 1.500000 0.000000 -4.000000
v 1.500000 2.450000 -4.000000
v -2.500000 0.000000 -2.500000
v -2.500000 2.450000 -2.500000
v -1.500000 0.000000 1.000000
v -1.500000 2.450000 1.000000
v 1.500000 2.450000 1.000000
v 1.500000 0.000000 1.000000
v -2.500000 0.000000 2.000000
v -2.500000 2.450000 2.000000
v 2.500000 0.000000 2.000000
v 2.500000 2.450000 2.000000
v 0.500000 2.450000 2.000000
v -0.500000 2.450000 2.000000
v 0.500000 0.000000 2.000000
v -0.500000 0.000000 2.000000
v -0.500000 2.450000 3.000000
v -0.500000 0.000000 3.000000
v 0.500000 2.450000 -3.000000
v 0.500000 0.000000 3.000000
v 0.500000 2.450000 3.000000
v 4.000000 2.450000 -2.500000
v 4.000000 0.000000 -2.500000
v 3.000000 0.000000 -2.500000
v 3.000000 2.450000 -2.500000
v 3.000000 2.450000 3.000000
v 3.000000 0.000000 3.000000
v 4.000000 2.450000 4.000000
v 4.000000 0.000000 4.000000
v -3.000000 2.450000 3.000000
v -3.000000 0.000000 3.000000
v -3.999999 0.000000 4.000000
v -3.999999 2.450000 4.000000
v -3.000000 2.450000 -3.000000
v -3.000000 0.000000 -3.000000
v -4.000000 2.450000 -4.000000
v -4.000000 0.000000 -4.000000
v -0.500000 0.000000 -4.000000
v -0.500000 2.450000 -4.000000
v -1.500000 0.000000 -1.500000
v -1.500000 2.450000 -1.500000
v 1.000000 2.450000 -2.500000
v 1.000000 0.000000 -2.500000
v -0.000000 0.000000 -1.500000
v -0.000000 2.450000 -1.500000
v 1.000000 0.000000 0.500000
v 1.000000 2.450000 0.500000
v 0.000000 0.000000 0.500000
v 0.000000 2.450000 0.500000
v 2.500000 2.450000 -3.000000
v 2.500000 0.000000 -3.000000
v 4.000000 2.450000 -4.000000
v 4.000000 0.000000 -4.000000
v 4.000000 2.450000 -3.000000
v 4.000000 0.000000 -3.000000
vt 0.754401 0.500000
vt 0.500000 1.725000
vt 0.500000 0.500000
vt 0.627201 1.725000
vt 1.008803 0.500000
vt 0.627201 0.500000
vt 0.372799 1.725000
vt -0.136004 0.500000
vt 0.372799 0.500000
vt 1.644806 0.500000
vt 0.500000 1.725000
vt 0.500000 0.500000
vt -1.026408 0.500000
vt 0.245599 1.725000
vt 0.245599 0.500000
vt 0.627201 1.725000
vt 1.136004 0.500000
vt 0.627201 0.500000
vt 0.245599 -0.500000
vt 0.500000 0.725000
vt 0.245599 0.725000
vt 0.245599 1.725000
vt 0.500000 0.500000
vt 0.245599 0.500000
vt 0.627201 -0.500000
vt 1.390405 0.725000
vt 0.627201 0.725000
vt 0.881602 0.725000
vt 0.372799 -0.500000
vt 0.372799 0.725000
vt 0.245599 -0.500000
vt 0.881602 0.725000
vt 0.245599 0.725000
vt 0.500000 1.725000
vt 0.245599 0.500000
vt 0.500000 0.500000
vt 0.245599 -0.500000
vt 1.644806 0.725000
vt 0.245599 0.725000
vt 0.627201 -0.500000
vt 1.263204 0.725000
vt 0.627201 0.725000
vt 2.153609 0.725000
vt 0.500000 -0.500000
vt 0.500000 0.725000
vt 0.245599 -0.500000
vt -1.280810 0.725000
vt 0.245599 0.725000
vt -1.535211 0.500000
vt 0.500000 1.725000
vt 0.500000 0.500000
vt 0.627201 -0.500000
vt -0.263204 0.725000
vt 0.627201 0.725000
vt -0.517606 0.725000
vt 0.372799 -0.500000
vt 0.372799 0.725000
vt -1.535211 0.725000
vt 0.500000 -0.500000
vt 0.500000 0.725000
vt -0.263204 0.500000
vt 0.245599 1.725000
vt 0.245599 0.500000
vt 0.754401 1.725000
vt 1.390405 0.500000
vt 0.754401 0.500000
vt 1.263204 0.500000
vt 0.372799 1.725000
vt 0.372799 0.500000
vt -0.136004 0.500000
vt 0.627201 1.725000
vt 0.627201 0.500000
vt 0.627201 1.725000
vt 1.008803 0.500000
vt 0.627201 0.500000
vt -0.008803 0.500000
vt 0.245599 1.725000
vt 0.245599 0.500000
vt 0.372799 -0.500000
vt 1.008803 0.725000
vt 0.372799 0.725000
vt 0.245599 -0.500000
vt 1.517606 0.725000
vt 0.245599 0.725000
vt 0.500000 0.725000
vt 0.245599 -0.500000
vt 0.245599 0.725000
vt 0.754401 1.725000
vt 1.008803 1.725000
vt -0.136004 1.725000
vt 1.644806 1.725000
vt -1.026408 1.725000
vt 1.136004 1.725000
vt 0.500000 -0.500000
vt 0.500000 1.725000
vt 1.390405 -0.500000
vt 0.881602 -0.500000
vt 0.881602 -0.500000
vt 0.245599 1.725000
vt 1.644806 -0.500000
vt 1.263204 -0.500000
vt 2.153609 -0.500000
vt -1.280810 -0.500000
vt -1.535211 1.725000
vt -0.263204 -0.500000
vt -0.517606 -0.500000
vt -1.535211 -0.500000
vt -0.263204 1.725000
vt 1.390405 1.725000
vt 1.263204 1.725000
vt -0.136004 1.725000
vt 1.008803 1.725000
vt -0.008803 1.725000
vt 1.008803 -0.500000
vt 1.517606 -0.500000
vt 0.500000 -0.500000
vn 1.0000 0.0000 -0.0000
vn 0.0000 0.0000 -1.0000
vn -1.0000 0.0000 0.0000
vn 0.0000 0.0000 1.0000
usemtl Material
s off
f 2/1/1 44/2/1 43/3/1
f 55/4/2 60/5/2 56/6/2
f 50/7/1 53/8/1 49/9/1
f 8/10/1 15/11/1 14/12/1
f 16/13/3 55/14/3 56/15/3
f 18/16/2 16/17/2 20/18/2
f 23/19/1 19/20/1 22/21/1
f 26/22/3 20/23/3 25/24/3
f 10/25/4 12/26/4 11/27/4
f 19/28/2 14/29/2 15/30/2
f 36/31/4 22/32/4 35/33/4
f 27/34/4 29/35/4 28/36/4
f 32/37/1 30/38/1 31/39/1
f 25/40/4 31/41/4 26/42/4
f 27/43/3 34/44/3 33/45/3
f 40/46/3 35/47/3 39/48/3
f 37/49/2 33/50/2 34/51/2
f 1/52/2 39/53/2 24/54/2
f 41/55/4 43/56/4 44/57/4
f 38/58/1 42/59/1 41/60/1
f 1/61/3 4/62/3 3/63/3
f 11/64/3 45/65/3 10/66/3
f 48/67/4 9/68/4 8/69/4
f 51/70/3 47/71/3 48/72/3
f 46/73/2 49/74/2 45/75/2
f 53/76/2 52/77/2 51/78/2
f 6/79/4 57/80/4 7/81/4
f 13/82/1 7/83/1 12/84/1
f 57/85/3 60/86/3 59/87/3
f 2/1/1 5/88/1 44/2/1
f 55/4/2 59/89/2 60/5/2
f 50/7/1 54/90/1 53/8/1
f 8/10/1 9/91/1 15/11/1
f 16/13/3 17/92/3 55/14/3
f 18/16/2 17/93/2 16/17/2
f 23/19/1 21/94/1 19/20/1
f 26/22/3 18/95/3 20/23/3
f 10/25/4 13/96/4 12/26/4
f 19/28/2 21/97/2 14/29/2
f 36/31/4 23/98/4 22/32/4
f 27/34/4 30/99/4 29/35/4
f 32/37/1 29/100/1 30/38/1
f 25/40/4 32/101/4 31/41/4
f 27/43/3 28/102/3 34/44/3
f 40/46/3 36/103/3 35/47/3
f 37/49/2 38/104/2 33/50/2
f 1/52/2 40/105/2 39/53/2
f 41/55/4 42/106/4 43/56/4
f 38/58/1 37/107/1 42/59/1
f 1/61/3 24/108/3 4/62/3
f 11/64/3 46/109/3 45/65/3
f 48/67/4 47/110/4 9/68/4
f 51/70/3 52/111/3 47/71/3
f 46/73/2 50/112/2 49/74/2
f 53/76/2 54/113/2 52/77/2
f 6/79/4 58/114/4 57/80/4
f 13/82/1 6/115/1 7/83/1
f 57/85/3 58/116/3 60/86/3
