# Blender v2.79 (sub 0) OBJ File: 'north_east_none_2.blend'
# www.blender.org
mtllib material.mtl
o Room
v 0.500000 0.000000 -5.000000
v 0.500000 2.450000 -5.000000
v -0.500000 0.000000 -5.000000
v -0.500000 2.450000 -5.000000
v 5.000000 2.450000 0.500000
v 5.000000 2.450000 -0.500000
v 5.000000 0.000000 -0.500000
v 5.000000 0.000000 0.500000
v 4.500000 2.450000 0.500000
v -4.000000 0.000000 -4.500000
v 4.500000 2.450000 -0.500000
v 4.500000 0.000000 0.500000
v -0.500000 0.000000 -4.000000
v -0.500000 2.450000 -4.000000
v 0.500000 0.000000 -3.000000
v 0.500000 2.450000 -3.000000
v -4.000000 0.000000 -4.000000
v -4.000000 2.450000 -4.000000
v -1.500000 0.000000 -3.000000
v -1.500000 2.450000 -3.000000
v -1.500000 0.000000 -4.000000
v -1.500000 2.450000 -4.000000
v -1.500000 2.450000 -4.500000
v -1.500000 0.000000 -4.500000
v -4.500000 0.000000 0.000000
v -4.500000 2.450000 0.000000
v -1.500000 0.000000 0.000000
v -1.500000 2.450000 0.000000
v 2.500000 0.000000 -2.500000
v 2.500000 2.450000 -2.500000
v -3.500000 2.450000 0.000000
v -3.500000 0.000000 0.000000
v -2.500000 2.450000 0.000000
v -2.500000 0.000000 0.000000
v -3.500000 2.450000 4.500000
v -3.500000 0.000000 4.500000
v -2.500000 2.450000 3.500000
v -2.500000 0.000000 3.500000
v 4.500000 2.450000 4.500000
v 4.500000 0.000000 4.500000
v -0.500000 2.450000 3.500000
v -0.500000 0.000000 3.500000
v -0.500000 2.450000 2.500000
v -0.500000 0.000000 2.500000
v 0.500000 2.450000 2.500000
v 0.500000 0.000000 2.500000
v 0.500000 2.450000 3.500000
v 0.500000 0.000000 3.500000
v 3.500000 2.450000 3.500000
v 3.500000 0.000000 3.500000
v -4.000000 2.450000 -4.500000
v -4.500000 2.450000 -4.000000
v -1.000000 2.450000 -2.000000
v -1.000000 0.000000 -2.000000
v -2.000000 2.450000 2.500000
v -2.000000 0.000000 2.500000
v -2.000000 2.450000 0.500000
v -2.000000 0.000000 0.500000
v -1.000000 2.450000 0.500000
v -1.000000 0.000000 0.500000
v 1.500000 0.000000 -2.500000
v -0.500000 0.000000 -2.000000
v 3.000000 2.450000 2.500000
v 3.000000 0.000000 2.500000
v 3.000000 2.450000 -2.500000
v 3.000000 0.000000 -2.500000
v -0.500000 2.450000 -2.000000
v 1.500000 2.450000 -2.500000
v 2.500000 0.000000 -3.500000
v 2.500000 2.450000 -3.500000
v 1.500000 0.000000 -4.500000
v 1.500000 2.450000 -4.500000
v 4.500000 0.000000 -4.500000
v 4.500000 2.450000 -4.500000
v 4.500000 0.000000 -0.500000
v 3.500000 0.000000 -3.500000
v 3.500000 2.450000 -3.500000
v -4.500000 0.000000 -4.000000
v -0.500000 0.000000 -2.500000
v -0.500000 2.450000 -2.500000
vt 0.627201 1.725000
vt 0.754401 0.500000
vt 0.627201 0.500000
vt 0.627201 -0.500000
vt 0.118398 0.725000
vt 0.627201 0.725000
vt 0.627201 1.725000
vt 0.500000 0.500000
vt 0.627201 0.500000
vt 0.627201 -0.500000
vt 0.754401 0.725000
vt 0.627201 0.725000
vt -0.008803 0.725000
vt 0.245599 -0.500000
vt 0.245599 0.725000
vt 0.245599 -0.500000
vt -0.263204 0.725000
vt 0.245599 0.725000
vt 0.372799 1.725000
vt 0.118398 0.500000
vt 0.372799 0.500000
vt 0.500000 1.725000
vt 0.627201 0.500000
vt 0.500000 0.500000
vt 0.500000 1.725000
vt -0.517606 0.500000
vt 0.500000 0.500000
vt 0.245599 -0.500000
vt -0.517606 0.725000
vt 0.245599 0.725000
vt 0.627201 1.725000
vt 0.881602 0.500000
vt 0.627201 0.500000
vt 0.627201 0.725000
vt 0.372799 -0.500000
vt 0.372799 0.725000
vt 0.627201 0.725000
vt 0.372799 -0.500000
vt 0.372799 0.725000
vt 0.500000 1.725000
vt -0.644806 0.500000
vt 0.500000 0.500000
vt 0.500000 -0.500000
vt -0.390405 0.725000
vt 0.500000 0.725000
vt 0.627201 1.725000
vt 2.662412 0.500000
vt 0.627201 0.500000
vt 0.372799 -0.500000
vt 0.881602 0.725000
vt 0.372799 0.725000
vt 0.627201 -0.500000
vt 0.881602 0.725000
vt 0.627201 0.725000
vt 0.372799 -0.500000
vt -0.008803 0.725000
vt 0.372799 0.725000
vt 0.372799 -0.500000
vt 0.118398 0.725000
vt 0.372799 0.725000
vt 0.627201 -0.500000
vt 1.390405 0.725000
vt 0.627201 0.725000
vt 0.627201 -0.500000
vt 2.408010 0.725000
vt 0.627201 0.725000
vt -0.644806 0.500000
vt 0.372799 1.725000
vt 0.372799 0.500000
vt 0.372799 -0.500000
vt 0.881602 0.725000
vt 0.372799 0.725000
vt 0.500000 -0.500000
vt 0.754402 0.725000
vt 0.500000 0.725000
vt 0.245599 -0.500000
vt 0.372799 0.725000
vt 0.245599 0.725000
vt 0.627201 1.725000
vt 1.263204 0.500000
vt 0.627201 0.500000
vt 0.372799 1.725000
vt 1.644806 0.500000
vt 0.372799 0.500000
vt 0.627201 1.725000
vt 0.500000 0.500000
vt 0.627201 0.500000
vt 0.245599 1.725000
vt 0.118398 0.500000
vt 0.245599 0.500000
vt 0.627201 -0.500000
vt 1.136003 0.725000
vt 0.627201 0.725000
vt 0.372799 -0.500000
vt 1.136004 0.725000
vt 0.372799 0.725000
vt 0.627201 -0.500000
vt -0.390405 0.725000
vt 0.627201 0.725000
vt 0.627201 1.725000
vt 0.881602 0.500000
vt 0.627201 0.500000
vt 0.500000 1.725000
vt 0.372799 0.500000
vt 0.627201 1.725000
vt -0.008803 0.500000
vt 0.372799 -0.500000
vt 1.008803 0.725000
vt 0.372799 0.725000
vt 0.372799 1.725000
vt -0.136003 0.500000
vt 0.372799 0.500000
vt 0.754401 1.725000
vt 0.118398 -0.500000
vt 0.754401 -0.500000
vt -0.008803 -0.500000
vt -0.263204 -0.500000
vt 0.118398 1.725000
vt -0.517606 1.725000
vt -0.517606 -0.500000
vt 0.881602 1.725000
vt 0.627201 -0.500000
vt 0.627201 -0.500000
vt -0.644806 1.725000
vt -0.390405 -0.500000
vt 2.662412 1.725000
vt 0.881602 -0.500000
vt 0.881602 -0.500000
vt -0.008803 -0.500000
vt 0.118398 -0.500000
vt 1.390405 -0.500000
vt 2.408010 -0.500000
vt -0.644806 1.725000
vt 0.881602 -0.500000
vt 0.754402 -0.500000
vt 0.372799 -0.500000
vt 1.263204 1.725000
vt 1.644806 1.725000
vt 0.500000 1.725000
vt 0.118398 1.725000
vt 1.136003 -0.500000
vt 1.136004 -0.500000
vt -0.390405 -0.500000
vt 0.881602 1.725000
vt 0.372799 1.725000
vt -0.008803 1.725000
vt 1.008803 -0.500000
vt -0.136003 1.725000
vn 0.0000 0.0000 -1.0000
vn 1.0000 0.0000 0.0000
vn -0.0000 0.0000 1.0000
vn -1.0000 0.0000 -0.0000
usemtl Material
s off
f 9/1/1 8/2/1 12/3/1
f 15/4/1 20/5/1 16/6/1
f 51/7/2 17/8/2 10/9/2
f 75/10/3 6/11/3 11/12/3
f 14/13/2 3/14/2 4/15/2
f 1/16/4 16/17/4 2/18/4
f 14/19/3 21/20/3 13/21/3
f 22/22/4 24/23/4 21/24/4
f 52/25/2 25/26/2 78/27/2
f 19/28/4 28/29/4 20/30/4
f 30/31/4 69/32/4 29/33/4
f 28/34/1 34/35/1 33/36/1
f 31/37/1 25/38/1 26/39/1
f 31/40/2 36/41/2 32/42/2
f 34/43/4 37/44/4 33/45/4
f 35/46/1 40/47/1 36/48/1
f 38/49/3 41/50/3 37/51/3
f 42/52/2 43/53/2 41/54/2
f 44/55/1 55/56/1 43/57/1
f 46/58/4 47/59/4 45/60/4
f 48/61/3 49/62/3 47/63/3
f 50/64/2 77/65/2 49/66/2
f 40/67/4 9/68/4 12/69/4
f 56/70/2 57/71/2 55/72/2
f 58/73/3 59/74/3 57/75/3
f 54/76/3 67/77/3 53/78/3
f 45/79/1 64/80/1 46/81/1
f 63/82/4 66/83/4 64/84/4
f 80/85/2 62/86/2 79/87/2
f 65/88/3 29/89/3 66/90/3
f 61/91/2 72/92/2 68/93/2
f 71/94/3 74/95/3 72/96/3
f 73/97/4 11/98/4 74/99/4
f 70/100/1 76/101/1 69/102/1
f 18/103/3 78/104/3 17/8/3
f 23/105/3 10/106/3 24/23/3
f 60/107/2 53/108/2 59/109/2
f 68/110/3 79/111/3 61/112/3
f 9/1/1 5/113/1 8/2/1
f 15/4/1 19/114/1 20/5/1
f 51/7/2 18/103/2 17/8/2
f 75/10/3 7/115/3 6/11/3
f 14/13/2 13/116/2 3/14/2
f 1/16/4 15/117/4 16/17/4
f 14/19/3 22/118/3 21/20/3
f 22/22/4 23/105/4 24/23/4
f 52/25/2 26/119/2 25/26/2
f 19/28/4 27/120/4 28/29/4
f 30/31/4 70/121/4 69/32/4
f 28/34/1 27/122/1 34/35/1
f 31/37/1 32/123/1 25/38/1
f 31/40/2 35/124/2 36/41/2
f 34/43/4 38/125/4 37/44/4
f 35/46/1 39/126/1 40/47/1
f 38/49/3 42/127/3 41/50/3
f 42/52/2 44/128/2 43/53/2
f 44/55/1 56/129/1 55/56/1
f 46/58/4 48/130/4 47/59/4
f 48/61/3 50/131/3 49/62/3
f 50/64/2 76/132/2 77/65/2
f 40/67/4 39/133/4 9/68/4
f 56/70/2 58/134/2 57/71/2
f 58/73/3 60/135/3 59/74/3
f 54/76/3 62/136/3 67/77/3
f 45/79/1 63/137/1 64/80/1
f 63/82/4 65/138/4 66/83/4
f 80/85/2 67/139/2 62/86/2
f 65/88/3 30/140/3 29/89/3
f 61/91/2 71/141/2 72/92/2
f 71/94/3 73/142/3 74/95/3
f 73/97/4 75/143/4 11/98/4
f 70/100/1 77/144/1 76/101/1
f 18/103/3 52/145/3 78/104/3
f 23/105/3 51/146/3 10/106/3
f 60/107/2 54/147/2 53/108/2
f 68/110/3 80/148/3 79/111/3
