# Blender v2.79 (sub 0) OBJ File: 'north_south_none_1.blend'
# www.blender.org
mtllib north_south_none_1.mtl
o Room
v -2.000000 2.450000 4.000000
v 0.500000 0.000000 4.000000
v -0.500000 2.450000 4.000000
v -0.500000 0.006153 4.000000
v -0.500000 0.000000 -4.000000
v 0.500000 0.000000 -4.000000
v -2.000000 0.006153 4.000000
v -0.500000 2.450000 -4.000000
v 0.500000 2.450000 4.000000
v -0.500000 0.000000 -5.000000
v 0.500000 0.000000 -5.000000
v 0.500000 2.450000 -5.000000
v -0.500000 2.450000 -5.000000
v -2.000000 0.000000 2.000000
v 1.000000 0.000000 2.000000
v -2.000000 0.000000 2.500000
v -2.000000 0.000000 3.500000
v -2.000000 2.450000 2.500000
v -2.000000 2.450000 3.500000
v -4.000000 0.000000 2.500000
v -4.000000 0.000000 3.500000
v -4.000000 2.450000 2.500000
v -4.000000 2.450000 3.500000
v -3.000000 0.000000 2.500000
v -3.000000 0.000000 3.500000
v -3.000000 2.450000 3.500000
v -3.000000 2.450000 2.500000
v -4.000000 0.000000 -2.000001
v -4.000000 2.450000 -2.000001
v -3.000000 0.000000 -2.000000
v -3.000000 2.450000 -2.000000
v -2.000000 0.000000 -1.000000
v 2.000000 0.000000 -1.000000
v 2.000000 0.000000 -4.000000
v -2.000000 0.000000 -3.000000
v -2.000000 0.000000 -2.000000
v -2.000000 2.450000 -2.000000
v -2.000000 2.450000 -3.000000
v -4.000000 2.450000 -3.000000
v -3.000000 0.000000 -3.000000
v -3.000000 2.450000 -3.000000
v 1.000000 0.000000 4.000000
v 0.500000 0.000000 5.000000
v -0.500000 2.450000 5.000000
v -0.500000 0.000000 5.000000
v 0.500000 2.450000 5.000000
v -2.000000 2.450000 -1.000000
v 2.000000 2.450000 -1.000000
v 2.000000 2.450000 -4.000000
v 0.500000 2.450000 -4.000000
v -2.000000 2.450000 -4.000000
v -2.000000 0.000000 -4.000000
v 1.000000 2.450000 4.000000
v 1.000000 2.450000 2.000000
v -2.000000 2.450000 2.000000
v 2.000000 0.000000 -2.000000
v 2.000000 2.450000 -2.000000
v 2.000000 2.450000 -3.000000
v 2.000000 0.000000 -3.000000
v 4.000000 0.000000 -2.000000
v 4.000000 2.450000 -2.000000
v 4.000000 2.450000 -3.000000
v 4.000000 0.000000 -3.000000
v 3.000000 2.450000 -3.000000
v 3.000000 0.000000 -3.000000
v 3.000000 2.450000 -2.000000
v 3.000000 0.000000 -2.000000
v 4.000000 0.000000 1.000000
v 4.000000 2.450000 1.000000
v 3.000000 2.450000 1.000000
v 3.000000 0.000000 1.000000
v 3.000000 0.000000 -0.000000
v 3.000000 2.450000 -0.000000
v 4.000000 2.450000 -0.000000
v 4.000000 0.000000 -0.000000
v -3.000000 2.450000 1.000000
v -3.000000 0.000000 1.000000
v -4.000000 0.000000 1.000000
v -4.000000 2.450000 1.000000
v -3.000000 2.450000 0.000000
v -4.000000 0.000000 -0.000000
v -3.000000 0.000000 0.000000
v -4.000000 2.450000 -0.000000
v -4.000000 0.000000 -3.000000
vt 0.245599 -0.500000
vt 0.500000 0.725000
vt 0.245599 0.725000
vt 0.118398 0.500000
vt 0.245599 1.725000
vt 0.245599 0.500000
vt 0.500000 1.725000
vt 0.754401 0.500000
vt 0.500000 0.500000
vt 0.754401 0.500000
vt 0.500000 1.725000
vt 0.500000 0.500000
vt 0.500000 -0.500000
vt 1.263204 0.725000
vt 0.500000 0.725000
vt 0.500000 -0.500000
vt 0.245599 0.725000
vt 0.500000 0.725000
vt 0.372799 -0.496924
vt -0.008803 0.725000
vt 0.372799 0.725000
vt 0.500000 1.725000
vt 0.245599 0.500000
vt 0.500000 0.500000
vt 0.372799 1.725000
vt 0.118398 0.500000
vt 0.372799 0.500000
vt 0.500000 -0.500000
vt 1.008803 0.725000
vt 0.500000 0.725000
vt 0.500000 1.725000
vt 1.008803 0.500000
vt 0.500000 0.500000
vt 0.245599 -0.500000
vt -0.008803 0.725000
vt 0.500000 0.725000
vt 0.245599 -0.500000
vt 0.245599 0.725000
vt 0.754401 1.725000
vt 0.500000 0.500000
vt 0.754401 0.500000
vt 0.754401 0.500000
vt 0.500000 1.725000
vt 0.500000 0.500000
vt 0.500000 1.725000
vt 0.245599 0.500000
vt 0.500000 0.500000
vt 0.500000 -0.500000
vt -0.008803 0.725000
vt 0.500000 0.725000
vt 0.500000 0.503076
vt 0.245599 1.725000
vt 0.245599 0.500000
vt 0.500000 -0.500000
vt 0.245599 0.725000
vt 0.500000 0.725000
vt 1.008803 0.500000
vt 0.627201 1.725000
vt 0.627201 0.500000
vt 0.245599 1.725000
vt 0.500000 0.500000
vt 0.245599 0.500000
vt 0.500000 1.725000
vt 1.517606 0.500000
vt 0.500000 0.500000
vt 0.245599 -0.500000
vt 0.245599 0.725000
vt 0.372799 1.725000
vt -0.008803 0.500000
vt 0.372799 0.500000
vt 0.500000 0.503076
vt 0.627201 1.725000
vt 0.500000 1.725000
vt 0.372799 -0.500000
vt 0.372799 0.725000
vt 0.245599 1.725000
vt 0.500000 0.500000
vt 0.245599 0.500000
vt 0.245599 -0.500000
vt 0.500000 0.725000
vt 0.245599 0.725000
vt 0.500000 1.725000
vt 0.754401 0.500000
vt 0.500000 0.500000
vt 0.500000 1.725000
vt 0.754401 0.500000
vt 0.500000 -0.500000
vt 0.754401 0.725000
vt 0.500000 0.725000
vt 0.500000 -0.500000
vt 0.245599 0.725000
vt 0.500000 0.725000
vt 0.245599 0.500000
vt 0.500000 1.725000
vt 0.500000 0.500000
vt 0.500000 -0.500000
vt -0.008803 0.725000
vt 0.500000 0.725000
vt 0.500000 1.725000
vt -0.008803 0.500000
vt 0.500000 0.500000
vt 0.372799 1.725000
vt 0.754401 0.500000
vt 0.372799 0.500000
vt 0.372799 -0.500000
vt 0.754401 0.725000
vt 0.372799 0.725000
vt -1.280810 0.500000
vt 0.245599 1.725000
vt 0.245599 -0.500000
vt 0.245599 0.725000
vt 0.245599 1.725000
vt -1.280810 0.500000
vt 0.245599 0.500000
vt 0.500000 -0.500000
vt 0.118398 1.725000
vt 0.754401 1.725000
vt 0.754401 1.725000
vt 1.263204 -0.500000
vt -0.008803 -0.496924
vt 0.245599 1.725000
vt 0.118398 1.725000
vt 1.008803 -0.500000
vt 1.008803 1.725000
vt -0.008803 -0.500000
vt 0.500000 -0.500000
vt 0.500000 1.725000
vt 0.754401 1.725000
vt 0.245599 1.725000
vt -0.008803 -0.500000
vt 0.500000 1.725000
vt 0.245599 -0.500000
vt 1.008803 1.725000
vt 0.500000 1.725000
vt 1.517606 1.725000
vt -0.008803 1.725000
vt 0.627201 0.500000
vt 0.500000 -0.500000
vt 0.754401 1.725000
vt 0.754401 1.725000
vt 0.754401 -0.500000
vt 0.245599 -0.500000
vt -0.008803 -0.500000
vt -0.008803 1.725000
vt 0.754401 1.725000
vt 0.754401 -0.500000
vt -1.280810 1.725000
vt -1.280810 1.725000
vn 1.0000 0.0000 0.0000
vn 0.0000 0.0000 -1.0000
vn -1.0000 0.0000 0.0000
vn 0.0000 0.0000 1.0000
usemtl Material
s off
f 35/1/1 51/2/1 38/3/1
f 2/4/2 53/5/2 42/6/2
f 50/7/3 11/8/3 6/9/3
f 10/10/1 8/11/1 5/12/1
f 14/13/4 54/14/4 55/15/4
f 17/16/2 26/17/2 19/18/2
f 4/19/2 1/20/2 3/21/2
f 18/22/4 24/23/4 16/24/4
f 22/25/1 21/26/1 20/27/1
f 81/28/1 29/29/1 83/30/1
f 80/31/3 30/32/3 82/33/3
f 25/34/2 23/35/2 26/17/2
f 37/36/2 30/37/2 31/38/2
f 41/39/4 84/40/4 40/41/4
f 84/42/1 29/43/1 28/44/1
f 38/45/4 40/46/4 35/47/4
f 15/48/3 53/49/3 54/50/3
f 4/51/1 44/52/1 45/53/1
f 2/54/3 46/55/3 9/56/3
f 34/57/4 50/58/4 6/59/4
f 58/60/3 34/61/3 59/62/3
f 47/63/2 33/64/2 32/65/2
f 32/66/1 37/36/1 47/67/1
f 8/68/4 52/69/4 5/70/4
f 7/71/1 19/72/1 1/73/1
f 16/74/1 55/15/1 18/75/1
f 48/76/3 56/77/3 33/78/3
f 65/79/4 62/80/4 64/81/4
f 61/82/3 63/83/3 60/84/3
f 57/85/2 67/86/2 56/77/2
f 59/87/4 64/88/4 58/89/4
f 75/90/3 69/91/3 74/92/3
f 71/93/2 69/94/2 68/95/2
f 60/96/3 74/97/3 61/98/3
f 66/99/1 72/100/1 67/101/1
f 27/102/3 77/103/3 24/104/3
f 20/105/1 79/106/1 22/107/1
f 77/108/2 70/109/2 71/93/2
f 78/110/1 83/30/1 79/111/1
f 73/112/4 82/113/4 72/114/4
f 35/1/1 52/115/1 51/2/1
f 2/4/2 9/116/2 53/5/2
f 50/7/3 12/117/3 11/8/3
f 10/10/1 13/118/1 8/11/1
f 14/13/4 15/119/4 54/14/4
f 17/16/2 25/34/2 26/17/2
f 4/19/2 7/120/2 1/20/2
f 18/22/4 27/121/4 24/23/4
f 22/25/1 23/122/1 21/26/1
f 81/28/1 28/123/1 29/29/1
f 80/31/3 31/124/3 30/32/3
f 25/34/2 21/125/2 23/35/2
f 37/36/2 36/126/2 30/37/2
f 41/39/4 39/127/4 84/40/4
f 84/42/1 39/128/1 29/43/1
f 38/45/4 41/129/4 40/46/4
f 15/48/3 42/130/3 53/49/3
f 4/51/1 3/131/1 44/52/1
f 2/54/3 43/132/3 46/55/3
f 34/57/4 49/133/4 50/58/4
f 58/60/3 49/134/3 34/61/3
f 47/63/2 48/135/2 33/64/2
f 32/66/1 36/126/1 37/36/1
f 8/68/4 51/136/4 52/69/4
f 7/71/1 17/137/1 19/72/1
f 16/74/1 14/13/1 55/15/1
f 48/76/3 57/85/3 56/77/3
f 65/79/4 63/138/4 62/80/4
f 61/82/3 62/139/3 63/83/3
f 57/85/2 66/140/2 67/86/2
f 59/87/4 65/141/4 64/88/4
f 75/90/3 68/142/3 69/91/3
f 71/93/2 70/109/2 69/94/2
f 60/96/3 75/143/3 74/97/3
f 66/99/1 73/144/1 72/100/1
f 27/102/3 76/145/3 77/103/3
f 20/105/1 78/146/1 79/106/1
f 77/108/2 76/147/2 70/109/2
f 78/110/1 81/28/1 83/30/1
f 73/112/4 80/148/4 82/113/4
