# Blender v2.79 (sub 0) OBJ File: 'north_east_south_none_1.blend'
# www.blender.org
mtllib north_east_south_none_1.mtl
o Room
v 4.000000 0.000000 1.000000
v 4.000000 0.000000 -1.000000
v -1.000000 0.000000 1.000000
v -1.000000 2.450000 -4.000000
v 4.000000 2.450000 0.500000
v 4.000000 2.450000 -0.500000
v 4.000000 0.000000 -0.500000
v 4.000000 0.000000 0.500000
v -1.000000 2.450000 -0.500000
v -1.000000 2.450000 0.500000
v -1.000000 0.000000 0.500000
v -1.000000 0.000000 -0.500000
v 1.000000 0.000000 -1.000000
v -0.500000 0.000000 -4.000000
v 1.000000 0.000000 -4.000000
v 0.500000 0.000000 -4.000000
v 0.500000 0.000000 -5.000000
v 0.500000 2.450000 -5.000000
v -0.500000 0.000000 -5.000000
v -0.500000 2.450000 -5.000000
v 5.000000 2.450000 0.500000
v 5.000000 2.450000 -0.500000
v 5.000000 0.000000 -0.500000
v 5.000000 0.000000 0.500000
v -0.500000 0.000000 5.000000
v 0.500000 0.000000 5.000000
v -0.500000 2.450000 5.000000
v 0.500000 2.450000 5.000000
v -0.500000 2.450000 4.000000
v -0.500000 0.000000 4.000000
v 0.500000 0.000000 3.000000
v 0.500000 2.450000 3.000000
v -4.000000 2.450000 3.999999
v -4.000000 0.000000 3.999999
v -3.000000 0.000000 3.000000
v -3.000000 2.450000 3.000000
v -3.000000 2.450000 0.500000
v -3.000000 0.000000 0.500000
v -4.000000 2.450000 -0.500000
v -4.000000 0.000000 -0.500000
v -0.500000 2.450000 -4.000000
v 0.500000 2.450000 -4.000000
v 4.000000 2.450000 1.000000
v -1.000000 2.450000 1.000000
v 4.000000 2.450000 -1.000000
v 1.000000 2.450000 -1.000000
v 1.000000 2.450000 -4.000000
v -1.000000 0.000000 -4.000000
vt 0.372799 1.725000
vt 0.245598 0.500000
vt 0.372799 0.500000
vt 0.245599 -0.500000
vt 1.008803 0.725000
vt 0.245599 0.725000
vt 0.627201 -0.500000
vt 1.517606 0.725000
vt 0.627201 0.725000
vt 0.245599 -0.500000
vt 0.372799 0.725000
vt 0.245599 0.725000
vt 0.500000 -0.500000
vt -0.263204 0.725000
vt 0.500000 0.725000
vt 0.500000 -0.500000
vt 0.754401 0.725000
vt 0.500000 0.725000
vt 0.754401 0.500000
vt 0.500000 1.725000
vt 0.500000 0.500000
vt 0.754401 0.725000
vt 0.500000 -0.500000
vt 0.500000 0.725000
vt -0.263204 0.725000
vt 0.627201 -0.500000
vt 0.627201 0.725000
vt 0.500000 1.725000
vt 0.245599 0.500000
vt 0.500000 0.500000
vt 0.754401 0.725000
vt 0.245599 -0.500000
vt 0.245599 0.725000
vt 0.372799 -0.500000
vt -0.517606 0.725000
vt 0.372799 0.725000
vt 0.245599 -0.500000
vt -0.263204 0.725000
vt 0.245599 0.725000
vt -0.517606 0.725000
vt 0.245599 -0.500000
vt 0.245599 0.725000
vt 0.881602 0.725000
vt 0.245599 -0.500000
vt 0.245599 0.725000
vt 0.500000 -0.500000
vt 1.644807 0.725000
vt 0.500000 0.725000
vt 0.500000 1.725000
vt 0.754401 0.500000
vt 0.500000 0.500000
vt -0.772007 0.500000
vt 0.500000 1.725000
vt 0.500000 0.500000
vt 0.118398 0.725000
vt 0.245599 -0.500000
vt 0.245599 0.725000
vt 0.754401 -0.500000
vt 0.627201 0.725000
vt 0.754401 0.725000
vt 0.372799 -0.500000
vt 0.245599 0.725000
vt 0.372799 0.725000
vt 0.245598 1.725000
vt 1.008803 -0.500000
vt 1.517606 -0.500000
vt 0.372799 -0.500000
vt -0.263204 -0.500000
vt 0.754401 -0.500000
vt 0.754401 1.725000
vt 0.754401 -0.500000
vt -0.263204 -0.500000
vt 0.245599 1.725000
vt 0.754401 -0.500000
vt -0.517606 -0.500000
vt -0.263204 -0.500000
vt -0.517606 -0.500000
vt 0.881602 -0.500000
vt 1.644807 -0.500000
vt 0.754401 1.725000
vt -0.772007 1.725000
vt 0.118398 -0.500000
vt 0.627201 -0.500000
vt 0.245599 -0.500000
vn 0.0000 0.0000 1.0000
vn 1.0000 0.0000 -0.0000
vn -1.0000 0.0000 0.0000
vn 0.0000 0.0000 -1.0000
usemtl Material
s off
f 41/1/1 48/2/1 14/3/1
f 13/4/1 45/5/1 46/6/1
f 12/7/2 4/8/2 9/9/2
f 3/10/2 10/11/2 44/12/2
f 15/13/3 46/14/3 47/15/3
f 14/16/2 20/17/2 41/18/2
f 23/19/1 6/20/1 7/21/1
f 21/22/4 8/23/4 5/24/4
f 36/25/1 31/26/1 32/27/1
f 29/28/2 25/29/2 30/30/2
f 32/31/3 26/32/3 28/33/3
f 30/34/4 33/35/4 29/36/4
f 11/37/4 37/38/4 10/39/4
f 39/40/1 12/41/1 9/42/1
f 37/43/3 35/44/3 36/45/3
f 34/46/2 39/47/2 33/48/2
f 42/49/3 17/50/3 16/51/3
f 3/52/4 43/53/4 1/54/4
f 42/55/1 15/56/1 47/57/1
f 2/58/3 6/59/3 45/60/3
f 8/61/3 43/62/3 5/63/3
f 41/1/1 4/64/1 48/2/1
f 13/4/1 2/65/1 45/5/1
f 12/7/2 48/66/2 4/8/2
f 3/10/2 11/67/2 10/11/2
f 15/13/3 13/68/3 46/14/3
f 14/16/2 19/69/2 20/17/2
f 23/19/1 22/70/1 6/20/1
f 21/22/4 24/71/4 8/23/4
f 36/25/1 35/72/1 31/26/1
f 29/28/2 27/73/2 25/29/2
f 32/31/3 31/74/3 26/32/3
f 30/34/4 34/75/4 33/35/4
f 11/37/4 38/76/4 37/38/4
f 39/40/1 40/77/1 12/41/1
f 37/43/3 38/78/3 35/44/3
f 34/46/2 40/79/2 39/47/2
f 42/49/3 18/80/3 17/50/3
f 3/52/4 44/81/4 43/53/4
f 42/55/1 16/82/1 15/56/1
f 2/58/3 7/83/3 6/59/3
f 8/61/3 1/84/3 43/62/3
