# Blender v2.79 (sub 0) OBJ File: 'north_east_south_west_none_2.blend'
# www.blender.org
mtllib material.mtl
o Room
v 3.000000 2.450000 -3.000000
v -3.000000 2.450000 3.000000
v 3.000000 0.000000 -3.000000
v -3.000000 2.450000 -3.000000
v -3.000000 0.000000 -3.000000
v -0.500000 2.450000 3.000000
v 0.500000 2.450000 3.000000
v 0.500000 0.000000 3.000000
v -0.500000 0.000000 3.000000
v -3.000000 0.000000 -0.500000
v -3.000000 0.000000 0.500000
v -3.000000 2.450000 -0.500000
v -3.000000 2.450000 0.500000
v -0.500000 0.000000 -3.000000
v 0.500000 0.000000 -3.000000
v 0.500000 2.450000 -3.000000
v -0.500000 2.450000 -3.000000
v 3.000000 0.000000 -0.500000
v 3.000000 0.000000 0.500000
v 3.000000 2.450000 -0.500000
v 3.000000 2.450000 0.500000
v 5.000000 0.000000 -0.500000
v 5.000000 0.000000 0.500000
v 5.000000 2.450000 -0.500000
v 5.000000 2.450000 0.500000
v -0.500000 2.450000 5.000000
v 0.500000 2.450000 5.000000
v 0.500000 0.000000 5.000000
v -0.500000 0.000000 5.000000
v -5.000000 0.000000 -0.500000
v -5.000000 0.000000 0.500000
v -5.000000 2.450000 -0.500000
v -5.000000 2.450000 0.500000
v -0.500000 0.000000 -5.000000
v 0.500000 0.000000 -5.000000
v 0.500000 2.450000 -5.000000
v -0.500000 2.450000 -5.000000
v -3.000000 0.000000 3.000000
v 3.000000 2.450000 3.000000
v 3.000000 0.000000 3.000000
vt 0.372799 -0.500000
vt -0.263204 0.725000
vt 0.372799 0.725000
vt 0.627201 -0.500000
vt 1.263204 0.725000
vt 0.627201 0.725000
vt 0.372799 1.725000
vt -0.263204 0.500000
vt 0.372799 0.500000
vt 0.627201 1.725000
vt 1.263204 0.500000
vt 0.627201 0.500000
vt 0.245599 1.725000
vt 0.754401 0.500000
vt 0.245599 0.500000
vt 0.754401 0.500000
vt 0.245599 1.725000
vt 0.245599 0.500000
vt -0.263204 0.500000
vt 0.245599 1.725000
vt 0.245599 0.500000
vt -0.263204 0.725000
vt 0.245599 -0.500000
vt 0.245599 0.725000
vt -0.263204 0.500000
vt 0.245599 1.725000
vt 0.245599 0.500000
vt -0.263204 0.725000
vt 0.245599 -0.500000
vt 0.245599 0.725000
vt 0.245599 1.725000
vt 0.754401 0.500000
vt 0.245599 0.500000
vt 0.754401 0.500000
vt 0.245599 1.725000
vt 0.245599 0.500000
vt 0.245599 1.725000
vt 0.881602 0.500000
vt 0.245599 0.500000
vt -0.390405 0.500000
vt 0.245599 1.725000
vt 0.245599 0.500000
vt 1.263204 0.500000
vt 0.627201 1.725000
vt 0.627201 0.500000
vt 0.245599 -0.500000
vt 0.881602 0.725000
vt 0.245599 0.725000
vt -0.263204 -0.500000
vt 1.263204 -0.500000
vt -0.263204 1.725000
vt 1.263204 1.725000
vt 0.754401 1.725000
vt 0.754401 1.725000
vt -0.263204 1.725000
vt -0.263204 -0.500000
vt -0.263204 1.725000
vt -0.263204 -0.500000
vt 0.754401 1.725000
vt 0.754401 1.725000
vt 0.881602 1.725000
vt -0.390405 1.725000
vt 1.263204 1.725000
vt 0.881602 -0.500000
vn 0.0000 0.0000 -1.0000
vn 0.0000 0.0000 1.0000
vn -1.0000 -0.0000 0.0000
vn 1.0000 0.0000 0.0000
usemtl Material
s off
f 9/1/1 2/2/1 6/3/1
f 15/4/2 1/5/2 16/6/2
f 17/7/2 5/8/2 14/9/2
f 7/10/1 40/11/1 8/12/1
f 21/13/1 23/14/1 19/15/1
f 22/16/2 20/17/2 18/18/2
f 28/19/3 7/20/3 8/21/3
f 26/22/4 9/23/4 6/24/4
f 31/25/1 13/26/1 11/27/1
f 32/28/2 10/29/2 12/30/2
f 16/31/3 35/32/3 15/33/3
f 34/34/4 17/35/4 14/36/4
f 39/37/3 19/38/3 40/39/3
f 18/40/3 1/41/3 3/42/3
f 5/43/4 12/44/4 10/45/4
f 38/46/4 13/47/4 2/48/4
f 9/1/1 38/49/1 2/2/1
f 15/4/2 3/50/2 1/5/2
f 17/7/2 4/51/2 5/8/2
f 7/10/1 39/52/1 40/11/1
f 21/13/1 25/53/1 23/14/1
f 22/16/2 24/54/2 20/17/2
f 28/19/3 27/55/3 7/20/3
f 26/22/4 29/56/4 9/23/4
f 31/25/1 33/57/1 13/26/1
f 32/28/2 30/58/2 10/29/2
f 16/31/3 36/59/3 35/32/3
f 34/34/4 37/60/4 17/35/4
f 39/37/3 21/61/3 19/38/3
f 18/40/3 20/62/3 1/41/3
f 5/43/4 4/63/4 12/44/4
f 38/46/4 11/64/4 13/47/4
