# WaveFront *.obj file (generated by CINEMA 4D)

mtllib ./staircase.mtl

v -3.5 1.95000004768372 3.5
v -3.5 2 3.5
v 3.5 1.95000004768372 3.5
v 3.5 2 3.5
v 3.5 1.95000004768372 -3.5
v 3.5 2 -3.5
v -3.5 1.95000004768372 -3.5
v -3.5 2 -3.5
v -1 2 1.39999997615814
v 1 2 1.39999997615814
v 1 2 -1.5
v -1 2 -1.5
v -1 1.95000004768372 1.39999997615814
v 1 1.95000004768372 1.39999997615814
v 1 1.95000004768372 -1.5
v -1 1.95000004768372 -1.5
v -0.40000000596046 3.70000004768372 3
v -0.40000000596046 2 3
v 0.40000000596046 3.70000004768372 -3
v 0.40000000596046 2 -3
v -0.40000000596046 2 2.95000004768372
v -0.40000000596046 3.70000004768372 2.95000004768372
v -0.40000000596046 3.70000004768372 -2.95000004768372
v -0.40000000596046 2 -2.95000004768372
v 2.95000004768372 3.70000004768372 0.40000000596046
v 2.95000004768372 3.70000004768372 -0.40000000596046
v 2.95000004768372 2 -0.40000000596046
v -2.95000004768372 2 0.40000000596046
v -2.95000004768372 2 -0.40000000596046
v -2.95000004768372 3.70000004768372 -0.40000000596046
v 0.40000000596046 1.70000004768372 3
v 0.40000000596046 0 3
v 0.40000000596046 1.70000004768372 -3
v -0.40000000596046 1.70000004768372 2.95000004768372
v 0.40000000596046 1.70000004768372 -2.95000004768372
v -0.40000000596046 0 -2.95000004768372
v 3 0 0.40000000596046
v 3 1.70000004768372 -0.40000000596046
v 3 0 -0.40000000596046
v -3 1.70000004768372 0.40000000596046
v -3 0 0.40000000596046
v -3 1.70000004768372 -0.40000000596046
v -3 0 -0.40000000596046
v 2.95000004768372 1.70000004768372 0.40000000596046
v 2.95000004768372 0 0.40000000596046
v 2.95000004768372 1.70000004768372 -0.40000000596046
v 2.95000004768372 0 -0.40000000596046
v -3 0 3
v -3 4 3
v 3 0 3
v 3 4 3
v 3 0 -3
v 3 4 -3
v -3 0 -3
v -3 4 -3
v -2.95000004768372 4 2.95000004768372
v -2.95000004768372 4 -2.95000004768372
v -0.40000000596046 0 -3
v 0.40000000596046 0 -3
v 0.40000000596046 0 2.95000004768372
v -0.40000000596046 0 3
v -0.40000000596046 0 2.95000004768372
v -2.95000004768372 0 0.40000000596046
v 0.40000000596046 2 3
v 3 2 0.40000000596046
v 0.40000000596046 3.70000004768372 3
v 3 3.70000004768372 -0.40000000596046
v 3 1.70000004768372 0.40000000596046
v -0.40000000596046 1.70000004768372 3
v 3 2 -0.40000000596046
v 3 3.70000004768372 0.40000000596046
v -0.40000000596046 2 -3
v -3 3.70000004768372 0.40000000596046
v -0.40000000596046 3.70000004768372 -3
v -3 3.70000004768372 -0.40000000596046
v -3 2 -0.40000000596046
v -3 2 0.40000000596046
v -0.40000000596046 1.70000004768372 -3
v 2.95000004768372 4 2.95000004768372
v 2.95000004768372 4 -2.95000004768372
v 2.95000004768372 0 -2.95000004768372
v -2.95000004768372 0 2.95000004768372
v 2.95000004768372 0 2.95000004768372
v -2.95000004768372 0 -2.95000004768372
v -2.95000004768372 0 -0.40000000596046
v 0.40000000596046 0 -2.95000004768372
v 0.40000000596046 2 2.95000004768372
v 0.40000000596046 3.70000004768372 2.95000004768372
v 0.40000000596046 1.70000004768372 2.95000004768372
v 2.95000004768372 2 0.40000000596046
v 0.40000000596046 3.70000004768372 -2.95000004768372
v 0.40000000596046 2 -2.95000004768372
v -2.95000004768372 3.70000004768372 0.40000000596046
v -2.95000004768372 1.70000004768372 0.40000000596046
v -0.40000000596046 1.70000004768372 -2.95000004768372
v -2.95000004768372 1.70000004768372 -0.40000000596046
v 0.89999997615814 0.89999997615814 -0.40000000596046
v -0.89999997615814 1.10000002384186 -0.60000002384186
v 0.89999997615814 1 -0.40000000596046
v -0.89999997615814 1 -0.60000002384186
v -0.10000000149012 1.10000002384186 -0.60000002384186
v -0.10000000149012 1 -0.60000002384186
v -0.10000000149012 1.10000002384186 -0.40000000596046
v 0.10000000149012 0.69999998807907 0
v 0.10000000149012 0 0.60000002384186
v -0.89999997615814 1.10000002384186 -0.40000000596046
v 0.89999997615814 0 -0.40000000596046
v -0.89999997615814 1.20000004768372 -0.40000000596046
v 0.89999997615814 0.80000001192093 -0.20000000298023
v 0.10000000149012 0 -0.60000002384186
v -0.10000000149012 1.20000004768372 -0.40000000596046
v 0.10000000149012 0 -0.40000000596046
v -0.10000000149012 1.20000004768372 -0.20000000298023
v -0.10000000149012 0 -0.20000000298023
v -0.89999997615814 0 -0.20000000298023
v -0.89999997615814 1.20000004768372 -0.20000000298023
v 0.89999997615814 0 0.60000002384186
v -0.89999997615814 1.29999995231628 -0.20000000298023
v 0.89999997615814 0 -0.20000000298023
v 0.89999997615814 0 0.40000000596046
v -0.10000000149012 1.29999995231628 -0.20000000298023
v 0.10000000149012 0 0.40000000596046
v -0.10000000149012 1.29999995231628 0
v -0.10000000149012 0 0
v -0.89999997615814 0 0
v -0.89999997615814 1.29999995231628 0
v 0.10000000149012 0.89999997615814 -0.40000000596046
v -0.89999997615814 1.39999997615814 0
v 0.10000000149012 0 0.20000000298023
v 0.89999997615814 0 0.20000000298023
v -0.10000000149012 1.39999997615814 0
v -0.10000000149012 0 -0.40000000596046
v -0.10000000149012 1.39999997615814 0.20000000298023
v -0.10000000149012 0 -1.39999997615814
v -0.89999997615814 0 0.20000000298023
v -0.89999997615814 1.39999997615814 0.20000000298023
v 0.10000000149012 0 -0.20000000298023
v -0.89999997615814 1.5 0.20000000298023
v 0.10000000149012 0.80000001192093 -0.20000000298023
v -0.89999997615814 0 -0.40000000596046
v -0.10000000149012 1.5 0.20000000298023
v -0.10000000149012 0 0.20000000298023
v -0.10000000149012 1.5 0.40000000596046
v -0.89999997615814 0 -0.60000002384186
v -0.89999997615814 0 -1.39999997615814
v -0.89999997615814 1.5 0.40000000596046
v 0.10000000149012 0.89999997615814 -0.20000000298023
v -0.89999997615814 1.60000002384186 0.40000000596046
v 0.10000000149012 0 0
v -0.89999997615814 0 0.40000000596046
v -0.10000000149012 1.60000002384186 0.40000000596046
v -0.10000000149012 0 0.40000000596046
v -0.10000000149012 1.60000002384186 0.60000002384186
v 0.10000000149012 1 -1.39999997615814
v 0.10000000149012 0.40000000596046 0.80000001192093
v -0.89999997615814 1.60000002384186 0.60000002384186
v 0.10000000149012 0.40000000596046 0.60000002384186
v -0.89999997615814 1.70000004768372 0.60000002384186
v 0.10000000149012 0.80000001192093 0
v -0.89999997615814 0 0.60000002384186
v -0.10000000149012 1.70000004768372 0.60000002384186
v -0.10000000149012 0 0.60000002384186
v -0.10000000149012 1.70000004768372 0.80000001192093
v 0.89999997615814 0.40000000596046 0.60000002384186
v 0.89999997615814 0.5 0.60000002384186
v -0.89999997615814 1.70000004768372 0.80000001192093
v 0.89999997615814 1 -1.39999997615814
v -0.89999997615814 1.79999995231628 0.80000001192093
v 0.10000000149012 0.5 0.60000002384186
v -0.89999997615814 0 0.80000001192093
v -0.10000000149012 1.79999995231628 0.80000001192093
v -0.10000000149012 0 0.80000001192093
v -0.10000000149012 1.79999995231628 1
v 0.10000000149012 0.5 0.40000000596046
v 0.89999997615814 0.5 0.40000000596046
v -0.89999997615814 1.79999995231628 1
v 0.89999997615814 0.89999997615814 -0.20000000298023
v -0.89999997615814 1.89999997615814 1
v 0.89999997615814 0 -1.39999997615814
v -0.89999997615814 0 1
v -0.10000000149012 1.89999997615814 1
v -0.10000000149012 0 1
v -0.10000000149012 1.89999997615814 1.20000004768372
v 0.10000000149012 1 -0.60000002384186
v 0.89999997615814 0.60000002384186 0.40000000596046
v -0.89999997615814 1.89999997615814 1.20000004768372
v 0.10000000149012 1 -0.40000000596046
v -0.89999997615814 2 1.20000004768372
v 0.89999997615814 0.69999998807907 0
v -0.89999997615814 0 1.20000004768372
v -0.10000000149012 2 1.20000004768372
v -0.10000000149012 0 1.20000004768372
v -0.10000000149012 2 1.39999997615814
v -0.10000000149012 0 1.39999997615814
v -0.89999997615814 0 1.39999997615814
v -0.89999997615814 2 1.39999997615814
v 0.89999997615814 0 0
v 0.89999997615814 0.10000000149012 1.39999997615814
v -0.89999997615814 1 -1.39999997615814
v 0.89999997615814 0 1.39999997615814
v 0.10000000149012 0.10000000149012 1.39999997615814
v 0.10000000149012 0 1.39999997615814
v 0.10000000149012 0.10000000149012 1.20000004768372
v 0.10000000149012 0 1.20000004768372
v 0.10000000149012 0.60000002384186 0.40000000596046
v 0.89999997615814 0.10000000149012 1.20000004768372
v 0.10000000149012 0.60000002384186 0.20000000298023
v 0.89999997615814 0.20000000298023 1.20000004768372
v -0.10000000149012 1 -1.39999997615814
v 0.89999997615814 0 1.20000004768372
v 0.10000000149012 0.20000000298023 1.20000004768372
v 0.89999997615814 0.60000002384186 0.20000000298023
v 0.10000000149012 0.20000000298023 1
v 0.89999997615814 0.80000001192093 0
v 0.89999997615814 0.69999998807907 0.20000000298023
v 0.89999997615814 0.20000000298023 1
v -0.10000000149012 0 -0.60000002384186
v 0.89999997615814 0.30000001192093 1
v 0.10000000149012 0 -1.39999997615814
v 0.89999997615814 0 1
v 0.10000000149012 0.30000001192093 1
v 0.10000000149012 0 1
v 0.10000000149012 0.30000001192093 0.80000001192093
v 0.10000000149012 0 0.80000001192093
v 0.89999997615814 0 0.80000001192093
v 0.89999997615814 0.30000001192093 0.80000001192093
v 0.10000000149012 0.69999998807907 0.20000000298023
v 0.89999997615814 0.40000000596046 0.80000001192093
v -3.5 -0.05000000074506 3.5
v -3.5 0 3.5
v 3.5 -0.05000000074506 3.5
v 3.5 0 3.5
v 3.5 -0.05000000074506 -3.5
v 3.5 0 -3.5
v -3.5 -0.05000000074506 -3.5
v -3.5 0 -3.5
# 236 vertices

vn 0 1 0
vn 0 0 0
vn 0 0 1
vn 1 0 0
vn 0 0 -1
vn 0 0 -1
vn -1 0 0
vn 0 -1 0
vn 0 -1 0
vn 0 0 -1
vn 0 0 1
vn 0 -1 0
vn 0 -1 -0.00000000000001
vn 0 -1 0
vn -0.00000000000001 -1 0
vn 0 -1 0
vn -0.00000000000001 -1 0
vn 0 -1 0
vn 0 -1 0.00000000000001
vn 0 -1 0.00000000000001
vn -1 0 0
vn 1 0 0
vn 0 0 1
vn 0 0 -1
vn 1 0 0
vn 0 -1 0
vn 0 1 0
vn -1 0 0
vn 0 0 1
# 29 normals

vt 0 1 0
vt 1 1 0
vt 1 0.66200000047684 0
vt 0 0 0
vt 1 0 0
vt 0.64285707473755 0.30000007152557 0
vt 0.35714286565781 0.30000007152557 0
vt 0.64285707473755 0.71428573131561 0
vt 0.35714286565781 0.71428573131561 0
vt 0.35714286565781 0.69999998807907 0
vt 0.64285707473755 0.69999998807907 0
vt 0.35714286565781 0.28571426868439 0
vt 0.64285707473755 0.28571426868439 0
vt 0 0.5 0
vt 0 0.25 0
vt 1 0.25 0
vt 1 0.5 0
vt 0.95384615659714 0 0
vt 0.96153843402863 0 0
vt 0.96153843402863 1 0
vt 0.03846153989434 0 0
vt 0.04615384712815 0 0
vt 0.04615384712815 1 0
vt 0 0.04615390300751 0
vt 0 0.03846156597137 0
vt 1 0.03846156597137 0
vt 0 0.96153843402863 0
vt 0 0.95384615659714 0
vt 1 0.95384615659714 0
vt 1 0.96153843402863 0
vt 1 0.04615390300751 0
vt 0.43333333730698 0.42500007152557 0
vt 0.43333333730698 0 0
vt 0.56666666269302 0 0
vt 0.43333333730698 0.92500001192093 0
vt 0.43333333730698 0.5 0
vt 0.56666666269302 0.42500007152557 0
vt 0.56666666269302 0.5 0
vt 0.56666666269302 0.92500001192093 0
vt 0.99166667461395 0.00833332538605 0
vt 0.00833333376795 0.99166667461395 0
vt 0.00833333376795 0.00833332538605 0
vt 0.99166667461395 0.99166667461395 0
vt 0.43333333730698 1 0
vt 0.43333333730698 0.99166667461395 0
vt 0.56666666269302 0.99166667461395 0
vt 0.56666666269302 1 0
vt 0.00833333376795 0.56666666269302 0
vt 0 0.56666666269302 0
vt 0 0.43333339691162 0
vt 0.00833333376795 0.43333339691162 0
vt 1 0.56666666269302 0
vt 0.99166667461395 0.56666666269302 0
vt 0.99166667461395 0.43333339691162 0
vt 1 0.43333339691162 0
vt 0.43333333730698 0.00833332538605 0
vt 0.56666666269302 0.00833332538605 0
vt 0 0.97619044780731 0
vt 0 0.02380955219269 0
vt 0.43220338225365 0.02380955219269 0
vt 0.56779658794403 0.42857146263123 0
vt 0.56779658794403 0.02380955219269 0
vt 1 0.02380955219269 0
vt 0.43220338225365 0.5 0
vt 0.43220338225365 0.90476191043854 0
vt 1 0.97619044780731 0
vt 0.56779658794403 0.90476191043854 0
vt 0.56779658794403 0.5 0
vt 0.43220338225365 0.42857146263123 0
vt 1 0.33000004291534 0
vt 0 0.33800005912781 0
vt 0.95384615659714 1 0
vt 0.03846153989434 1 0
# 73 texture coordinates

o Boole.1
usemtl beton2
f 184/3/1 187/2/1 99/1/1
f 4/2/3 2/1/3 1/4/3
f 6/2/4 4/1/4 3/4/4
f 8/2/5 6/1/6 5/4/5
f 2/2/7 8/1/7 7/4/7
f 10/6/1 4/5/1 6/2/1
f 4/5/1 10/6/1 9/7/1
f 8/1/1 2/4/1 9/7/1
f 12/9/1 11/8/1 6/2/1
f 3/2/8 1/1/8 13/10/8
f 13/10/8 1/1/8 7/4/8
f 5/5/8 3/2/8 14/11/8
f 15/13/8 16/12/8 7/4/8
f 14/16/5 13/15/5 9/14/5
f 15/16/7 14/15/7 10/14/7
f 11/14/3 12/17/3 16/16/3
f 13/16/4 16/15/4 12/14/4
f 187/4/7 184/71/7 110/70/7
f 98/2/5 101/1/6 102/4/5
f 149/5/7 159/4/21 139/1/7
f 101/2/1 98/1/1 106/4/1
f 146/5/5 148/2/5 151/1/5
f 227/2/1 215/1/1 189/4/1
f 106/5/5 108/2/5 111/1/5
f 105/5/7 169/4/21 174/1/7
f 116/5/5 118/2/5 121/1/5
f 221/2/1 218/1/1 226/4/1
f 154/5/5 167/2/6 179/1/5
f 111/2/1 108/1/1 116/4/1
f 199/5/1 100/4/1 102/1/1
f 140/5/7 115/2/7 116/1/7
f 107/5/4 179/2/4 167/1/4
f 132/5/4 111/4/22 113/1/4
f 97/5/3 99/2/3 187/1/3
f 197/5/4 119/2/4 109/1/4
f 121/2/1 118/1/1 126/4/1
f 220/5/4 225/2/4 226/1/4
f 115/5/7 125/2/7 126/1/7
f 117/5/4 120/2/4 175/1/4
f 114/5/4 121/4/22 123/1/4
f 109/5/3 177/2/3 147/1/3
f 222/5/7 221/4/21 223/1/7
f 131/2/1 128/1/1 136/4/1
f 122/5/7 205/4/21 207/1/7
f 125/5/7 135/2/7 136/1/7
f 102/5/1 184/2/1 154/1/1
f 124/5/4 131/4/22 133/1/4
f 159/5/23 104/2/23 189/1/23
f 141/2/1 138/1/1 146/4/1
f 135/5/7 150/2/7 146/1/7
f 142/5/4 141/4/22 143/1/4
f 212/5/3 215/2/3 227/1/3
f 159/2/1 214/1/1 109/4/1
f 151/2/1 148/1/1 156/4/1
f 120/5/4 130/2/4 212/1/4
f 150/5/7 160/2/7 156/1/7
f 169/2/1 165/1/1 175/4/1
f 152/5/4 151/4/22 153/1/4
f 175/5/3 185/2/3 205/1/3
f 161/2/1 158/1/1 166/4/1
f 136/5/5 138/2/5 141/1/5
f 160/5/7 170/2/7 166/1/7
f 217/5/3 110/2/11 184/1/3
f 162/5/4 161/4/22 163/1/4
f 164/5/3 165/2/3 169/1/3
f 137/5/7 147/4/21 127/1/7
f 171/2/1 168/1/1 176/4/1
f 170/5/7 180/2/7 176/1/7
f 172/5/4 171/4/22 173/1/4
f 226/5/3 228/2/3 155/1/3
f 129/5/7 227/4/21 104/1/7
f 181/2/1 178/1/1 186/4/1
f 205/2/1 185/1/1 212/4/1
f 180/5/7 190/2/7 186/1/7
f 224/5/7 155/4/21 157/1/7
f 182/5/4 181/4/22 183/1/4
f 216/5/3 218/2/3 221/1/3
f 147/2/1 177/1/1 97/4/1
f 191/2/1 188/1/1 196/4/1
f 209/5/5 154/2/5 219/1/5
f 190/5/7 195/2/7 196/1/7
f 119/5/4 107/2/4 97/1/4
f 192/5/4 191/4/22 193/1/4
f 198/2/3 201/1/3 202/4/3
f 206/5/3 208/2/3 211/1/3
f 201/2/1 198/1/1 206/4/1
f 130/5/4 197/2/4 189/1/4
f 200/5/4 210/2/4 206/1/4
f 202/5/7 201/4/21 203/1/7
f 225/5/4 117/2/4 164/1/4
f 211/2/1 208/1/1 216/4/1
f 210/5/4 220/2/4 216/1/4
f 126/5/24 128/2/24 131/1/24
f 204/5/7 211/4/21 213/1/7
f 155/2/1 228/1/1 164/4/1
f 186/5/5 188/2/5 191/1/5
f 176/5/5 178/2/5 181/1/5
f 166/5/5 168/2/5 171/1/5
f 156/5/5 158/2/5 161/1/5
f 132/5/4 217/2/4 101/1/4
f 134/5/5 145/2/5 199/1/5
f 144/5/7 140/2/7 106/1/7
f 145/5/7 144/2/7 100/1/7
f 193/5/3 196/2/3 195/1/3
f 232/2/3 230/1/3 229/4/3
f 234/2/4 232/1/4 231/4/4
f 236/2/5 234/1/6 233/4/5
f 230/2/7 236/1/7 235/4/7
f 234/2/1 236/1/1 230/4/1
f 231/2/8 229/1/8 235/4/8
f 3/5/3 4/2/3 1/4/3
f 5/5/4 6/2/4 3/4/4
f 7/5/5 8/2/5 5/4/5
f 1/5/7 2/2/7 7/4/7
f 11/8/1 10/6/1 6/2/1
f 2/4/1 4/5/1 9/7/1
f 12/9/1 8/1/1 9/7/1
f 8/1/1 12/9/1 6/2/1
f 14/11/8 3/2/8 13/10/8
f 16/12/8 13/10/8 7/4/8
f 15/13/8 5/5/8 14/11/8
f 5/5/8 15/13/8 7/4/8
f 10/17/10 14/16/5 9/14/5
f 11/17/7 15/16/7 10/14/7
f 15/15/3 11/14/3 16/16/3
f 9/17/4 13/16/4 12/14/4
f 112/5/7 187/4/7 110/70/7
f 100/5/5 98/2/5 102/4/5
f 137/2/28 149/5/7 139/1/7
f 103/5/1 101/2/1 106/4/1
f 143/4/5 146/5/5 151/1/5
f 104/5/1 227/2/1 189/4/1
f 103/4/5 106/5/5 111/1/5
f 122/2/28 105/5/7 174/1/7
f 113/4/5 116/5/5 121/1/5
f 223/5/1 221/2/1 226/4/1
f 219/4/5 154/5/5 179/1/5
f 113/5/1 111/2/1 116/4/1
f 209/2/1 199/5/1 102/1/1
f 108/4/7 140/5/7 116/1/7
f 99/4/4 107/5/4 167/1/4
f 114/2/4 132/5/4 113/1/4
f 127/4/3 97/5/3 187/1/3
f 214/4/4 197/5/4 109/1/4
f 123/5/1 121/2/1 126/4/1
f 218/4/4 220/5/4 226/1/4
f 118/4/7 115/5/7 126/1/7
f 165/4/4 117/5/4 175/1/4
f 124/2/4 114/5/4 123/1/4
f 139/4/3 109/5/3 147/1/3
f 224/2/28 222/5/7 223/1/7
f 133/5/1 131/2/1 136/4/1
f 129/2/28 122/5/7 207/1/7
f 128/4/7 125/5/7 136/1/7
f 209/4/1 102/5/1 154/1/1
f 142/2/4 124/5/4 133/1/4
f 214/4/23 159/5/23 189/1/23
f 143/5/1 141/2/1 146/4/1
f 138/4/7 135/5/7 146/1/7
f 152/2/4 142/5/4 143/1/4
f 207/4/3 212/5/3 227/1/3
f 139/5/1 159/2/1 109/4/1
f 153/5/1 151/2/1 156/4/1
f 185/4/4 120/5/4 212/1/4
f 148/4/7 150/5/7 156/1/7
f 174/5/1 169/2/1 175/4/1
f 162/2/4 152/5/4 153/1/4
f 174/4/3 175/5/3 205/1/3
f 163/5/1 161/2/1 166/4/1
f 133/4/5 136/5/5 141/1/5
f 158/4/7 160/5/7 166/1/7
f 102/4/29 217/5/3 184/1/3
f 172/2/4 162/5/4 163/1/4
f 157/4/3 164/5/3 169/1/3
f 112/2/28 137/5/7 127/1/7
f 173/5/1 171/2/1 176/4/1
f 168/4/7 170/5/7 176/1/7
f 182/2/4 172/5/4 173/1/4
f 223/4/3 226/5/3 155/1/3
f 149/2/28 129/5/7 104/1/7
f 183/5/1 181/2/1 186/4/1
f 207/5/1 205/2/1 212/4/1
f 178/4/7 180/5/7 186/1/7
f 105/2/28 224/5/7 157/1/7
f 192/2/4 182/5/4 183/1/4
f 213/4/3 216/5/3 221/1/3
f 127/5/1 147/2/1 97/4/1
f 193/5/1 191/2/1 196/4/1
f 134/4/5 209/5/5 219/1/5
f 188/4/7 190/5/7 196/1/7
f 177/4/4 119/5/4 97/1/4
f 194/2/4 192/5/4 193/1/4
f 200/5/3 198/2/3 202/4/3
f 203/4/3 206/5/3 211/1/3
f 203/5/1 201/2/1 206/4/1
f 215/4/4 130/5/4 189/1/4
f 198/4/4 200/5/4 206/1/4
f 204/2/28 202/5/7 203/1/7
f 228/4/4 225/5/4 164/1/4
f 213/5/1 211/2/1 216/4/1
f 208/4/4 210/5/4 216/1/4
f 123/4/24 126/5/24 131/1/24
f 222/2/28 204/5/7 213/1/7
f 157/5/1 155/2/1 164/4/1
f 183/4/5 186/5/5 191/1/5
f 173/4/5 176/5/5 181/1/5
f 163/4/5 166/5/5 171/1/5
f 153/4/5 156/5/5 161/1/5
f 103/4/4 132/5/4 101/1/4
f 209/4/5 134/5/5 199/1/5
f 98/4/7 144/5/7 106/1/7
f 199/4/7 145/5/7 100/1/7
f 194/4/3 193/5/3 195/1/3
f 231/5/3 232/2/3 229/4/3
f 233/5/4 234/2/4 231/4/4
f 235/5/5 236/2/5 233/4/5
f 229/5/7 230/2/7 235/4/7
f 232/5/1 234/2/1 230/4/1
f 233/5/8 231/2/8 235/4/8
f 184/3/1 99/1/1 167/4/1
f 154/5/1 184/3/1 167/4/1

usemtl beton1
f 19/20/7 20/19/7 92/18/7
f 88/23/7 87/22/7 64/21/7
f 17/20/4 18/19/4 21/18/4
f 23/23/4 24/22/4 72/21/4
f 66/26/8 17/25/8 22/24/8
f 91/29/8 23/28/8 74/27/8
f 18/27/1 64/30/1 87/29/1
f 24/24/1 92/31/1 20/26/1
f 71/20/5 65/19/5 90/18/5
f 93/23/5 28/22/5 77/21/5
f 75/20/3 76/19/3 29/18/3
f 26/23/3 27/22/3 70/21/3
f 73/26/8 75/25/9 30/24/8
f 25/29/8 26/28/9 67/27/8
f 76/27/1 77/30/1 28/29/1
f 27/24/1 90/31/1 65/26/1
f 33/20/7 59/19/7 86/18/7
f 89/23/7 60/22/7 32/21/7
f 69/20/4 61/19/4 62/18/4
f 95/23/4 36/22/4 58/21/4
f 31/26/8 69/25/8 34/24/8
f 35/29/8 95/28/8 78/27/8
f 68/20/5 37/19/10 45/18/5
f 94/23/5 63/22/5 41/21/5
f 42/20/3 43/19/3 85/18/3
f 46/23/3 47/22/3 39/21/3
f 40/26/8 42/25/9 96/24/8
f 44/29/8 46/28/9 38/27/8
f 48/4/3 61/33/11 69/32/3
f 32/34/3 50/5/11 51/2/3
f 49/1/3 18/36/3 17/35/3
f 18/36/3 69/32/3 31/37/3
f 64/38/3 31/37/3 51/2/3
f 49/1/3 69/32/3 18/36/3
f 66/39/3 64/38/3 51/2/3
f 66/39/3 51/2/3 49/1/3
f 68/32/4 38/37/4 70/38/4
f 39/34/4 52/5/4 53/2/4
f 50/4/4 37/33/4 68/32/4
f 70/38/4 38/37/4 53/2/4
f 67/39/4 70/38/4 53/2/4
f 51/1/4 68/32/4 65/36/4
f 51/1/4 65/36/4 71/35/4
f 67/39/4 53/2/4 51/1/4
f 58/34/5 54/5/5 55/2/5
f 52/4/5 59/33/5 33/32/5
f 55/2/5 74/39/5 72/38/5
f 74/39/5 55/2/5 53/1/5
f 20/36/5 19/35/5 53/1/5
f 78/37/5 55/2/5 72/38/5
f 78/37/5 72/38/5 20/36/5
f 20/36/5 53/1/5 33/32/5
f 41/34/7 48/5/7 49/2/7
f 54/4/7 43/33/7 42/32/7
f 77/38/7 40/37/7 49/2/7
f 40/37/7 77/38/7 76/36/7
f 73/39/7 77/38/7 49/2/7
f 55/1/7 42/32/7 76/36/7
f 55/1/7 76/36/7 75/35/7
f 73/39/7 49/2/7 55/1/7
f 49/4/1 51/5/1 79/40/1
f 79/40/1 51/5/1 53/2/1
f 49/4/1 56/42/1 57/41/1
f 80/43/1 53/2/1 55/1/1
f 62/45/8 61/44/8 48/1/8
f 32/47/13 60/46/13 83/43/12
f 41/49/8 63/48/8 82/41/8
f 85/51/8 43/50/8 54/4/8
f 45/53/15 37/52/15 50/2/14
f 39/55/15 47/54/17 81/40/16
f 58/33/8 36/56/8 84/42/8
f 86/57/20 59/34/19 52/5/18
f 62/60/5 82/59/5 56/58/5
f 83/63/5 60/62/5 89/61/5
f 56/58/5 22/65/5 21/64/5
f 22/65/5 56/58/5 79/66/5
f 87/68/5 88/67/5 79/66/5
f 34/69/5 56/58/5 21/64/5
f 34/69/5 21/64/5 87/68/5
f 87/68/5 79/66/5 89/61/5
f 45/60/7 83/59/7 79/58/7
f 81/63/7 47/62/7 46/61/7
f 90/64/7 44/69/7 79/58/7
f 44/69/7 90/64/7 27/68/7
f 25/65/7 90/64/7 79/58/7
f 80/66/7 46/61/7 27/68/7
f 80/66/7 27/68/7 26/67/7
f 25/65/7 79/58/7 80/66/7
f 84/63/3 36/62/11 95/61/11
f 86/60/3 81/59/11 80/58/3
f 84/63/3 95/61/11 23/67/3
f 24/68/3 95/61/3 35/69/3
f 92/64/3 35/69/3 80/58/3
f 91/65/3 92/64/3 80/58/3
f 91/65/3 80/58/3 57/66/3
f 94/61/4 96/69/4 29/64/4
f 85/60/4 84/59/4 57/58/4
f 82/63/4 63/62/4 94/61/4
f 29/64/4 96/69/4 57/58/4
f 30/65/4 29/64/4 57/58/4
f 56/66/4 94/61/4 28/68/4
f 56/66/4 28/68/4 93/67/4
f 30/65/4 57/58/4 56/66/4
f 91/72/7 19/20/7 92/18/7
f 66/73/7 88/23/7 64/21/7
f 22/72/25 17/20/4 21/18/4
f 74/73/25 23/23/4 72/21/4
f 88/31/8 66/26/8 22/24/8
f 19/30/8 91/29/8 74/27/8
f 21/28/1 18/27/1 87/29/1
f 72/25/1 24/24/1 20/26/1
f 25/72/5 71/20/5 90/18/5
f 73/73/5 93/23/5 77/21/5
f 30/72/3 75/20/3 29/18/3
f 67/73/3 26/23/3 70/21/3
f 93/31/26 73/26/8 30/24/8
f 71/30/26 25/29/8 67/27/8
f 29/28/27 76/27/1 28/29/1
f 70/25/27 27/24/1 65/26/1
f 35/72/7 33/20/7 86/18/7
f 31/73/7 89/23/7 32/21/7
f 34/72/25 69/20/4 62/18/4
f 78/73/25 95/23/4 58/21/4
f 89/31/8 31/26/8 34/24/8
f 33/30/8 35/29/8 78/27/8
f 44/72/5 68/20/5 45/18/5
f 40/73/5 94/23/5 41/21/5
f 96/72/3 42/20/3 85/18/3
f 38/73/3 46/23/3 39/21/3
f 94/31/26 40/26/8 96/24/8
f 68/30/26 44/29/8 38/27/8
f 49/1/3 48/4/3 69/32/3
f 31/37/3 32/34/3 51/2/3
f 64/38/3 18/36/3 31/37/3
f 17/35/3 66/39/3 49/1/3
f 65/36/4 68/32/4 70/38/4
f 38/37/4 39/34/4 53/2/4
f 51/1/4 50/4/4 68/32/4
f 71/35/4 67/39/4 51/1/4
f 78/37/5 58/34/5 55/2/5
f 53/1/5 52/4/5 33/32/5
f 19/35/5 74/39/5 53/1/5
f 33/32/5 78/37/5 20/36/5
f 40/37/7 41/34/7 49/2/7
f 55/1/7 54/4/7 42/32/7
f 42/32/7 40/37/7 76/36/7
f 75/35/7 73/39/7 55/1/7
f 56/42/1 49/4/1 79/40/1
f 80/43/1 79/40/1 53/2/1
f 55/1/1 49/4/1 57/41/1
f 57/41/1 80/43/1 55/1/1
f 82/41/8 62/45/8 48/1/8
f 50/2/14 32/47/13 83/43/12
f 48/1/8 41/49/8 82/41/8
f 84/42/8 85/51/8 54/4/8
f 83/43/12 45/53/15 50/2/14
f 52/5/18 39/55/15 81/40/16
f 54/4/8 58/33/8 84/42/8
f 81/40/16 86/57/20 52/5/18
f 34/69/5 62/60/5 56/58/5
f 79/66/5 83/63/5 89/61/5
f 88/67/5 22/65/5 79/66/5
f 89/61/5 34/69/5 87/68/5
f 44/69/7 45/60/7 79/58/7
f 80/66/7 81/63/7 46/61/7
f 46/61/7 44/69/7 27/68/7
f 26/67/7 25/65/7 80/66/7
f 35/69/3 86/60/3 80/58/3
f 57/66/3 84/63/3 23/67/3
f 92/64/3 24/68/3 35/69/3
f 23/67/3 91/65/3 57/66/3
f 28/68/4 94/61/4 29/64/4
f 96/69/4 85/60/4 57/58/4
f 56/66/4 82/63/4 94/61/4
f 93/67/4 30/65/4 56/66/4

